<svg width="22" height="23" viewBox="0 0 22 23" fill="none" xmlns="http://www.w3.org/2000/svg">
<path d="M11.389 22.92C9.50097 22.92 7.90897 22.736 6.61297 22.368C5.33297 22 4.22097 21.4 3.27697 20.568C1.37297 18.904 0.420969 15.96 0.420969 11.736C0.420969 7.992 1.34897 5.2 3.20497 3.36C5.07697 1.52 7.80497 0.599999 11.389 0.599999C14.909 0.599999 17.517 1.432 19.213 3.096C20.909 4.76 21.757 7.288 21.757 10.68V10.944C21.757 12.752 21.597 14.176 21.277 15.216C20.973 16.256 20.509 17 19.885 17.448C19.277 17.88 18.485 18.096 17.509 18.096C16.741 18.096 16.101 17.976 15.589 17.736C15.077 17.496 14.709 17.144 14.485 16.68C13.029 17.608 11.701 18.072 10.501 18.072C9.10897 18.072 8.04497 17.64 7.30897 16.776C6.57297 15.912 6.20497 14.416 6.20497 12.288C6.20497 10.768 6.35697 9.544 6.66097 8.616C6.98097 7.688 7.48497 7.008 8.17297 6.576C8.87697 6.144 9.81297 5.928 10.981 5.928C11.621 5.928 12.349 6.072 13.165 6.36L13.573 6.528V6.168H15.805V10.656C15.805 13.28 15.877 14.824 16.021 15.288C16.181 15.704 16.365 15.968 16.573 16.08C16.781 16.176 17.109 16.224 17.557 16.224C18.133 16.224 18.565 15.984 18.853 15.504C19.141 15.008 19.317 14.4 19.381 13.68C19.461 12.96 19.501 12.048 19.501 10.944V10.656C19.501 8.752 19.221 7.208 18.661 6.024C18.117 4.84 17.245 3.968 16.045 3.408C14.861 2.848 13.301 2.568 11.365 2.568C8.43697 2.568 6.25297 3.328 4.81297 4.848C3.38897 6.352 2.67697 8.696 2.67697 11.88C2.67697 14.056 2.97297 15.808 3.56497 17.136C4.15697 18.448 5.08497 19.408 6.34897 20.016C7.61297 20.64 9.29297 20.952 11.389 20.952L14.821 20.712L14.893 22.704C13.405 22.848 12.237 22.92 11.389 22.92ZM10.669 16.104C11.325 16.104 12.357 15.792 13.765 15.168C13.637 14.48 13.573 13.264 13.573 11.52V8.304C12.741 8.032 12.021 7.896 11.413 7.896C10.645 7.896 10.045 8.04 9.61297 8.328C9.19697 8.6 8.90097 9.04 8.72497 9.648C8.54897 10.24 8.46097 11.056 8.46097 12.096C8.46097 14.768 9.19697 16.104 10.669 16.104Z" fill="#511285"/>
</svg>
