<svg width="26" height="27" viewBox="0 0 26 27" fill="none" xmlns="http://www.w3.org/2000/svg">
<path d="M24.5781 12.72L13.4309 23.8672C12.0653 25.2328 10.2131 26 8.28187 26C6.3506 26 4.49843 25.2328 3.13281 23.8672C1.76719 22.5016 1 20.6494 1 18.7181C1 16.7869 1.76719 14.9347 3.13281 13.5691L14.28 2.42187C15.1904 1.51146 16.4252 1 17.7127 1C19.0002 1 20.235 1.51146 21.1454 2.42187C22.0558 3.33228 22.5673 4.56706 22.5673 5.85458C22.5673 7.14209 22.0558 8.37688 21.1454 9.28729L9.98609 20.4345C9.53089 20.8897 8.9135 21.1454 8.26974 21.1454C7.62598 21.1454 7.00859 20.8897 6.55339 20.4345C6.09818 19.9793 5.84245 19.3619 5.84245 18.7181C5.84245 18.0744 6.09818 17.457 6.55339 17.0018L16.8515 6.71579" stroke="white" stroke-width="2" stroke-linecap="round" stroke-linejoin="round"/>
</svg>
