<svg width="11" height="16" viewBox="0 0 11 16" fill="none" xmlns="http://www.w3.org/2000/svg">
<path d="M5.4545 1C4.94818 1 4.46259 1.20114 4.10457 1.55916C3.74655 1.91718 3.54541 2.40277 3.54541 2.90909V8C3.54541 8.50632 3.74655 8.99191 4.10457 9.34993C4.46259 9.70796 4.94818 9.90909 5.4545 9.90909C5.96082 9.90909 6.44641 9.70796 6.80443 9.34993C7.16246 8.99191 7.36359 8.50632 7.36359 8V2.90909C7.36359 2.40277 7.16246 1.91718 6.80443 1.55916C6.44641 1.20114 5.96082 1 5.4545 1V1Z" stroke="white" stroke-linecap="round" stroke-linejoin="round"/>
<path d="M9.90909 6.72726V7.99999C9.90909 9.18141 9.43977 10.3144 8.60439 11.1498C7.769 11.9852 6.63596 12.4545 5.45455 12.4545C4.27313 12.4545 3.1401 11.9852 2.30471 11.1498C1.46932 10.3144 1 9.18141 1 7.99999V6.72726" stroke="white" stroke-linecap="round" stroke-linejoin="round"/>
<path d="M5.45459 12.4545V15" stroke="white" stroke-linecap="round" stroke-linejoin="round"/>
<path d="M2.90906 15H7.99997" stroke="white" stroke-linecap="round" stroke-linejoin="round"/>
</svg>
