<svg width="16" height="17" viewBox="0 0 16 17" fill="none" xmlns="http://www.w3.org/2000/svg">
<path d="M12.25 5.5C13.4926 5.5 14.5 4.49264 14.5 3.25C14.5 2.00736 13.4926 1 12.25 1C11.0073 1 9.99997 2.00736 9.99997 3.25C9.99997 4.49264 11.0073 5.5 12.25 5.5Z" fill="#5939C6" stroke="#5939C6" stroke-width="2" stroke-linecap="round" stroke-linejoin="round"/>
<path d="M3.25 10.75C4.49264 10.75 5.5 9.74264 5.5 8.5C5.5 7.25736 4.49264 6.25 3.25 6.25C2.00736 6.25 1 7.25736 1 8.5C1 9.74264 2.00736 10.75 3.25 10.75Z" fill="#5939C6" stroke="#5939C6" stroke-width="2" stroke-linecap="round" stroke-linejoin="round"/>
<path d="M12.25 16C13.4926 16 14.5 14.9926 14.5 13.75C14.5 12.5074 13.4926 11.5 12.25 11.5C11.0073 11.5 9.99997 12.5074 9.99997 13.75C9.99997 14.9926 11.0073 16 12.25 16Z" fill="#5939C6" stroke="#5939C6" stroke-width="2" stroke-linecap="round" stroke-linejoin="round"/>
<path d="M5.1925 9.63248L10.315 12.6175" stroke="#5939C6" stroke-width="2" stroke-linecap="round" stroke-linejoin="round"/>
<path d="M10.3075 4.38251L5.1925 7.3675" stroke="#5939C6" stroke-width="2" stroke-linecap="round" stroke-linejoin="round"/>
</svg>
