<svg xmlns="http://www.w3.org/2000/svg" width="48" height="48" viewBox="0 0 48 48">
  <path id="back_home" d="M158,48a24,24,0,1,0-24-24A24,24,0,0,0,158,48Zm12.171-29.184-11.25-8.75a1.5,1.5,0,0,0-1.842,0l-11.25,8.75A1.5,1.5,0,0,0,145.25,20V33.75a4,4,0,0,0,4,4h17.5a4,4,0,0,0,4-4V20A1.5,1.5,0,0,0,170.171,18.816ZM148.25,33.75V20.734L158,13.15l9.75,7.583V33.75a1,1,0,0,1-1,1h-3.5v-11a1.5,1.5,0,0,0-1.5-1.5h-7.5a1.5,1.5,0,0,0-1.5,1.5v11h-3.5a1,1,0,0,1-1-1Zm12-8.5v9.5h-4.5v-9.5Z" transform="translate(-134)" fill="#fff" fill-rule="evenodd"/>
</svg>
