<svg width="230" height="230" viewBox="0 0 230 230" fill="none" xmlns="http://www.w3.org/2000/svg">
<g clip-path="url(#clip0)">
<rect width="230" height="230" fill="#D1D1D1"/>
<path fill-rule="evenodd" clip-rule="evenodd" d="M-71.7081 65.0899C-71.7709 65.1259 -72.0009 65.2258 -72.2192 65.3118C-73.7868 65.9295 -75.5885 67.0281 -76.9145 68.1747C-78.3651 69.429 -79.8042 71.2239 -80.5859 72.7537C-81.2045 73.9643 -81.5726 74.8795 -81.9013 76.0241C-82.3229 77.4924 -82.5368 79.3989 -82.4444 80.8637C-82.3601 82.198 -82.2524 82.8648 -81.9204 84.1064C-81.682 84.9981 -81.6006 85.2392 -81.2455 86.1048C-80.7752 87.2516 -79.9427 88.657 -79.1413 89.657C-78.449 90.5209 -77.3621 91.5868 -77.0623 91.6957C-76.9599 91.7329 -76.9195 91.7278 -76.8321 91.6663C-76.7738 91.6253 -76.4913 91.2098 -76.2042 90.743C-75.9171 90.2762 -75.5956 89.7756 -75.4896 89.6305C-74.7543 88.6239 -73.5315 87.3369 -72.4601 86.4419C-72.1938 86.2195 -71.9441 85.9907 -71.9051 85.9335C-71.7992 85.7779 -71.8645 85.6212 -72.194 85.2405C-72.9775 84.3351 -73.612 83.1257 -73.9339 81.9241C-74.1025 81.295 -74.1614 80.9111 -74.2082 80.1369C-74.3161 78.351 -73.7811 76.4641 -72.7739 75.079C-71.982 73.9898 -71.1841 73.2931 -70.0529 72.7032C-69.3269 72.3245 -68.9404 72.1706 -68.2528 71.9864C-66.7462 71.5827 -65.1216 71.6231 -63.6181 72.1017C-63.0917 72.2692 -61.9695 72.8547 -61.4542 73.2306C-60.7511 73.7436 -60.1261 74.4083 -59.5825 75.2213C-59.1329 75.8937 -58.876 76.3939 -58.6362 77.0639C-58.4007 77.7216 -58.3528 77.9005 -58.2447 78.5237C-58.0683 79.5414 -58.0744 80.5268 -58.2632 81.521C-58.3495 81.9747 -58.3561 82.0838 -58.3023 82.1658C-58.2474 82.2496 -58.0746 82.2967 -57.1492 82.4802C-55.8071 82.7463 -54.953 82.9768 -54.0583 83.3142C-53.1355 83.6622 -52.9155 83.7636 -51.917 84.3009C-50.79 84.9073 -50.8136 84.9129 -50.5279 83.9727C-49.8589 81.7721 -49.7193 79.7318 -50.0625 77.1749C-50.1193 76.7514 -50.7278 74.4596 -50.8592 74.1738C-50.911 74.0613 -51.0232 73.7976 -51.1086 73.5879C-51.7602 71.9883 -52.9448 70.2309 -54.308 68.8419C-54.9805 68.1566 -55.9598 67.3484 -56.8416 66.7509C-59.0273 65.2697 -62.0016 64.2834 -64.7777 64.1193C-65.9896 64.0476 -67.068 64.0832 -68.0988 64.229C-68.3895 64.2701 -68.7105 64.3074 -68.8123 64.3119C-69.0338 64.3217 -71.5449 64.9964 -71.7081 65.0899ZM19.8347 41.4907C19.7497 41.5338 19.5238 41.612 19.3327 41.6644C18.2925 41.9495 16.5442 42.8262 15.4558 43.6084C14.7527 44.1137 14.5967 44.2442 14.0894 44.752C13.2455 45.5966 12.5044 46.6836 12.1385 47.6134C11.5517 49.1047 11.4732 50.7424 11.9108 52.3673C12.3826 54.1193 13.1908 55.413 14.4942 56.5027C16.2364 57.9594 18.6791 58.82 22.2648 59.2406C22.991 59.3257 24.454 59.4503 25.0044 59.4739C26.0496 59.5187 27.2628 59.6994 27.9299 59.9098C28.3229 60.0338 28.9614 60.3554 29.1527 60.5259C29.6608 60.9785 29.8629 61.8002 29.6832 62.6818C29.5618 63.2769 29.0928 63.8659 28.3852 64.3116C27.7387 64.7189 26.5749 65.0892 25.693 65.1681C24.807 65.2475 23.6997 65.1192 22.5457 64.8035C22.0745 64.6746 21.1028 64.3092 20.6758 64.1004C20.5335 64.0308 20.1841 63.8696 19.8992 63.7423C18.6279 63.1737 18.4051 63.2079 17.7741 64.068C17.4185 64.5526 16.6173 65.8084 15.6042 67.4686C14.9546 68.5333 14.8841 68.7123 14.9969 69.0112C15.1186 69.3333 15.3805 69.528 16.6278 70.2232C17.5966 70.7632 17.9231 70.9207 18.6011 71.1753C20.5108 71.8922 22.8455 72.3317 24.7411 72.3313C26.1601 72.331 27.1438 72.1992 28.554 71.8203C30.7702 71.2249 32.5608 70.3521 34.2167 69.0601C35.4602 68.0897 36.6509 66.6661 37.2421 65.4426C38.1631 63.5369 38.3893 62.069 38.0932 59.9203C38.0297 59.4593 37.6843 58.255 37.4682 57.7407C37.3111 57.3669 36.91 56.6338 36.6802 56.3003C36.0598 55.4 34.7651 54.3435 33.7369 53.8985C31.6151 52.9799 29.6304 52.6476 24.707 52.3861C23.036 52.2973 22.8193 52.2761 22.077 52.1277C21.5343 52.0193 21.3627 51.9634 21.0059 51.7787C20.6899 51.6151 20.5287 51.5008 20.377 51.3327C20.1796 51.1139 20.1689 51.091 20.0405 50.6119C19.9124 50.1338 19.9101 50.107 19.9709 49.8224C20.1587 48.9434 21.1301 48.2042 22.6183 47.8076C23.3194 47.6208 23.6765 47.5868 24.4333 47.6352C25.0795 47.6765 25.3236 47.7163 25.9247 47.879C26.5123 48.0379 27.1626 48.2791 27.8297 48.5853C28.7947 49.0283 29.1406 49.0568 29.5414 48.7265C29.7498 48.5547 29.9646 48.2133 30.7263 46.8431C31.0276 46.3011 31.4559 45.5401 31.6781 45.152C32.507 43.7037 32.5853 43.3361 32.1667 42.8589C31.7268 42.3574 30.7311 41.8869 28.8744 41.3031C27.5877 40.8984 26.2613 40.6965 24.8653 40.6927C23.8392 40.6898 22.8877 40.7766 21.9522 40.9583C21.1697 41.1103 20.0097 41.402 19.8347 41.4907ZM-48.7258 60.5344C-48.9983 60.7019 -49.1767 60.9537 -49.2175 61.2284C-49.2392 61.3748 -48.9804 62.3674 -46.7669 70.6284C-45.2685 76.2207 -44.2489 79.9647 -44.1826 80.1183C-44.1224 80.2578 -44.0041 80.5438 -43.9197 80.7538C-43.1172 82.7514 -41.7441 84.5615 -40.1207 85.762C-39.1058 86.5125 -38.3179 86.9119 -37.0629 87.3122C-35.7805 87.7212 -34.622 87.8843 -33.1889 87.8576C-31.4611 87.8255 -30.1662 87.6373 -28.3817 87.1592C-27.4703 86.915 -26.5667 86.6247 -26.1188 86.4322C-26.0431 86.3997 -25.7676 86.2854 -25.5067 86.1782C-23.9256 85.5288 -22.2468 84.472 -21.2821 83.5187C-19.6638 81.9195 -18.7753 80.3313 -18.306 78.1994C-17.9921 76.773 -17.9456 75.6865 -18.126 73.9904C-18.2101 73.1998 -18.3833 72.5149 -20.7472 63.6294L-23.1847 54.4668L-23.3563 54.2849C-23.5638 54.0649 -23.8786 53.949 -24.2103 53.9704C-24.3678 53.9805 -25.3978 54.2457 -27.525 54.8239C-30.395 55.6039 -30.6214 55.6708 -30.756 55.7777C-30.9381 55.9222 -31.0929 56.165 -31.1527 56.3998L-31.1989 56.5814L-28.8053 65.603L-26.4117 74.6247L-26.3963 75.0409C-26.3776 75.5465 -26.3997 75.8985 -26.4823 76.4124C-26.579 77.0139 -26.7735 77.4976 -27.1821 78.1523C-27.5039 78.6679 -27.59 78.7737 -27.9361 79.0773C-28.6727 79.7235 -29.3372 80.0814 -30.2591 80.3285C-31.3925 80.6323 -32.551 80.6172 -33.4928 80.2862C-33.8732 80.1525 -34.4963 79.7862 -34.8368 79.4961C-35.4792 78.9488 -36.0457 78.1198 -36.4201 77.1796C-36.5066 76.9624 -37.437 73.5892 -38.9454 68.0241C-40.7403 61.4021 -41.351 59.196 -41.4029 59.1464C-41.5345 59.0206 -41.8648 58.8721 -42.0929 58.8364L-42.3219 58.8006L-45.4766 59.6385C-47.2117 60.0993 -48.6739 60.5024 -48.7258 60.5344ZM36.4348 37.7371C36.1631 37.8912 35.9834 38.1224 35.9158 38.4049L35.8574 38.6488L36.5885 41.3322C37.3151 43.9988 37.3205 44.0165 37.4594 44.1786C37.6198 44.3656 37.8151 44.4772 38.0456 44.5138C38.1882 44.5364 38.6011 44.4357 41.7623 43.6074L45.3185 42.6757L45.4359 42.7406L45.5532 42.8054L48.4679 53.5999C50.7397 62.0135 51.4019 64.4218 51.47 64.5189C51.6039 64.7095 51.7644 64.842 51.9482 64.9137C52.3198 65.0587 52.2226 65.0785 55.6403 64.1627C59.1342 63.2265 59.0179 63.2669 59.2373 62.9143C59.4719 62.5374 59.7404 63.6604 56.5142 51.5285L53.6196 40.644L53.6888 40.5292L53.758 40.4143L57.3446 39.4322C61.3831 38.3262 61.0473 38.4471 61.2692 38.0192C61.4855 37.602 61.5033 37.7041 60.7021 34.765C59.9944 32.169 59.9876 32.1467 59.858 32.0136C59.6833 31.8343 59.4852 31.7366 59.2085 31.693L58.9794 31.657L47.7991 34.6449C38.7296 37.0687 36.584 37.6524 36.4348 37.7371ZM69.1064 28.992C68.9624 29.0808 68.8736 29.1854 68.7228 29.4439C68.6148 29.629 68.4933 29.8929 68.4527 30.0303C68.4121 30.1677 68.2273 31.5673 68.0421 33.1404C67.8569 34.7135 67.2653 39.7246 66.7274 44.2763C64.8191 60.4263 64.9336 59.391 64.9497 60.3527C64.9612 61.0423 65.113 61.3382 65.5003 61.4262C65.6396 61.4579 66.1709 61.3199 74.3905 59.1174C82.6102 56.915 83.1393 56.7688 83.2441 56.6718C83.3054 56.615 83.383 56.4991 83.4164 56.4142C83.5326 56.1194 83.4622 55.9838 82.3327 54.3251C80.246 51.2608 79.4992 50.1884 79.3578 50.0533C79.1609 49.8652 78.972 49.7723 78.6993 49.7294C78.4717 49.6936 78.4564 49.697 76.3317 50.2452C74.0735 50.828 74.0965 50.824 73.9872 50.6572C73.9604 50.6163 73.9645 50.2375 73.9972 49.7385C74.0278 49.2715 74.0977 48.1543 74.1525 47.2557C74.2688 45.3513 74.5108 41.9088 74.6168 40.6525C74.7204 39.4247 74.7677 39.2622 74.9866 39.3832C75.0864 39.4384 75.9946 40.7647 82.4548 50.2903C86.1843 55.7893 86.0396 55.5963 86.537 55.7351L86.7704 55.8003L90.4455 54.8155C94.0982 53.8368 94.1213 53.8301 94.2144 53.7181C94.4096 53.4833 94.3972 53.13 94.1801 52.7446C94.1267 52.6498 93.7851 52.1822 93.4209 51.7057C93.0567 51.229 92.5075 50.5008 92.2004 50.0874C91.8932 49.674 91.2464 48.8042 90.763 48.1545C90.2795 47.5049 89.6309 46.632 89.3216 46.2148C89.0123 45.7977 88.3608 44.9208 87.8739 44.2663C87.3869 43.6118 86.5901 42.5408 86.1032 41.8863C85.6162 41.2318 84.9647 40.3549 84.6554 39.9377C84.3461 39.5205 83.6946 38.6437 83.2076 37.9892C82.7207 37.3347 81.9239 36.2637 81.4369 35.6091C80.95 34.9546 80.2985 34.0778 79.9892 33.6606C79.6799 33.2434 79.0313 32.3705 78.5478 31.7209C78.0645 31.0712 77.3874 30.161 77.0433 29.698C75.974 28.2593 75.5532 27.7841 75.1718 27.5848C74.8235 27.4028 74.9357 27.3823 71.9778 28.1657C69.6579 28.7801 69.2683 28.8922 69.1064 28.992ZM91.7942 22.9038C91.4904 23.0758 91.323 23.3497 91.3166 23.685C91.3147 23.7867 92.5837 28.5786 95.0621 37.8289C98.4349 50.417 98.8218 51.8354 98.9231 51.983C99.0649 52.1895 99.3429 52.3509 99.5566 52.3509C99.7966 52.3508 105.992 50.6873 106.162 50.5772C106.352 50.4548 106.509 50.2434 106.533 50.0777C106.552 49.9536 106.207 48.6321 104.319 41.5871C102.892 36.2613 102.088 33.2029 102.097 33.1315C102.113 32.9921 102.224 32.9573 102.373 33.0455C102.434 33.0821 102.883 33.4805 103.369 33.931C103.855 34.3813 104.668 35.1337 105.174 35.6027C105.68 36.0718 106.652 36.9722 107.334 37.6037C108.015 38.2351 109.224 39.3574 110.021 40.0976C110.817 40.8379 112.184 42.1081 113.059 42.9204C113.934 43.7327 115.238 44.9456 115.957 45.6159C117.47 47.0256 117.736 47.2367 118.092 47.3105L118.341 47.3622L121.81 46.4325C124.295 45.7667 125.316 45.4795 125.407 45.4206C125.597 45.2981 125.754 45.0867 125.778 44.9211C125.797 44.7964 125.227 42.6372 122.014 30.6463C118.622 17.9838 118.218 16.5051 118.126 16.3893C117.93 16.1424 117.663 16.0468 117.24 16.0723C117.083 16.0818 116.096 16.3315 114.093 16.8681C110.76 17.7613 110.877 17.7187 110.633 18.1262C110.547 18.269 110.489 18.431 110.485 18.5376C110.48 18.6734 110.94 20.4355 112.509 26.2917C113.803 31.1202 114.535 33.9106 114.527 33.9819C114.511 34.1208 114.399 34.1563 114.254 34.0684C114.194 34.0321 113.078 33.0417 111.775 31.8675C110.472 30.6933 108.548 28.9631 107.501 28.0227C104.582 25.4017 100.803 21.9876 100.389 21.5975C100.117 21.3421 99.5951 21.0274 99.3693 20.9834C99.0171 20.9148 98.8477 20.9531 95.3639 21.8895C92.7234 22.5992 91.9378 22.8225 91.7942 22.9038ZM122.208 14.7756C122.008 14.9802 122.017 15.171 122.239 15.3937C122.314 15.4683 122.785 15.9301 123.287 16.42C123.789 16.9098 124.564 17.6698 125.009 18.1088C125.454 18.5478 126.144 19.2287 126.543 19.6218C126.942 20.015 127.64 20.7034 128.094 21.1516C128.548 21.5997 129.246 22.2881 129.645 22.6813C130.044 23.0744 130.742 23.7628 131.196 24.211C131.65 24.6592 132.348 25.3476 132.747 25.7407C133.146 26.1339 133.844 26.8223 134.298 27.2705C134.752 27.7187 135.438 28.3934 135.822 28.7699C136.207 29.1464 136.56 29.518 136.606 29.5958C136.666 29.6938 137.154 31.4629 138.199 35.3594C139.639 40.7284 139.712 40.9879 139.825 41.1209C139.969 41.2909 140.204 41.4013 140.422 41.4013C140.647 41.4012 147.043 39.6872 147.237 39.5752C147.426 39.4661 147.575 39.2529 147.615 39.0337C147.646 38.8622 147.58 38.6022 146.151 33.2672C144.914 28.649 144.656 27.6466 144.663 27.4855C144.667 27.3783 144.721 27.1087 144.782 26.8864C144.844 26.6641 144.979 26.1741 145.082 25.7976C145.381 24.7063 145.861 22.9582 146.155 21.8943C146.304 21.3544 146.564 20.4093 146.733 19.7941C146.902 19.1789 147.162 18.2338 147.311 17.6939C147.46 17.1539 147.72 16.2088 147.89 15.5936C148.059 14.9785 148.319 14.0333 148.468 13.4934C148.617 12.9534 148.837 12.1523 148.956 11.7132C149.076 11.2741 149.296 10.473 149.445 9.93296C149.594 9.39295 149.747 8.83303 149.785 8.68874C149.823 8.54445 149.906 8.288 149.969 8.11888C150.138 7.66277 150.055 7.43058 149.708 7.39361C149.544 7.37614 149.128 7.48053 145.664 8.40871C141.364 9.56105 141.523 9.50787 141.281 9.86769C141.154 10.0566 141.137 10.1236 140.875 11.4891C140.81 11.8324 140.684 12.4847 140.595 12.9386C140.418 13.8481 140.276 14.5891 140.063 15.7031C139.986 16.1075 139.871 16.7093 139.807 17.0404C139.743 17.3714 139.628 17.9732 139.551 18.3777C139.411 19.1118 139.263 19.881 139.085 20.8072C138.907 21.7273 138.794 21.7575 138.181 21.0493C137.782 20.5887 137.13 19.8405 136.314 18.9068C135.585 18.0735 134.974 17.3724 134.222 16.5069C133.919 16.1579 133.463 15.6332 133.208 15.341C132.953 15.0487 132.497 14.524 132.194 14.1748C130.951 12.7417 130.833 12.6335 130.462 12.5823C130.277 12.5568 130.07 12.6077 126.292 13.6095C122.409 14.6392 122.315 14.6661 122.208 14.7756ZM157.571 5.29115C157.457 5.36707 157.333 5.51894 157.187 5.7612C157.015 6.04675 156.954 6.20496 156.885 6.54395C156.837 6.77763 156.615 8.53087 156.391 10.4401C156.166 12.3492 155.542 17.6452 155.003 22.2089C154.463 26.7726 153.907 31.4882 153.766 32.688C153.506 34.896 153.323 36.9099 153.356 37.1819C153.395 37.4992 153.703 37.7479 154.055 37.7478C154.168 37.7477 156.963 37.0129 162.878 35.4281C171.474 33.1251 171.537 33.1078 171.681 32.9845C171.904 32.7937 171.943 32.6514 171.866 32.2997C171.805 32.0166 171.778 31.9672 171.416 31.469C170.991 30.8854 170.268 29.8418 168.895 27.8324C168.398 27.1049 167.927 26.4481 167.848 26.3727C167.769 26.2972 167.601 26.1867 167.475 26.1269C167.062 25.9316 167.085 25.9281 164.791 26.5426L162.749 27.0897L162.623 27.0198C162.553 26.9813 162.49 26.9247 162.481 26.894C162.473 26.8632 162.512 26.1717 162.567 25.3572C162.623 24.5427 162.722 23.0246 162.788 21.9835C163.05 17.8506 163.199 15.9582 163.275 15.8167C163.331 15.7123 163.44 15.6763 163.525 15.7342C163.584 15.7744 164.893 17.6951 171.402 27.2875C172.991 29.6295 174.348 31.607 174.418 31.6819C174.597 31.8745 175.014 32.0766 175.228 32.0749C175.352 32.0739 176.504 31.7757 179.019 31.0938L182.632 30.1142L182.759 29.9828C182.909 29.8281 182.996 29.5877 182.956 29.4382C182.94 29.3797 182.87 29.2581 182.799 29.168C182.729 29.0779 182.455 28.7102 182.189 28.351C181.217 27.033 180.053 25.466 177.578 22.1437C176.906 21.2422 176.104 20.1631 175.795 19.7459C175.485 19.3288 174.837 18.4559 174.353 17.8062C173.87 17.1566 173.221 16.2837 172.912 15.8666C172.603 15.4494 171.948 14.5686 171.458 13.9092C170.967 13.2498 170.17 12.1788 169.687 11.5292C169.204 10.8795 168.555 10.0066 168.246 9.58942C167.361 8.39558 165.939 6.48543 165.491 5.88732C165.266 5.58712 164.973 5.19077 164.842 5.00654C164.585 4.64745 164.017 4.06695 163.765 3.9053C163.68 3.85093 163.525 3.78777 163.42 3.76494C163.229 3.72349 163.223 3.72492 160.484 4.45121C158.065 5.09239 157.718 5.19235 157.571 5.29115ZM-16.777 52.2515C-16.9806 52.3886 -17.0847 52.526 -17.1419 52.7333C-17.234 53.0666 -17.1816 53.3192 -16.5283 55.6952C-15.9801 57.6888 -15.897 57.9608 -15.7865 58.1231C-15.6278 58.3565 -15.483 58.4597 -15.2404 58.5124L-15.0468 58.5545L-4.15779 55.6477C3.48095 53.6085 6.77636 52.7152 6.88258 52.655C7.08585 52.5398 7.29282 52.2144 7.34365 51.9303L7.38514 51.6981L6.72437 49.2321L6.06361 46.7661L5.91408 46.6175C5.73924 46.4437 5.52365 46.3639 5.21527 46.3587C4.89119 46.3532 -16.5491 52.0982 -16.777 52.2515ZM-68.4821 75.9829C-68.59 76.0308 -68.9098 76.164 -69.1928 76.2789C-69.7823 76.5182 -71.2541 77.3038 -71.6822 77.6076C-72.0473 77.8667 -72.1738 78.0497 -72.2627 78.448C-72.5628 79.7914 -72.416 81.2839 -71.8727 82.4111C-71.4855 83.2145 -71.3702 83.3516 -71.1353 83.2887C-71.0648 83.2698 -70.73 83.075 -70.3913 82.8559C-69.4183 82.2263 -68.3081 81.6566 -67.3447 81.2924C-66.71 81.0525 -65.1783 80.6211 -64.7127 80.5511C-63.1948 80.323 -62.3899 80.27 -61.2385 80.3223C-60.7605 80.344 -60.3215 80.3489 -60.263 80.3332C-60.0501 80.2761 -59.9811 79.9637 -59.9802 79.0522C-59.9801 78.9126 -60.0158 78.5976 -60.0596 78.3522C-60.1033 78.1068 -60.1395 77.8522 -60.14 77.7864C-60.1417 77.538 -60.6787 76.3238 -60.9923 75.8591C-61.2753 75.4398 -61.4993 75.2137 -61.6936 75.1509C-61.9218 75.0772 -62.7568 75.0309 -63.5541 75.0478C-64.1977 75.0615 -64.7888 75.1117 -65.6566 75.2267C-66.043 75.2779 -68.1855 75.8513 -68.4821 75.9829ZM-13.7111 63.6937C-13.9404 63.8484 -14.0233 63.9734 -14.0879 64.2622L-14.1478 64.5301L-11.9699 72.6581C-9.88606 80.435 -9.78606 80.7953 -9.65379 81.0008C-9.48785 81.2588 -9.21587 81.4256 -8.96136 81.4255C-8.71812 81.4254 12.8097 75.6584 13.0203 75.537C13.2197 75.4219 13.4253 75.0958 13.4755 74.8148L13.517 74.5827L12.8952 72.2119C12.4529 70.5254 12.2478 69.7993 12.1845 69.6959C12.0371 69.4547 11.8325 69.3158 11.5487 69.2641L11.2893 69.2168L4.10933 71.1196L-3.07069 73.0223L-3.18801 72.9574L-3.30537 72.8925L-3.92854 70.5668L-4.55171 68.2411L-4.48252 68.1262L-4.41337 68.0114L2.77656 66.0637C9.38381 64.2739 9.97497 64.108 10.0717 64.0174C10.2306 63.8685 10.3636 63.6111 10.4097 63.3629L10.4511 63.1404L9.82928 60.7697C9.3869 59.0831 9.18181 58.357 9.1186 58.2536C8.97112 58.0124 8.76652 57.8735 8.48272 57.8218L8.22337 57.7746L-2.67058 60.6847C-11.9504 63.1636 -13.5862 63.6095 -13.7111 63.6937ZM-66.2935 85.3794C-67.6752 85.9557 -67.9841 86.1036 -68.6653 86.5157C-70.7443 87.773 -72.4182 89.3143 -73.8281 91.2695C-74.2659 91.8765 -74.4829 92.276 -74.4726 92.456C-74.4645 92.5976 -74.3111 92.7384 -73.6238 93.235C-72.3685 94.142 -70.9 94.8778 -69.3521 95.3751C-68.6553 95.5991 -68.4713 95.6422 -68.3507 95.6099C-68.2166 95.5739 -68.1663 95.5106 -67.802 94.9186C-67.2169 93.9674 -66.6618 93.3943 -65.728 92.777C-65.2482 92.4599 -64.8477 92.2673 -64.162 92.0242C-62.727 91.5153 -61.145 91.2506 -59.9187 91.3141C-58.9144 91.3662 -58.2924 91.5408 -57.4125 92.018C-56.3183 92.6113 -55.7725 93.0426 -55.0028 93.9221C-54.7912 94.164 -54.4801 94.5193 -54.3116 94.7119C-54.0785 94.9781 -53.9405 95.0957 -53.7359 95.2026L-53.4668 95.3432L-53.1034 95.2458C-52.8135 95.1681 -52.7219 95.1274 -52.651 95.0451C-52.6022 94.9883 -51.7073 94.3367 -50.6624 93.5971C-49.6175 92.8575 -48.6858 92.1862 -48.5919 92.1054C-48.2097 91.7761 -48.0529 91.3898 -48.1507 91.0181C-48.3851 90.1277 -50.0627 88.304 -51.7215 87.1366C-52.865 86.3319 -53.4811 85.9994 -54.6942 85.5326C-56.2432 84.9364 -58.2049 84.5184 -59.8953 84.4244C-61.0969 84.3576 -62.198 84.4126 -63.2352 84.5911C-63.8432 84.6958 -65.967 85.2432 -66.2935 85.3794Z" fill="black" fill-opacity="0.05"/>
<path fill-rule="evenodd" clip-rule="evenodd" d="M158.292 65.0899C158.229 65.1259 157.999 65.2258 157.781 65.3118C156.213 65.9295 154.412 67.0281 153.085 68.1747C151.635 69.429 150.196 71.2239 149.414 72.7537C148.796 73.9643 148.427 74.8795 148.099 76.0241C147.677 77.4924 147.463 79.3989 147.556 80.8637C147.64 82.198 147.748 82.8648 148.08 84.1064C148.318 84.9981 148.399 85.2392 148.754 86.1048C149.225 87.2516 150.057 88.657 150.859 89.657C151.551 90.5209 152.638 91.5868 152.938 91.6957C153.04 91.7329 153.08 91.7278 153.168 91.6663C153.226 91.6253 153.509 91.2098 153.796 90.743C154.083 90.2762 154.404 89.7756 154.51 89.6305C155.246 88.6239 156.469 87.3369 157.54 86.4419C157.806 86.2195 158.056 85.9907 158.095 85.9335C158.201 85.7779 158.135 85.6212 157.806 85.2405C157.023 84.3351 156.388 83.1257 156.066 81.9241C155.897 81.295 155.839 80.9111 155.792 80.1369C155.684 78.351 156.219 76.4641 157.226 75.079C158.018 73.9898 158.816 73.2931 159.947 72.7032C160.673 72.3245 161.06 72.1706 161.747 71.9864C163.254 71.5827 164.878 71.6231 166.382 72.1017C166.908 72.2692 168.031 72.8547 168.546 73.2306C169.249 73.7436 169.874 74.4083 170.418 75.2213C170.867 75.8937 171.124 76.3939 171.364 77.0639C171.599 77.7216 171.647 77.9005 171.755 78.5237C171.932 79.5414 171.926 80.5268 171.737 81.521C171.651 81.9747 171.644 82.0838 171.698 82.1658C171.753 82.2496 171.925 82.2967 172.851 82.4802C174.193 82.7463 175.047 82.9768 175.942 83.3142C176.864 83.6622 177.085 83.7636 178.083 84.3009C179.21 84.9073 179.186 84.9129 179.472 83.9727C180.141 81.7721 180.281 79.7318 179.937 77.1749C179.881 76.7514 179.272 74.4596 179.141 74.1738C179.089 74.0613 178.977 73.7976 178.891 73.5879C178.24 71.9883 177.055 70.2309 175.692 68.8419C175.019 68.1566 174.04 67.3484 173.158 66.7509C170.973 65.2697 167.998 64.2834 165.222 64.1193C164.01 64.0476 162.932 64.0832 161.901 64.229C161.611 64.2701 161.289 64.3074 161.188 64.3119C160.966 64.3217 158.455 64.9964 158.292 65.0899ZM249.835 41.4907C249.75 41.5338 249.524 41.612 249.333 41.6644C248.293 41.9495 246.544 42.8262 245.456 43.6084C244.753 44.1137 244.597 44.2442 244.089 44.752C243.245 45.5966 242.504 46.6836 242.139 47.6134C241.552 49.1047 241.473 50.7424 241.911 52.3673C242.383 54.1193 243.191 55.413 244.494 56.5027C246.236 57.9594 248.679 58.82 252.265 59.2406C252.991 59.3257 254.454 59.4503 255.004 59.4739C256.05 59.5187 257.263 59.6994 257.93 59.9098C258.323 60.0338 258.961 60.3554 259.153 60.5259C259.661 60.9785 259.863 61.8002 259.683 62.6818C259.562 63.2769 259.093 63.8659 258.385 64.3116C257.739 64.7189 256.575 65.0892 255.693 65.1681C254.807 65.2475 253.7 65.1192 252.546 64.8035C252.074 64.6746 251.103 64.3092 250.676 64.1004C250.534 64.0308 250.184 63.8696 249.899 63.7423C248.628 63.1737 248.405 63.2079 247.774 64.068C247.419 64.5526 246.617 65.8084 245.604 67.4686C244.955 68.5333 244.884 68.7123 244.997 69.0112C245.119 69.3333 245.381 69.528 246.628 70.2232C247.597 70.7632 247.923 70.9207 248.601 71.1753C250.511 71.8922 252.846 72.3317 254.741 72.3313C256.16 72.331 257.144 72.1992 258.554 71.8203C260.77 71.2249 262.561 70.3521 264.217 69.0601C265.46 68.0897 266.651 66.6661 267.242 65.4426C268.163 63.5369 268.389 62.069 268.093 59.9203C268.03 59.4593 267.684 58.255 267.468 57.7407C267.311 57.3669 266.91 56.6338 266.68 56.3003C266.06 55.4 264.765 54.3435 263.737 53.8985C261.615 52.9799 259.63 52.6476 254.707 52.3861C253.036 52.2973 252.819 52.2761 252.077 52.1277C251.534 52.0193 251.363 51.9634 251.006 51.7787C250.69 51.6151 250.529 51.5008 250.377 51.3327C250.18 51.1139 250.169 51.091 250.041 50.6119C249.912 50.1338 249.91 50.107 249.971 49.8224C250.159 48.9434 251.13 48.2042 252.618 47.8076C253.319 47.6208 253.676 47.5868 254.433 47.6352C255.08 47.6765 255.324 47.7163 255.925 47.879C256.512 48.0379 257.163 48.2791 257.83 48.5853C258.795 49.0283 259.141 49.0568 259.541 48.7265C259.75 48.5547 259.965 48.2133 260.726 46.8431C261.028 46.3011 261.456 45.5401 261.678 45.152C262.507 43.7037 262.585 43.3361 262.167 42.8589C261.727 42.3574 260.731 41.8869 258.874 41.3031C257.588 40.8984 256.261 40.6965 254.865 40.6927C253.839 40.6898 252.888 40.7766 251.952 40.9583C251.17 41.1103 250.01 41.402 249.835 41.4907ZM181.274 60.5344C181.002 60.7019 180.823 60.9537 180.783 61.2284C180.761 61.3748 181.02 62.3674 183.233 70.6284C184.732 76.2207 185.751 79.9647 185.817 80.1183C185.878 80.2578 185.996 80.5438 186.08 80.7538C186.883 82.7514 188.256 84.5615 189.879 85.762C190.894 86.5125 191.682 86.9119 192.937 87.3122C194.22 87.7212 195.378 87.8843 196.811 87.8576C198.539 87.8255 199.834 87.6373 201.618 87.1592C202.53 86.915 203.433 86.6247 203.881 86.4322C203.957 86.3997 204.232 86.2854 204.493 86.1782C206.074 85.5288 207.753 84.472 208.718 83.5187C210.336 81.9195 211.225 80.3313 211.694 78.1994C212.008 76.773 212.054 75.6865 211.874 73.9904C211.79 73.1998 211.617 72.5149 209.253 63.6294L206.815 54.4668L206.644 54.2849C206.436 54.0649 206.121 53.949 205.79 53.9704C205.632 53.9805 204.602 54.2457 202.475 54.8239C199.605 55.6039 199.379 55.6708 199.244 55.7777C199.062 55.9222 198.907 56.165 198.847 56.3998L198.801 56.5814L201.195 65.603L203.588 74.6247L203.604 75.0409C203.622 75.5465 203.6 75.8985 203.518 76.4124C203.421 77.0139 203.226 77.4976 202.818 78.1523C202.496 78.6679 202.41 78.7737 202.064 79.0773C201.327 79.7235 200.663 80.0814 199.741 80.3285C198.607 80.6323 197.449 80.6172 196.507 80.2862C196.127 80.1525 195.504 79.7862 195.163 79.4961C194.521 78.9488 193.954 78.1198 193.58 77.1796C193.493 76.9624 192.563 73.5892 191.055 68.0241C189.26 61.4021 188.649 59.196 188.597 59.1464C188.466 59.0206 188.135 58.8721 187.907 58.8364L187.678 58.8006L184.523 59.6385C182.788 60.0993 181.326 60.5024 181.274 60.5344ZM266.435 37.7371C266.163 37.8912 265.983 38.1224 265.916 38.4049L265.857 38.6488L266.588 41.3322C267.315 43.9988 267.321 44.0165 267.459 44.1786C267.62 44.3656 267.815 44.4772 268.046 44.5138C268.188 44.5364 268.601 44.4357 271.762 43.6074L275.319 42.6757L275.436 42.7406L275.553 42.8054L278.468 53.5999C280.74 62.0135 281.402 64.4218 281.47 64.5189C281.604 64.7095 281.764 64.842 281.948 64.9137C282.32 65.0587 282.223 65.0785 285.64 64.1627C289.134 63.2265 289.018 63.2669 289.237 62.9143C289.472 62.5374 289.74 63.6604 286.514 51.5285L283.62 40.644L283.689 40.5292L283.758 40.4143L287.345 39.4322C291.383 38.3262 291.047 38.4471 291.269 38.0192C291.486 37.602 291.503 37.7041 290.702 34.765C289.994 32.169 289.988 32.1467 289.858 32.0136C289.683 31.8343 289.485 31.7366 289.208 31.693L288.979 31.657L277.799 34.6449C268.73 37.0687 266.584 37.6524 266.435 37.7371ZM299.106 28.992C298.962 29.0808 298.874 29.1854 298.723 29.4439C298.615 29.629 298.493 29.8929 298.453 30.0303C298.412 30.1677 298.227 31.5673 298.042 33.1404C297.857 34.7135 297.265 39.7246 296.727 44.2763C294.819 60.4263 294.934 59.391 294.95 60.3527C294.961 61.0423 295.113 61.3382 295.5 61.4262C295.64 61.4579 296.171 61.3199 304.391 59.1174C312.61 56.915 313.139 56.7688 313.244 56.6718C313.305 56.615 313.383 56.4991 313.416 56.4142C313.533 56.1194 313.462 55.9838 312.333 54.3251C310.246 51.2608 309.499 50.1884 309.358 50.0533C309.161 49.8652 308.972 49.7723 308.699 49.7294C308.472 49.6936 308.456 49.697 306.332 50.2452C304.073 50.828 304.096 50.824 303.987 50.6572C303.96 50.6163 303.965 50.2375 303.997 49.7385C304.028 49.2715 304.098 48.1543 304.153 47.2557C304.269 45.3513 304.511 41.9088 304.617 40.6525C304.72 39.4247 304.768 39.2622 304.987 39.3832C305.086 39.4384 305.995 40.7647 312.455 50.2903C316.184 55.7893 316.04 55.5963 316.537 55.7351L316.77 55.8003L320.446 54.8155C324.098 53.8368 324.121 53.8301 324.214 53.7181C324.41 53.4833 324.397 53.13 324.18 52.7446C324.127 52.6498 323.785 52.1822 323.421 51.7057C323.057 51.229 322.508 50.5008 322.2 50.0874C321.893 49.674 321.246 48.8042 320.763 48.1545C320.28 47.5049 319.631 46.632 319.322 46.2148C319.012 45.7977 318.361 44.9208 317.874 44.2663C317.387 43.6118 316.59 42.5408 316.103 41.8863C315.616 41.2318 314.965 40.3549 314.655 39.9377C314.346 39.5205 313.695 38.6437 313.208 37.9892C312.721 37.3347 311.924 36.2637 311.437 35.6091C310.95 34.9546 310.299 34.0778 309.989 33.6606C309.68 33.2434 309.031 32.3705 308.548 31.7209C308.064 31.0712 307.387 30.161 307.043 29.698C305.974 28.2593 305.553 27.7841 305.172 27.5848C304.824 27.4028 304.936 27.3823 301.978 28.1657C299.658 28.7801 299.268 28.8922 299.106 28.992ZM321.794 22.9038C321.49 23.0758 321.323 23.3497 321.317 23.685C321.315 23.7867 322.584 28.5786 325.062 37.8289C328.435 50.417 328.822 51.8354 328.923 51.983C329.065 52.1895 329.343 52.3509 329.557 52.3509C329.797 52.3508 335.992 50.6873 336.162 50.5772C336.352 50.4548 336.509 50.2434 336.533 50.0777C336.552 49.9536 336.207 48.6321 334.319 41.5871C332.892 36.2613 332.088 33.2029 332.097 33.1315C332.113 32.9921 332.224 32.9573 332.373 33.0455C332.434 33.0821 332.883 33.4805 333.369 33.931C333.855 34.3813 334.668 35.1337 335.174 35.6027C335.68 36.0718 336.652 36.9722 337.334 37.6037C338.015 38.2351 339.224 39.3574 340.021 40.0976C340.817 40.8379 342.184 42.1081 343.059 42.9204C343.934 43.7327 345.238 44.9456 345.957 45.6159C347.47 47.0256 347.736 47.2367 348.092 47.3105L348.341 47.3622L351.81 46.4325C354.295 45.7667 355.316 45.4795 355.407 45.4206C355.597 45.2981 355.754 45.0867 355.778 44.9211C355.797 44.7964 355.227 42.6372 352.014 30.6463C348.622 17.9838 348.218 16.5051 348.126 16.3893C347.93 16.1424 347.663 16.0468 347.24 16.0723C347.083 16.0818 346.096 16.3315 344.093 16.8681C340.76 17.7613 340.877 17.7187 340.633 18.1262C340.547 18.269 340.489 18.431 340.485 18.5376C340.48 18.6734 340.94 20.4355 342.509 26.2917C343.803 31.1202 344.535 33.9106 344.527 33.9819C344.511 34.1208 344.399 34.1563 344.254 34.0684C344.194 34.0321 343.078 33.0417 341.775 31.8675C340.472 30.6933 338.548 28.9631 337.501 28.0227C334.582 25.4017 330.803 21.9876 330.389 21.5975C330.117 21.3421 329.595 21.0274 329.369 20.9834C329.017 20.9148 328.848 20.9531 325.364 21.8895C322.723 22.5992 321.938 22.8225 321.794 22.9038ZM352.208 14.7756C352.008 14.9802 352.017 15.171 352.239 15.3937C352.314 15.4683 352.785 15.9301 353.287 16.42C353.789 16.9098 354.564 17.6698 355.009 18.1088C355.454 18.5478 356.144 19.2287 356.543 19.6218C356.942 20.015 357.64 20.7034 358.094 21.1516C358.548 21.5997 359.246 22.2881 359.645 22.6813C360.044 23.0744 360.742 23.7628 361.196 24.211C361.65 24.6592 362.348 25.3476 362.747 25.7407C363.146 26.1339 363.844 26.8223 364.298 27.2705C364.752 27.7187 365.438 28.3934 365.822 28.7699C366.207 29.1464 366.56 29.518 366.606 29.5958C366.666 29.6938 367.154 31.4629 368.199 35.3594C369.639 40.7284 369.712 40.9879 369.825 41.1209C369.969 41.2909 370.204 41.4013 370.422 41.4013C370.647 41.4012 377.043 39.6872 377.237 39.5752C377.426 39.4661 377.575 39.2529 377.615 39.0337C377.646 38.8622 377.58 38.6022 376.151 33.2672C374.914 28.649 374.656 27.6466 374.663 27.4855C374.667 27.3783 374.721 27.1087 374.782 26.8864C374.844 26.6641 374.979 26.1741 375.082 25.7976C375.381 24.7063 375.861 22.9582 376.155 21.8943C376.304 21.3544 376.564 20.4093 376.733 19.7941C376.902 19.1789 377.162 18.2338 377.311 17.6939C377.46 17.1539 377.72 16.2088 377.89 15.5936C378.059 14.9785 378.319 14.0333 378.468 13.4934C378.617 12.9534 378.837 12.1523 378.956 11.7132C379.076 11.2741 379.296 10.473 379.445 9.93296C379.594 9.39295 379.747 8.83303 379.785 8.68874C379.823 8.54445 379.906 8.288 379.969 8.11888C380.138 7.66277 380.055 7.43058 379.708 7.39361C379.544 7.37614 379.128 7.48053 375.664 8.40871C371.364 9.56105 371.523 9.50787 371.281 9.86769C371.154 10.0566 371.137 10.1236 370.875 11.4891C370.81 11.8324 370.684 12.4847 370.595 12.9386C370.418 13.8481 370.276 14.5891 370.063 15.7031C369.986 16.1075 369.871 16.7093 369.807 17.0404C369.743 17.3714 369.628 17.9732 369.551 18.3777C369.411 19.1118 369.263 19.881 369.085 20.8072C368.907 21.7273 368.794 21.7575 368.181 21.0493C367.782 20.5887 367.13 19.8405 366.314 18.9068C365.585 18.0735 364.974 17.3724 364.222 16.5069C363.919 16.1579 363.463 15.6332 363.208 15.341C362.953 15.0487 362.497 14.524 362.194 14.1748C360.951 12.7417 360.833 12.6335 360.462 12.5823C360.277 12.5568 360.07 12.6077 356.292 13.6095C352.409 14.6392 352.315 14.6661 352.208 14.7756ZM387.571 5.29115C387.457 5.36707 387.333 5.51894 387.187 5.7612C387.015 6.04675 386.954 6.20496 386.885 6.54395C386.837 6.77763 386.615 8.53087 386.391 10.4401C386.166 12.3492 385.542 17.6452 385.003 22.2089C384.463 26.7726 383.907 31.4882 383.766 32.688C383.506 34.896 383.323 36.9099 383.356 37.1819C383.395 37.4992 383.703 37.7479 384.055 37.7478C384.168 37.7477 386.963 37.0129 392.878 35.4281C401.474 33.1251 401.537 33.1078 401.681 32.9845C401.904 32.7937 401.943 32.6514 401.866 32.2997C401.805 32.0166 401.778 31.9672 401.416 31.469C400.991 30.8854 400.268 29.8418 398.895 27.8324C398.398 27.1049 397.927 26.4481 397.848 26.3727C397.769 26.2972 397.601 26.1867 397.475 26.1269C397.062 25.9316 397.085 25.9281 394.791 26.5426L392.749 27.0897L392.623 27.0198C392.553 26.9813 392.49 26.9247 392.481 26.894C392.473 26.8632 392.512 26.1717 392.567 25.3572C392.623 24.5427 392.722 23.0246 392.788 21.9835C393.05 17.8506 393.199 15.9582 393.275 15.8167C393.331 15.7123 393.44 15.6763 393.525 15.7342C393.584 15.7744 394.893 17.6951 401.402 27.2875C402.991 29.6295 404.348 31.607 404.418 31.6819C404.597 31.8745 405.014 32.0766 405.228 32.0749C405.352 32.0739 406.504 31.7757 409.019 31.0938L412.632 30.1142L412.759 29.9828C412.909 29.8281 412.996 29.5877 412.956 29.4382C412.94 29.3797 412.87 29.2581 412.799 29.168C412.729 29.0779 412.455 28.7102 412.189 28.351C411.217 27.033 410.053 25.466 407.578 22.1437C406.906 21.2422 406.104 20.1631 405.795 19.7459C405.485 19.3288 404.837 18.4559 404.353 17.8062C403.87 17.1566 403.221 16.2837 402.912 15.8666C402.603 15.4494 401.948 14.5686 401.458 13.9092C400.967 13.2498 400.17 12.1788 399.687 11.5292C399.204 10.8795 398.555 10.0066 398.246 9.58942C397.361 8.39558 395.939 6.48543 395.491 5.88732C395.266 5.58712 394.973 5.19077 394.842 5.00654C394.585 4.64745 394.017 4.06695 393.765 3.9053C393.68 3.85093 393.525 3.78777 393.42 3.76494C393.229 3.72349 393.223 3.72492 390.484 4.45121C388.065 5.09239 387.718 5.19235 387.571 5.29115ZM213.223 52.2515C213.019 52.3886 212.915 52.526 212.858 52.7333C212.766 53.0666 212.818 53.3192 213.472 55.6952C214.02 57.6888 214.103 57.9608 214.214 58.1231C214.372 58.3565 214.517 58.4597 214.76 58.5124L214.953 58.5545L225.842 55.6477C233.481 53.6085 236.776 52.7152 236.883 52.655C237.086 52.5398 237.293 52.2144 237.344 51.9303L237.385 51.6981L236.724 49.2321L236.064 46.7661L235.914 46.6175C235.739 46.4437 235.524 46.3639 235.215 46.3587C234.891 46.3532 213.451 52.0982 213.223 52.2515ZM161.518 75.9829C161.41 76.0308 161.09 76.164 160.807 76.2789C160.218 76.5182 158.746 77.3038 158.318 77.6076C157.953 77.8667 157.826 78.0497 157.737 78.448C157.437 79.7914 157.584 81.2839 158.127 82.4111C158.515 83.2145 158.63 83.3516 158.865 83.2887C158.935 83.2698 159.27 83.075 159.609 82.8559C160.582 82.2263 161.692 81.6566 162.655 81.2924C163.29 81.0525 164.822 80.6211 165.287 80.5511C166.805 80.323 167.61 80.27 168.762 80.3223C169.24 80.344 169.678 80.3489 169.737 80.3332C169.95 80.2761 170.019 79.9637 170.02 79.0522C170.02 78.9126 169.984 78.5976 169.94 78.3522C169.897 78.1068 169.86 77.8522 169.86 77.7864C169.858 77.538 169.321 76.3238 169.008 75.8591C168.725 75.4398 168.501 75.2137 168.306 75.1509C168.078 75.0772 167.243 75.0309 166.446 75.0478C165.802 75.0615 165.211 75.1117 164.343 75.2267C163.957 75.2779 161.815 75.8513 161.518 75.9829ZM216.289 63.6937C216.06 63.8484 215.977 63.9734 215.912 64.2622L215.852 64.5301L218.03 72.6581C220.114 80.435 220.214 80.7953 220.346 81.0008C220.512 81.2588 220.784 81.4256 221.039 81.4255C221.282 81.4254 242.81 75.6584 243.02 75.537C243.22 75.4219 243.425 75.0958 243.476 74.8148L243.517 74.5827L242.895 72.2119C242.453 70.5254 242.248 69.7993 242.185 69.6959C242.037 69.4547 241.832 69.3158 241.549 69.2641L241.289 69.2168L234.109 71.1196L226.929 73.0223L226.812 72.9574L226.695 72.8925L226.071 70.5668L225.448 68.2411L225.517 68.1262L225.587 68.0114L232.777 66.0637C239.384 64.2739 239.975 64.108 240.072 64.0174C240.231 63.8685 240.364 63.6111 240.41 63.3629L240.451 63.1404L239.829 60.7697C239.387 59.0831 239.182 58.357 239.119 58.2536C238.971 58.0124 238.767 57.8735 238.483 57.8218L238.223 57.7746L227.329 60.6847C218.05 63.1636 216.414 63.6095 216.289 63.6937ZM163.706 85.3794C162.325 85.9557 162.016 86.1036 161.335 86.5157C159.256 87.773 157.582 89.3143 156.172 91.2695C155.734 91.8765 155.517 92.276 155.527 92.456C155.536 92.5976 155.689 92.7384 156.376 93.235C157.631 94.142 159.1 94.8778 160.648 95.3751C161.345 95.5991 161.529 95.6422 161.649 95.6099C161.783 95.5739 161.834 95.5106 162.198 94.9186C162.783 93.9674 163.338 93.3943 164.272 92.777C164.752 92.4599 165.152 92.2673 165.838 92.0242C167.273 91.5153 168.855 91.2506 170.081 91.3141C171.086 91.3662 171.708 91.5408 172.587 92.018C173.682 92.6113 174.228 93.0426 174.997 93.9221C175.209 94.164 175.52 94.5193 175.688 94.7119C175.922 94.9781 176.059 95.0957 176.264 95.2026L176.533 95.3432L176.897 95.2458C177.187 95.1681 177.278 95.1274 177.349 95.0451C177.398 94.9883 178.293 94.3367 179.338 93.5971C180.382 92.8575 181.314 92.1862 181.408 92.1054C181.79 91.7761 181.947 91.3898 181.849 91.0181C181.615 90.1277 179.937 88.304 178.279 87.1366C177.135 86.3319 176.519 85.9994 175.306 85.5326C173.757 84.9364 171.795 84.5184 170.105 84.4244C168.903 84.3576 167.802 84.4126 166.765 84.5911C166.157 84.6958 164.033 85.2432 163.706 85.3794Z" fill="black" fill-opacity="0.05"/>
<path fill-rule="evenodd" clip-rule="evenodd" d="M-71.7081 178.09C-71.7709 178.126 -72.0009 178.226 -72.2192 178.312C-73.7868 178.93 -75.5885 180.028 -76.9145 181.175C-78.3651 182.429 -79.8042 184.224 -80.5859 185.754C-81.2045 186.964 -81.5726 187.88 -81.9013 189.024C-82.3229 190.492 -82.5368 192.399 -82.4444 193.864C-82.3601 195.198 -82.2524 195.865 -81.9204 197.106C-81.682 197.998 -81.6006 198.239 -81.2455 199.105C-80.7752 200.252 -79.9427 201.657 -79.1413 202.657C-78.449 203.521 -77.3621 204.587 -77.0623 204.696C-76.9599 204.733 -76.9195 204.728 -76.8321 204.666C-76.7738 204.625 -76.4913 204.21 -76.2042 203.743C-75.9171 203.276 -75.5956 202.776 -75.4896 202.631C-74.7543 201.624 -73.5315 200.337 -72.4601 199.442C-72.1938 199.219 -71.9441 198.991 -71.9051 198.933C-71.7992 198.778 -71.8645 198.621 -72.194 198.24C-72.9775 197.335 -73.612 196.126 -73.9339 194.924C-74.1025 194.295 -74.1614 193.911 -74.2082 193.137C-74.3161 191.351 -73.7811 189.464 -72.7739 188.079C-71.982 186.99 -71.1841 186.293 -70.0529 185.703C-69.3269 185.325 -68.9404 185.171 -68.2528 184.986C-66.7462 184.583 -65.1216 184.623 -63.6181 185.102C-63.0917 185.269 -61.9695 185.855 -61.4542 186.231C-60.7511 186.744 -60.1261 187.408 -59.5825 188.221C-59.1329 188.894 -58.876 189.394 -58.6362 190.064C-58.4007 190.722 -58.3528 190.901 -58.2447 191.524C-58.0683 192.541 -58.0744 193.527 -58.2632 194.521C-58.3495 194.975 -58.3561 195.084 -58.3023 195.166C-58.2474 195.25 -58.0746 195.297 -57.1492 195.48C-55.8071 195.746 -54.953 195.977 -54.0583 196.314C-53.1355 196.662 -52.9155 196.764 -51.917 197.301C-50.79 197.907 -50.8136 197.913 -50.5279 196.973C-49.8589 194.772 -49.7193 192.732 -50.0625 190.175C-50.1193 189.751 -50.7278 187.46 -50.8592 187.174C-50.911 187.061 -51.0232 186.798 -51.1086 186.588C-51.7602 184.988 -52.9448 183.231 -54.308 181.842C-54.9805 181.157 -55.9598 180.348 -56.8416 179.751C-59.0273 178.27 -62.0016 177.283 -64.7777 177.119C-65.9896 177.048 -67.068 177.083 -68.0988 177.229C-68.3895 177.27 -68.7105 177.307 -68.8123 177.312C-69.0338 177.322 -71.5449 177.996 -71.7081 178.09ZM19.8347 154.491C19.7497 154.534 19.5238 154.612 19.3327 154.664C18.2925 154.95 16.5442 155.826 15.4558 156.608C14.7527 157.114 14.5967 157.244 14.0894 157.752C13.2455 158.597 12.5044 159.684 12.1385 160.613C11.5517 162.105 11.4732 163.742 11.9108 165.367C12.3826 167.119 13.1908 168.413 14.4942 169.503C16.2364 170.959 18.6791 171.82 22.2648 172.241C22.991 172.326 24.454 172.45 25.0044 172.474C26.0496 172.519 27.2628 172.699 27.9299 172.91C28.3229 173.034 28.9614 173.355 29.1527 173.526C29.6608 173.979 29.8629 174.8 29.6832 175.682C29.5618 176.277 29.0928 176.866 28.3852 177.312C27.7387 177.719 26.5749 178.089 25.693 178.168C24.807 178.247 23.6997 178.119 22.5457 177.804C22.0745 177.675 21.1028 177.309 20.6758 177.1C20.5335 177.031 20.1841 176.87 19.8992 176.742C18.6279 176.174 18.4051 176.208 17.7741 177.068C17.4185 177.553 16.6173 178.808 15.6042 180.469C14.9546 181.533 14.8841 181.712 14.9969 182.011C15.1186 182.333 15.3805 182.528 16.6278 183.223C17.5966 183.763 17.9231 183.921 18.6011 184.175C20.5108 184.892 22.8455 185.332 24.7411 185.331C26.1601 185.331 27.1438 185.199 28.554 184.82C30.7702 184.225 32.5608 183.352 34.2167 182.06C35.4602 181.09 36.6509 179.666 37.2421 178.443C38.1631 176.537 38.3893 175.069 38.0932 172.92C38.0297 172.459 37.6843 171.255 37.4682 170.741C37.3111 170.367 36.91 169.634 36.6802 169.3C36.0598 168.4 34.7651 167.344 33.7369 166.898C31.6151 165.98 29.6304 165.648 24.707 165.386C23.036 165.297 22.8193 165.276 22.077 165.128C21.5343 165.019 21.3627 164.963 21.0059 164.779C20.6899 164.615 20.5287 164.501 20.377 164.333C20.1796 164.114 20.1689 164.091 20.0405 163.612C19.9124 163.134 19.9101 163.107 19.9709 162.822C20.1587 161.943 21.1301 161.204 22.6183 160.808C23.3194 160.621 23.6765 160.587 24.4333 160.635C25.0795 160.676 25.3236 160.716 25.9247 160.879C26.5123 161.038 27.1626 161.279 27.8297 161.585C28.7947 162.028 29.1406 162.057 29.5414 161.726C29.7498 161.555 29.9646 161.213 30.7263 159.843C31.0276 159.301 31.4559 158.54 31.6781 158.152C32.507 156.704 32.5853 156.336 32.1667 155.859C31.7268 155.357 30.7311 154.887 28.8744 154.303C27.5877 153.898 26.2613 153.696 24.8653 153.693C23.8392 153.69 22.8877 153.777 21.9522 153.958C21.1697 154.11 20.0097 154.402 19.8347 154.491ZM-48.7258 173.534C-48.9983 173.702 -49.1767 173.954 -49.2175 174.228C-49.2392 174.375 -48.9804 175.367 -46.7669 183.628C-45.2685 189.221 -44.2489 192.965 -44.1826 193.118C-44.1224 193.258 -44.0041 193.544 -43.9197 193.754C-43.1172 195.751 -41.7441 197.562 -40.1207 198.762C-39.1058 199.512 -38.3179 199.912 -37.0629 200.312C-35.7805 200.721 -34.622 200.884 -33.1889 200.858C-31.4611 200.825 -30.1662 200.637 -28.3817 200.159C-27.4703 199.915 -26.5667 199.625 -26.1188 199.432C-26.0431 199.4 -25.7676 199.285 -25.5067 199.178C-23.9256 198.529 -22.2468 197.472 -21.2821 196.519C-19.6638 194.919 -18.7753 193.331 -18.306 191.199C-17.9921 189.773 -17.9456 188.686 -18.126 186.99C-18.2101 186.2 -18.3833 185.515 -20.7472 176.629L-23.1847 167.467L-23.3563 167.285C-23.5638 167.065 -23.8786 166.949 -24.2103 166.97C-24.3678 166.981 -25.3978 167.246 -27.525 167.824C-30.395 168.604 -30.6214 168.671 -30.756 168.778C-30.9381 168.922 -31.0929 169.165 -31.1527 169.4L-31.1989 169.581L-28.8053 178.603L-26.4117 187.625L-26.3963 188.041C-26.3776 188.546 -26.3997 188.898 -26.4823 189.412C-26.579 190.014 -26.7735 190.498 -27.1821 191.152C-27.5039 191.668 -27.59 191.774 -27.9361 192.077C-28.6727 192.723 -29.3372 193.081 -30.2591 193.329C-31.3925 193.632 -32.551 193.617 -33.4928 193.286C-33.8732 193.153 -34.4963 192.786 -34.8368 192.496C-35.4792 191.949 -36.0457 191.12 -36.4201 190.18C-36.5066 189.962 -37.437 186.589 -38.9454 181.024C-40.7403 174.402 -41.351 172.196 -41.4029 172.146C-41.5345 172.021 -41.8648 171.872 -42.0929 171.836L-42.3219 171.801L-45.4766 172.638C-47.2117 173.099 -48.6739 173.502 -48.7258 173.534ZM36.4348 150.737C36.1631 150.891 35.9834 151.122 35.9158 151.405L35.8574 151.649L36.5885 154.332C37.3151 156.999 37.3205 157.017 37.4594 157.179C37.6198 157.366 37.8151 157.477 38.0456 157.514C38.1882 157.536 38.6011 157.436 41.7623 156.607L45.3185 155.676L45.4359 155.741L45.5532 155.805L48.4679 166.6C50.7397 175.013 51.4019 177.422 51.47 177.519C51.6039 177.709 51.7644 177.842 51.9482 177.914C52.3198 178.059 52.2226 178.078 55.6403 177.163C59.1342 176.227 59.0179 176.267 59.2373 175.914C59.4719 175.537 59.7404 176.66 56.5142 164.528L53.6196 153.644L53.6888 153.529L53.758 153.414L57.3446 152.432C61.3831 151.326 61.0473 151.447 61.2692 151.019C61.4855 150.602 61.5033 150.704 60.7021 147.765C59.9944 145.169 59.9876 145.147 59.858 145.014C59.6833 144.834 59.4852 144.737 59.2085 144.693L58.9794 144.657L47.7991 147.645C38.7296 150.069 36.584 150.652 36.4348 150.737ZM69.1064 141.992C68.9624 142.081 68.8736 142.185 68.7228 142.444C68.6148 142.629 68.4933 142.893 68.4527 143.03C68.4121 143.168 68.2273 144.567 68.0421 146.14C67.8569 147.713 67.2653 152.725 66.7274 157.276C64.8191 173.426 64.9336 172.391 64.9497 173.353C64.9612 174.042 65.113 174.338 65.5003 174.426C65.6396 174.458 66.1709 174.32 74.3905 172.117C82.6102 169.915 83.1393 169.769 83.2441 169.672C83.3054 169.615 83.383 169.499 83.4164 169.414C83.5326 169.119 83.4622 168.984 82.3327 167.325C80.246 164.261 79.4992 163.188 79.3578 163.053C79.1609 162.865 78.972 162.772 78.6993 162.729C78.4717 162.694 78.4564 162.697 76.3317 163.245C74.0735 163.828 74.0965 163.824 73.9872 163.657C73.9604 163.616 73.9645 163.237 73.9972 162.739C74.0278 162.272 74.0977 161.154 74.1525 160.256C74.2688 158.351 74.5108 154.909 74.6168 153.653C74.7204 152.425 74.7677 152.262 74.9866 152.383C75.0864 152.438 75.9946 153.765 82.4548 163.29C86.1843 168.789 86.0396 168.596 86.537 168.735L86.7704 168.8L90.4455 167.816C94.0982 166.837 94.1213 166.83 94.2144 166.718C94.4096 166.483 94.3972 166.13 94.1801 165.745C94.1267 165.65 93.7851 165.182 93.4209 164.706C93.0567 164.229 92.5075 163.501 92.2004 163.087C91.8932 162.674 91.2464 161.804 90.763 161.155C90.2795 160.505 89.6309 159.632 89.3216 159.215C89.0123 158.798 88.3608 157.921 87.8739 157.266C87.3869 156.612 86.5901 155.541 86.1032 154.886C85.6162 154.232 84.9647 153.355 84.6554 152.938C84.3461 152.521 83.6946 151.644 83.2076 150.989C82.7207 150.335 81.9239 149.264 81.4369 148.609C80.95 147.955 80.2985 147.078 79.9892 146.661C79.6799 146.243 79.0313 145.371 78.5478 144.721C78.0645 144.071 77.3874 143.161 77.0433 142.698C75.974 141.259 75.5532 140.784 75.1718 140.585C74.8235 140.403 74.9357 140.382 71.9778 141.166C69.6579 141.78 69.2683 141.892 69.1064 141.992ZM91.7942 135.904C91.4904 136.076 91.323 136.35 91.3166 136.685C91.3147 136.787 92.5837 141.579 95.0621 150.829C98.4349 163.417 98.8218 164.835 98.9231 164.983C99.0649 165.189 99.3429 165.351 99.5566 165.351C99.7966 165.351 105.992 163.687 106.162 163.577C106.352 163.455 106.509 163.243 106.533 163.078C106.552 162.954 106.207 161.632 104.319 154.587C102.892 149.261 102.088 146.203 102.097 146.132C102.113 145.992 102.224 145.957 102.373 146.046C102.434 146.082 102.883 146.481 103.369 146.931C103.855 147.381 104.668 148.134 105.174 148.603C105.68 149.072 106.652 149.972 107.334 150.604C108.015 151.235 109.224 152.357 110.021 153.098C110.817 153.838 112.184 155.108 113.059 155.92C113.934 156.733 115.238 157.946 115.957 158.616C117.47 160.026 117.736 160.237 118.092 160.311L118.341 160.362L121.81 159.433C124.295 158.767 125.316 158.479 125.407 158.421C125.597 158.298 125.754 158.087 125.778 157.921C125.797 157.796 125.227 155.637 122.014 143.646C118.622 130.984 118.218 129.505 118.126 129.389C117.93 129.142 117.663 129.047 117.24 129.072C117.083 129.082 116.096 129.331 114.093 129.868C110.76 130.761 110.877 130.719 110.633 131.126C110.547 131.269 110.489 131.431 110.485 131.538C110.48 131.673 110.94 133.435 112.509 139.292C113.803 144.12 114.535 146.911 114.527 146.982C114.511 147.121 114.399 147.156 114.254 147.068C114.194 147.032 113.078 146.042 111.775 144.868C110.472 143.693 108.548 141.963 107.501 141.023C104.582 138.402 100.803 134.988 100.389 134.597C100.117 134.342 99.5951 134.027 99.3693 133.983C99.0171 133.915 98.8477 133.953 95.3639 134.889C92.7234 135.599 91.9378 135.822 91.7942 135.904ZM122.208 127.776C122.008 127.98 122.017 128.171 122.239 128.394C122.314 128.468 122.785 128.93 123.287 129.42C123.789 129.91 124.564 130.67 125.009 131.109C125.454 131.548 126.144 132.229 126.543 132.622C126.942 133.015 127.64 133.703 128.094 134.152C128.548 134.6 129.246 135.288 129.645 135.681C130.044 136.074 130.742 136.763 131.196 137.211C131.65 137.659 132.348 138.348 132.747 138.741C133.146 139.134 133.844 139.822 134.298 140.27C134.752 140.719 135.438 141.393 135.822 141.77C136.207 142.146 136.56 142.518 136.606 142.596C136.666 142.694 137.154 144.463 138.199 148.359C139.639 153.728 139.712 153.988 139.825 154.121C139.969 154.291 140.204 154.401 140.422 154.401C140.647 154.401 147.043 152.687 147.237 152.575C147.426 152.466 147.575 152.253 147.615 152.034C147.646 151.862 147.58 151.602 146.151 146.267C144.914 141.649 144.656 140.647 144.663 140.485C144.667 140.378 144.721 140.109 144.782 139.886C144.844 139.664 144.979 139.174 145.082 138.798C145.381 137.706 145.861 135.958 146.155 134.894C146.304 134.354 146.564 133.409 146.733 132.794C146.902 132.179 147.162 131.234 147.311 130.694C147.46 130.154 147.72 129.209 147.89 128.594C148.059 127.978 148.319 127.033 148.468 126.493C148.617 125.953 148.837 125.152 148.956 124.713C149.076 124.274 149.296 123.473 149.445 122.933C149.594 122.393 149.747 121.833 149.785 121.689C149.823 121.544 149.906 121.288 149.969 121.119C150.138 120.663 150.055 120.431 149.708 120.394C149.544 120.376 149.128 120.481 145.664 121.409C141.364 122.561 141.523 122.508 141.281 122.868C141.154 123.057 141.137 123.124 140.875 124.489C140.81 124.832 140.684 125.485 140.595 125.939C140.418 126.848 140.276 127.589 140.063 128.703C139.986 129.108 139.871 129.709 139.807 130.04C139.743 130.371 139.628 130.973 139.551 131.378C139.411 132.112 139.263 132.881 139.085 133.807C138.907 134.727 138.794 134.758 138.181 134.049C137.782 133.589 137.13 132.84 136.314 131.907C135.585 131.073 134.974 130.372 134.222 129.507C133.919 129.158 133.463 128.633 133.208 128.341C132.953 128.049 132.497 127.524 132.194 127.175C130.951 125.742 130.833 125.633 130.462 125.582C130.277 125.557 130.07 125.608 126.292 126.609C122.409 127.639 122.315 127.666 122.208 127.776ZM157.571 118.291C157.457 118.367 157.333 118.519 157.187 118.761C157.015 119.047 156.954 119.205 156.885 119.544C156.837 119.778 156.615 121.531 156.391 123.44C156.166 125.349 155.542 130.645 155.003 135.209C154.463 139.773 153.907 144.488 153.766 145.688C153.506 147.896 153.323 149.91 153.356 150.182C153.395 150.499 153.703 150.748 154.055 150.748C154.168 150.748 156.963 150.013 162.878 148.428C171.474 146.125 171.537 146.108 171.681 145.985C171.904 145.794 171.943 145.651 171.866 145.3C171.805 145.017 171.778 144.967 171.416 144.469C170.991 143.885 170.268 142.842 168.895 140.832C168.398 140.105 167.927 139.448 167.848 139.373C167.769 139.297 167.601 139.187 167.475 139.127C167.062 138.932 167.085 138.928 164.791 139.543L162.749 140.09L162.623 140.02C162.553 139.981 162.49 139.925 162.481 139.894C162.473 139.863 162.512 139.172 162.567 138.357C162.623 137.543 162.722 136.025 162.788 134.984C163.05 130.851 163.199 128.958 163.275 128.817C163.331 128.712 163.44 128.676 163.525 128.734C163.584 128.774 164.893 130.695 171.402 140.287C172.991 142.629 174.348 144.607 174.418 144.682C174.597 144.875 175.014 145.077 175.228 145.075C175.352 145.074 176.504 144.776 179.019 144.094L182.632 143.114L182.759 142.983C182.909 142.828 182.996 142.588 182.956 142.438C182.94 142.38 182.87 142.258 182.799 142.168C182.729 142.078 182.455 141.71 182.189 141.351C181.217 140.033 180.053 138.466 177.578 135.144C176.906 134.242 176.104 133.163 175.795 132.746C175.485 132.329 174.837 131.456 174.353 130.806C173.87 130.157 173.221 129.284 172.912 128.867C172.603 128.449 171.948 127.569 171.458 126.909C170.967 126.25 170.17 125.179 169.687 124.529C169.204 123.879 168.555 123.007 168.246 122.589C167.361 121.396 165.939 119.485 165.491 118.887C165.266 118.587 164.973 118.191 164.842 118.007C164.585 117.647 164.017 117.067 163.765 116.905C163.68 116.851 163.525 116.788 163.42 116.765C163.229 116.723 163.223 116.725 160.484 117.451C158.065 118.092 157.718 118.192 157.571 118.291ZM-16.777 165.252C-16.9806 165.389 -17.0847 165.526 -17.1419 165.733C-17.234 166.067 -17.1816 166.319 -16.5283 168.695C-15.9801 170.689 -15.897 170.961 -15.7865 171.123C-15.6278 171.356 -15.483 171.46 -15.2404 171.512L-15.0468 171.554L-4.15779 168.648C3.48095 166.609 6.77636 165.715 6.88258 165.655C7.08585 165.54 7.29282 165.214 7.34365 164.93L7.38514 164.698L6.72437 162.232L6.06361 159.766L5.91408 159.617C5.73924 159.444 5.52365 159.364 5.21527 159.359C4.89119 159.353 -16.5491 165.098 -16.777 165.252ZM-68.4821 188.983C-68.59 189.031 -68.9098 189.164 -69.1928 189.279C-69.7823 189.518 -71.2541 190.304 -71.6822 190.608C-72.0473 190.867 -72.1738 191.05 -72.2627 191.448C-72.5628 192.791 -72.416 194.284 -71.8727 195.411C-71.4855 196.214 -71.3702 196.352 -71.1353 196.289C-71.0648 196.27 -70.73 196.075 -70.3913 195.856C-69.4183 195.226 -68.3081 194.657 -67.3447 194.292C-66.71 194.052 -65.1783 193.621 -64.7127 193.551C-63.1948 193.323 -62.3899 193.27 -61.2385 193.322C-60.7605 193.344 -60.3215 193.349 -60.263 193.333C-60.0501 193.276 -59.9811 192.964 -59.9802 192.052C-59.9801 191.913 -60.0158 191.598 -60.0596 191.352C-60.1033 191.107 -60.1395 190.852 -60.14 190.786C-60.1417 190.538 -60.6787 189.324 -60.9923 188.859C-61.2753 188.44 -61.4993 188.214 -61.6936 188.151C-61.9218 188.077 -62.7568 188.031 -63.5541 188.048C-64.1977 188.061 -64.7888 188.112 -65.6566 188.227C-66.043 188.278 -68.1855 188.851 -68.4821 188.983ZM-13.7111 176.694C-13.9404 176.848 -14.0233 176.973 -14.0879 177.262L-14.1478 177.53L-11.9699 185.658C-9.88606 193.435 -9.78606 193.795 -9.65379 194.001C-9.48785 194.259 -9.21587 194.426 -8.96136 194.426C-8.71812 194.425 12.8097 188.658 13.0203 188.537C13.2197 188.422 13.4253 188.096 13.4755 187.815L13.517 187.583L12.8952 185.212C12.4529 183.525 12.2478 182.799 12.1845 182.696C12.0371 182.455 11.8325 182.316 11.5487 182.264L11.2893 182.217L4.10933 184.12L-3.07069 186.022L-3.18801 185.957L-3.30537 185.893L-3.92854 183.567L-4.55171 181.241L-4.48252 181.126L-4.41337 181.011L2.77656 179.064C9.38381 177.274 9.97497 177.108 10.0717 177.017C10.2306 176.869 10.3636 176.611 10.4097 176.363L10.4511 176.14L9.82928 173.77C9.3869 172.083 9.18181 171.357 9.1186 171.254C8.97112 171.012 8.76652 170.873 8.48272 170.822L8.22337 170.775L-2.67058 173.685C-11.9504 176.164 -13.5862 176.61 -13.7111 176.694ZM-66.2935 198.379C-67.6752 198.956 -67.9841 199.104 -68.6653 199.516C-70.7443 200.773 -72.4182 202.314 -73.8281 204.269C-74.2659 204.877 -74.4829 205.276 -74.4726 205.456C-74.4645 205.598 -74.3111 205.738 -73.6238 206.235C-72.3685 207.142 -70.9 207.878 -69.3521 208.375C-68.6553 208.599 -68.4713 208.642 -68.3507 208.61C-68.2166 208.574 -68.1663 208.511 -67.802 207.919C-67.2169 206.967 -66.6618 206.394 -65.728 205.777C-65.2482 205.46 -64.8477 205.267 -64.162 205.024C-62.727 204.515 -61.145 204.251 -59.9187 204.314C-58.9144 204.366 -58.2924 204.541 -57.4125 205.018C-56.3183 205.611 -55.7725 206.043 -55.0028 206.922C-54.7912 207.164 -54.4801 207.519 -54.3116 207.712C-54.0785 207.978 -53.9405 208.096 -53.7359 208.203L-53.4668 208.343L-53.1034 208.246C-52.8135 208.168 -52.7219 208.127 -52.651 208.045C-52.6022 207.988 -51.7073 207.337 -50.6624 206.597C-49.6175 205.858 -48.6858 205.186 -48.5919 205.105C-48.2097 204.776 -48.0529 204.39 -48.1507 204.018C-48.3851 203.128 -50.0627 201.304 -51.7215 200.137C-52.865 199.332 -53.4811 198.999 -54.6942 198.533C-56.2432 197.936 -58.2049 197.518 -59.8953 197.424C-61.0969 197.358 -62.198 197.413 -63.2352 197.591C-63.8432 197.696 -65.967 198.243 -66.2935 198.379Z" fill="black" fill-opacity="0.05"/>
<path fill-rule="evenodd" clip-rule="evenodd" d="M158.292 178.09C158.229 178.126 157.999 178.226 157.781 178.312C156.213 178.93 154.412 180.028 153.085 181.175C151.635 182.429 150.196 184.224 149.414 185.754C148.796 186.964 148.427 187.88 148.099 189.024C147.677 190.492 147.463 192.399 147.556 193.864C147.64 195.198 147.748 195.865 148.08 197.106C148.318 197.998 148.399 198.239 148.754 199.105C149.225 200.252 150.057 201.657 150.859 202.657C151.551 203.521 152.638 204.587 152.938 204.696C153.04 204.733 153.08 204.728 153.168 204.666C153.226 204.625 153.509 204.21 153.796 203.743C154.083 203.276 154.404 202.776 154.51 202.631C155.246 201.624 156.469 200.337 157.54 199.442C157.806 199.219 158.056 198.991 158.095 198.933C158.201 198.778 158.135 198.621 157.806 198.24C157.023 197.335 156.388 196.126 156.066 194.924C155.897 194.295 155.839 193.911 155.792 193.137C155.684 191.351 156.219 189.464 157.226 188.079C158.018 186.99 158.816 186.293 159.947 185.703C160.673 185.325 161.06 185.171 161.747 184.986C163.254 184.583 164.878 184.623 166.382 185.102C166.908 185.269 168.031 185.855 168.546 186.231C169.249 186.744 169.874 187.408 170.418 188.221C170.867 188.894 171.124 189.394 171.364 190.064C171.599 190.722 171.647 190.901 171.755 191.524C171.932 192.541 171.926 193.527 171.737 194.521C171.651 194.975 171.644 195.084 171.698 195.166C171.753 195.25 171.925 195.297 172.851 195.48C174.193 195.746 175.047 195.977 175.942 196.314C176.864 196.662 177.085 196.764 178.083 197.301C179.21 197.907 179.186 197.913 179.472 196.973C180.141 194.772 180.281 192.732 179.937 190.175C179.881 189.751 179.272 187.46 179.141 187.174C179.089 187.061 178.977 186.798 178.891 186.588C178.24 184.988 177.055 183.231 175.692 181.842C175.019 181.157 174.04 180.348 173.158 179.751C170.973 178.27 167.998 177.283 165.222 177.119C164.01 177.048 162.932 177.083 161.901 177.229C161.611 177.27 161.289 177.307 161.188 177.312C160.966 177.322 158.455 177.996 158.292 178.09ZM249.835 154.491C249.75 154.534 249.524 154.612 249.333 154.664C248.293 154.95 246.544 155.826 245.456 156.608C244.753 157.114 244.597 157.244 244.089 157.752C243.245 158.597 242.504 159.684 242.139 160.613C241.552 162.105 241.473 163.742 241.911 165.367C242.383 167.119 243.191 168.413 244.494 169.503C246.236 170.959 248.679 171.82 252.265 172.241C252.991 172.326 254.454 172.45 255.004 172.474C256.05 172.519 257.263 172.699 257.93 172.91C258.323 173.034 258.961 173.355 259.153 173.526C259.661 173.979 259.863 174.8 259.683 175.682C259.562 176.277 259.093 176.866 258.385 177.312C257.739 177.719 256.575 178.089 255.693 178.168C254.807 178.247 253.7 178.119 252.546 177.804C252.074 177.675 251.103 177.309 250.676 177.1C250.534 177.031 250.184 176.87 249.899 176.742C248.628 176.174 248.405 176.208 247.774 177.068C247.419 177.553 246.617 178.808 245.604 180.469C244.955 181.533 244.884 181.712 244.997 182.011C245.119 182.333 245.381 182.528 246.628 183.223C247.597 183.763 247.923 183.921 248.601 184.175C250.511 184.892 252.846 185.332 254.741 185.331C256.16 185.331 257.144 185.199 258.554 184.82C260.77 184.225 262.561 183.352 264.217 182.06C265.46 181.09 266.651 179.666 267.242 178.443C268.163 176.537 268.389 175.069 268.093 172.92C268.03 172.459 267.684 171.255 267.468 170.741C267.311 170.367 266.91 169.634 266.68 169.3C266.06 168.4 264.765 167.344 263.737 166.898C261.615 165.98 259.63 165.648 254.707 165.386C253.036 165.297 252.819 165.276 252.077 165.128C251.534 165.019 251.363 164.963 251.006 164.779C250.69 164.615 250.529 164.501 250.377 164.333C250.18 164.114 250.169 164.091 250.041 163.612C249.912 163.134 249.91 163.107 249.971 162.822C250.159 161.943 251.13 161.204 252.618 160.808C253.319 160.621 253.676 160.587 254.433 160.635C255.08 160.676 255.324 160.716 255.925 160.879C256.512 161.038 257.163 161.279 257.83 161.585C258.795 162.028 259.141 162.057 259.541 161.726C259.75 161.555 259.965 161.213 260.726 159.843C261.028 159.301 261.456 158.54 261.678 158.152C262.507 156.704 262.585 156.336 262.167 155.859C261.727 155.357 260.731 154.887 258.874 154.303C257.588 153.898 256.261 153.696 254.865 153.693C253.839 153.69 252.888 153.777 251.952 153.958C251.17 154.11 250.01 154.402 249.835 154.491ZM181.274 173.534C181.002 173.702 180.823 173.954 180.783 174.228C180.761 174.375 181.02 175.367 183.233 183.628C184.732 189.221 185.751 192.965 185.817 193.118C185.878 193.258 185.996 193.544 186.08 193.754C186.883 195.751 188.256 197.562 189.879 198.762C190.894 199.512 191.682 199.912 192.937 200.312C194.22 200.721 195.378 200.884 196.811 200.858C198.539 200.825 199.834 200.637 201.618 200.159C202.53 199.915 203.433 199.625 203.881 199.432C203.957 199.4 204.232 199.285 204.493 199.178C206.074 198.529 207.753 197.472 208.718 196.519C210.336 194.919 211.225 193.331 211.694 191.199C212.008 189.773 212.054 188.686 211.874 186.99C211.79 186.2 211.617 185.515 209.253 176.629L206.815 167.467L206.644 167.285C206.436 167.065 206.121 166.949 205.79 166.97C205.632 166.981 204.602 167.246 202.475 167.824C199.605 168.604 199.379 168.671 199.244 168.778C199.062 168.922 198.907 169.165 198.847 169.4L198.801 169.581L201.195 178.603L203.588 187.625L203.604 188.041C203.622 188.546 203.6 188.898 203.518 189.412C203.421 190.014 203.226 190.498 202.818 191.152C202.496 191.668 202.41 191.774 202.064 192.077C201.327 192.723 200.663 193.081 199.741 193.329C198.607 193.632 197.449 193.617 196.507 193.286C196.127 193.153 195.504 192.786 195.163 192.496C194.521 191.949 193.954 191.12 193.58 190.18C193.493 189.962 192.563 186.589 191.055 181.024C189.26 174.402 188.649 172.196 188.597 172.146C188.466 172.021 188.135 171.872 187.907 171.836L187.678 171.801L184.523 172.638C182.788 173.099 181.326 173.502 181.274 173.534ZM266.435 150.737C266.163 150.891 265.983 151.122 265.916 151.405L265.857 151.649L266.588 154.332C267.315 156.999 267.321 157.017 267.459 157.179C267.62 157.366 267.815 157.477 268.046 157.514C268.188 157.536 268.601 157.436 271.762 156.607L275.319 155.676L275.436 155.741L275.553 155.805L278.468 166.6C280.74 175.013 281.402 177.422 281.47 177.519C281.604 177.709 281.764 177.842 281.948 177.914C282.32 178.059 282.223 178.078 285.64 177.163C289.134 176.227 289.018 176.267 289.237 175.914C289.472 175.537 289.74 176.66 286.514 164.528L283.62 153.644L283.689 153.529L283.758 153.414L287.345 152.432C291.383 151.326 291.047 151.447 291.269 151.019C291.486 150.602 291.503 150.704 290.702 147.765C289.994 145.169 289.988 145.147 289.858 145.014C289.683 144.834 289.485 144.737 289.208 144.693L288.979 144.657L277.799 147.645C268.73 150.069 266.584 150.652 266.435 150.737ZM299.106 141.992C298.962 142.081 298.874 142.185 298.723 142.444C298.615 142.629 298.493 142.893 298.453 143.03C298.412 143.168 298.227 144.567 298.042 146.14C297.857 147.713 297.265 152.725 296.727 157.276C294.819 173.426 294.934 172.391 294.95 173.353C294.961 174.042 295.113 174.338 295.5 174.426C295.64 174.458 296.171 174.32 304.391 172.117C312.61 169.915 313.139 169.769 313.244 169.672C313.305 169.615 313.383 169.499 313.416 169.414C313.533 169.119 313.462 168.984 312.333 167.325C310.246 164.261 309.499 163.188 309.358 163.053C309.161 162.865 308.972 162.772 308.699 162.729C308.472 162.694 308.456 162.697 306.332 163.245C304.073 163.828 304.096 163.824 303.987 163.657C303.96 163.616 303.965 163.237 303.997 162.739C304.028 162.272 304.098 161.154 304.153 160.256C304.269 158.351 304.511 154.909 304.617 153.653C304.72 152.425 304.768 152.262 304.987 152.383C305.086 152.438 305.995 153.765 312.455 163.29C316.184 168.789 316.04 168.596 316.537 168.735L316.77 168.8L320.446 167.816C324.098 166.837 324.121 166.83 324.214 166.718C324.41 166.483 324.397 166.13 324.18 165.745C324.127 165.65 323.785 165.182 323.421 164.706C323.057 164.229 322.508 163.501 322.2 163.087C321.893 162.674 321.246 161.804 320.763 161.155C320.28 160.505 319.631 159.632 319.322 159.215C319.012 158.798 318.361 157.921 317.874 157.266C317.387 156.612 316.59 155.541 316.103 154.886C315.616 154.232 314.965 153.355 314.655 152.938C314.346 152.521 313.695 151.644 313.208 150.989C312.721 150.335 311.924 149.264 311.437 148.609C310.95 147.955 310.299 147.078 309.989 146.661C309.68 146.243 309.031 145.371 308.548 144.721C308.064 144.071 307.387 143.161 307.043 142.698C305.974 141.259 305.553 140.784 305.172 140.585C304.824 140.403 304.936 140.382 301.978 141.166C299.658 141.78 299.268 141.892 299.106 141.992ZM321.794 135.904C321.49 136.076 321.323 136.35 321.317 136.685C321.315 136.787 322.584 141.579 325.062 150.829C328.435 163.417 328.822 164.835 328.923 164.983C329.065 165.189 329.343 165.351 329.557 165.351C329.797 165.351 335.992 163.687 336.162 163.577C336.352 163.455 336.509 163.243 336.533 163.078C336.552 162.954 336.207 161.632 334.319 154.587C332.892 149.261 332.088 146.203 332.097 146.132C332.113 145.992 332.224 145.957 332.373 146.046C332.434 146.082 332.883 146.481 333.369 146.931C333.855 147.381 334.668 148.134 335.174 148.603C335.68 149.072 336.652 149.972 337.334 150.604C338.015 151.235 339.224 152.357 340.021 153.098C340.817 153.838 342.184 155.108 343.059 155.92C343.934 156.733 345.238 157.946 345.957 158.616C347.47 160.026 347.736 160.237 348.092 160.311L348.341 160.362L351.81 159.433C354.295 158.767 355.316 158.479 355.407 158.421C355.597 158.298 355.754 158.087 355.778 157.921C355.797 157.796 355.227 155.637 352.014 143.646C348.622 130.984 348.218 129.505 348.126 129.389C347.93 129.142 347.663 129.047 347.24 129.072C347.083 129.082 346.096 129.331 344.093 129.868C340.76 130.761 340.877 130.719 340.633 131.126C340.547 131.269 340.489 131.431 340.485 131.538C340.48 131.673 340.94 133.435 342.509 139.292C343.803 144.12 344.535 146.911 344.527 146.982C344.511 147.121 344.399 147.156 344.254 147.068C344.194 147.032 343.078 146.042 341.775 144.868C340.472 143.693 338.548 141.963 337.501 141.023C334.582 138.402 330.803 134.988 330.389 134.597C330.117 134.342 329.595 134.027 329.369 133.983C329.017 133.915 328.848 133.953 325.364 134.889C322.723 135.599 321.938 135.822 321.794 135.904ZM352.208 127.776C352.008 127.98 352.017 128.171 352.239 128.394C352.314 128.468 352.785 128.93 353.287 129.42C353.789 129.91 354.564 130.67 355.009 131.109C355.454 131.548 356.144 132.229 356.543 132.622C356.942 133.015 357.64 133.703 358.094 134.152C358.548 134.6 359.246 135.288 359.645 135.681C360.044 136.074 360.742 136.763 361.196 137.211C361.65 137.659 362.348 138.348 362.747 138.741C363.146 139.134 363.844 139.822 364.298 140.27C364.752 140.719 365.438 141.393 365.822 141.77C366.207 142.146 366.56 142.518 366.606 142.596C366.666 142.694 367.154 144.463 368.199 148.359C369.639 153.728 369.712 153.988 369.825 154.121C369.969 154.291 370.204 154.401 370.422 154.401C370.647 154.401 377.043 152.687 377.237 152.575C377.426 152.466 377.575 152.253 377.615 152.034C377.646 151.862 377.58 151.602 376.151 146.267C374.914 141.649 374.656 140.647 374.663 140.485C374.667 140.378 374.721 140.109 374.782 139.886C374.844 139.664 374.979 139.174 375.082 138.798C375.381 137.706 375.861 135.958 376.155 134.894C376.304 134.354 376.564 133.409 376.733 132.794C376.902 132.179 377.162 131.234 377.311 130.694C377.46 130.154 377.72 129.209 377.89 128.594C378.059 127.978 378.319 127.033 378.468 126.493C378.617 125.953 378.837 125.152 378.956 124.713C379.076 124.274 379.296 123.473 379.445 122.933C379.594 122.393 379.747 121.833 379.785 121.689C379.823 121.544 379.906 121.288 379.969 121.119C380.138 120.663 380.055 120.431 379.708 120.394C379.544 120.376 379.128 120.481 375.664 121.409C371.364 122.561 371.523 122.508 371.281 122.868C371.154 123.057 371.137 123.124 370.875 124.489C370.81 124.832 370.684 125.485 370.595 125.939C370.418 126.848 370.276 127.589 370.063 128.703C369.986 129.108 369.871 129.709 369.807 130.04C369.743 130.371 369.628 130.973 369.551 131.378C369.411 132.112 369.263 132.881 369.085 133.807C368.907 134.727 368.794 134.758 368.181 134.049C367.782 133.589 367.13 132.84 366.314 131.907C365.585 131.073 364.974 130.372 364.222 129.507C363.919 129.158 363.463 128.633 363.208 128.341C362.953 128.049 362.497 127.524 362.194 127.175C360.951 125.742 360.833 125.633 360.462 125.582C360.277 125.557 360.07 125.608 356.292 126.609C352.409 127.639 352.315 127.666 352.208 127.776ZM387.571 118.291C387.457 118.367 387.333 118.519 387.187 118.761C387.015 119.047 386.954 119.205 386.885 119.544C386.837 119.778 386.615 121.531 386.391 123.44C386.166 125.349 385.542 130.645 385.003 135.209C384.463 139.773 383.907 144.488 383.766 145.688C383.506 147.896 383.323 149.91 383.356 150.182C383.395 150.499 383.703 150.748 384.055 150.748C384.168 150.748 386.963 150.013 392.878 148.428C401.474 146.125 401.537 146.108 401.681 145.985C401.904 145.794 401.943 145.651 401.866 145.3C401.805 145.017 401.778 144.967 401.416 144.469C400.991 143.885 400.268 142.842 398.895 140.832C398.398 140.105 397.927 139.448 397.848 139.373C397.769 139.297 397.601 139.187 397.475 139.127C397.062 138.932 397.085 138.928 394.791 139.543L392.749 140.09L392.623 140.02C392.553 139.981 392.49 139.925 392.481 139.894C392.473 139.863 392.512 139.172 392.567 138.357C392.623 137.543 392.722 136.025 392.788 134.984C393.05 130.851 393.199 128.958 393.275 128.817C393.331 128.712 393.44 128.676 393.525 128.734C393.584 128.774 394.893 130.695 401.402 140.287C402.991 142.629 404.348 144.607 404.418 144.682C404.597 144.875 405.014 145.077 405.228 145.075C405.352 145.074 406.504 144.776 409.019 144.094L412.632 143.114L412.759 142.983C412.909 142.828 412.996 142.588 412.956 142.438C412.94 142.38 412.87 142.258 412.799 142.168C412.729 142.078 412.455 141.71 412.189 141.351C411.217 140.033 410.053 138.466 407.578 135.144C406.906 134.242 406.104 133.163 405.795 132.746C405.485 132.329 404.837 131.456 404.353 130.806C403.87 130.157 403.221 129.284 402.912 128.867C402.603 128.449 401.948 127.569 401.458 126.909C400.967 126.25 400.17 125.179 399.687 124.529C399.204 123.879 398.555 123.007 398.246 122.589C397.361 121.396 395.939 119.485 395.491 118.887C395.266 118.587 394.973 118.191 394.842 118.007C394.585 117.647 394.017 117.067 393.765 116.905C393.68 116.851 393.525 116.788 393.42 116.765C393.229 116.723 393.223 116.725 390.484 117.451C388.065 118.092 387.718 118.192 387.571 118.291ZM213.223 165.252C213.019 165.389 212.915 165.526 212.858 165.733C212.766 166.067 212.818 166.319 213.472 168.695C214.02 170.689 214.103 170.961 214.214 171.123C214.372 171.356 214.517 171.46 214.76 171.512L214.953 171.554L225.842 168.648C233.481 166.609 236.776 165.715 236.883 165.655C237.086 165.54 237.293 165.214 237.344 164.93L237.385 164.698L236.724 162.232L236.064 159.766L235.914 159.617C235.739 159.444 235.524 159.364 235.215 159.359C234.891 159.353 213.451 165.098 213.223 165.252ZM161.518 188.983C161.41 189.031 161.09 189.164 160.807 189.279C160.218 189.518 158.746 190.304 158.318 190.608C157.953 190.867 157.826 191.05 157.737 191.448C157.437 192.791 157.584 194.284 158.127 195.411C158.515 196.214 158.63 196.352 158.865 196.289C158.935 196.27 159.27 196.075 159.609 195.856C160.582 195.226 161.692 194.657 162.655 194.292C163.29 194.052 164.822 193.621 165.287 193.551C166.805 193.323 167.61 193.27 168.762 193.322C169.24 193.344 169.678 193.349 169.737 193.333C169.95 193.276 170.019 192.964 170.02 192.052C170.02 191.913 169.984 191.598 169.94 191.352C169.897 191.107 169.86 190.852 169.86 190.786C169.858 190.538 169.321 189.324 169.008 188.859C168.725 188.44 168.501 188.214 168.306 188.151C168.078 188.077 167.243 188.031 166.446 188.048C165.802 188.061 165.211 188.112 164.343 188.227C163.957 188.278 161.815 188.851 161.518 188.983ZM216.289 176.694C216.06 176.848 215.977 176.973 215.912 177.262L215.852 177.53L218.03 185.658C220.114 193.435 220.214 193.795 220.346 194.001C220.512 194.259 220.784 194.426 221.039 194.426C221.282 194.425 242.81 188.658 243.02 188.537C243.22 188.422 243.425 188.096 243.476 187.815L243.517 187.583L242.895 185.212C242.453 183.525 242.248 182.799 242.185 182.696C242.037 182.455 241.832 182.316 241.549 182.264L241.289 182.217L234.109 184.12L226.929 186.022L226.812 185.957L226.695 185.893L226.071 183.567L225.448 181.241L225.517 181.126L225.587 181.011L232.777 179.064C239.384 177.274 239.975 177.108 240.072 177.017C240.231 176.869 240.364 176.611 240.41 176.363L240.451 176.14L239.829 173.77C239.387 172.083 239.182 171.357 239.119 171.254C238.971 171.012 238.767 170.873 238.483 170.822L238.223 170.775L227.329 173.685C218.05 176.164 216.414 176.61 216.289 176.694ZM163.706 198.379C162.325 198.956 162.016 199.104 161.335 199.516C159.256 200.773 157.582 202.314 156.172 204.269C155.734 204.877 155.517 205.276 155.527 205.456C155.536 205.598 155.689 205.738 156.376 206.235C157.631 207.142 159.1 207.878 160.648 208.375C161.345 208.599 161.529 208.642 161.649 208.61C161.783 208.574 161.834 208.511 162.198 207.919C162.783 206.967 163.338 206.394 164.272 205.777C164.752 205.46 165.152 205.267 165.838 205.024C167.273 204.515 168.855 204.251 170.081 204.314C171.086 204.366 171.708 204.541 172.587 205.018C173.682 205.611 174.228 206.043 174.997 206.922C175.209 207.164 175.52 207.519 175.688 207.712C175.922 207.978 176.059 208.096 176.264 208.203L176.533 208.343L176.897 208.246C177.187 208.168 177.278 208.127 177.349 208.045C177.398 207.988 178.293 207.337 179.338 206.597C180.382 205.858 181.314 205.186 181.408 205.105C181.79 204.776 181.947 204.39 181.849 204.018C181.615 203.128 179.937 201.304 178.279 200.137C177.135 199.332 176.519 198.999 175.306 198.533C173.757 197.936 171.795 197.518 170.105 197.424C168.903 197.358 167.802 197.413 166.765 197.591C166.157 197.696 164.033 198.243 163.706 198.379Z" fill="black" fill-opacity="0.05"/>
</g>
<defs>
<clipPath id="clip0">
<rect width="230" height="230" fill="white"/>
</clipPath>
</defs>
</svg>
