<svg xmlns="http://www.w3.org/2000/svg" width="511.995" height="511.856" viewBox="0 0 511.995 511.856">
  <g id="cancel" transform="translate(0 -0.07)">
    <g id="Group_2" data-name="Group 2">
      <g id="Group_1" data-name="Group 1">
        <path id="Path_1" data-name="Path 1" d="M437.126,74.939c-99.826-99.826-262.307-99.826-362.133,0A256.059,256.059,0,0,0,437.125,437.052C536.951,337.226,536.951,174.784,437.126,74.939ZM409.08,409.006c-84.375,84.375-221.667,84.375-306.042,0a216.413,216.413,0,0,1,0-306.022c84.375-84.375,221.667-84.355,306.042,0C493.435,187.359,493.435,324.651,409.08,409.006Z" fill="#fff"/>
      </g>
    </g>
    <g id="Group_4" data-name="Group 4">
      <g id="Group_3" data-name="Group 3">
        <path id="Path_2" data-name="Path 2" d="M341.525,310.827l-56.151-56.071,56.151-56.071a19.838,19.838,0,0,0-28.045-28.066L257.29,226.73,201.1,170.619a19.838,19.838,0,1,0-28.045,28.066l56.151,56.071-56.151,56.071A19.838,19.838,0,0,0,201.1,338.892l56.19-56.111,56.19,56.111a19.838,19.838,0,1,0,28.044-28.065Z" fill="#fff"/>
      </g>
    </g>
  </g>
</svg>
