<svg width="16" height="16" viewBox="0 0 16 16" fill="none" xmlns="http://www.w3.org/2000/svg">
<path d="M6.86198 2.476H1.99153C1.62247 2.476 1.26852 2.62261 1.00755 2.88358C0.746586 3.14454 0.599976 3.49849 0.599976 3.86756V13.6085C0.599976 13.9775 0.746586 14.3315 1.00755 14.5924C1.26852 14.8534 1.62247 15 1.99153 15H11.7324C12.1015 15 12.4554 14.8534 12.7164 14.5924C12.9774 14.3315 13.124 13.9775 13.124 13.6085V8.73801" stroke="white" stroke-linecap="round" stroke-linejoin="round"/>
<path d="M12.0803 1.4323C12.3571 1.1555 12.7326 1 13.124 1C13.5155 1 13.8909 1.1555 14.1677 1.4323C14.4445 1.7091 14.6 2.08452 14.6 2.47597C14.6 2.86742 14.4445 3.24284 14.1677 3.51964L7.55777 10.1295L4.77466 10.8253L5.47044 8.0422L12.0803 1.4323Z" stroke="white" stroke-linecap="round" stroke-linejoin="round"/>
</svg>
