<svg width="17" height="17" viewBox="0 0 17 17" fill="none" xmlns="http://www.w3.org/2000/svg">
<path d="M7.7093 2.58154H2.49096C2.09553 2.58154 1.7163 2.73863 1.43669 3.01823C1.15708 3.29784 1 3.67707 1 4.0725V14.5092C1 14.9046 1.15708 15.2838 1.43669 15.5635C1.7163 15.8431 2.09553 16.0001 2.49096 16.0001H12.9276C13.3231 16.0001 13.7023 15.8431 13.9819 15.5635C14.2615 15.2838 14.4186 14.9046 14.4186 14.5092V9.29084" stroke="#5939C6" stroke-width="2" stroke-linecap="round" stroke-linejoin="round"/>
<path d="M13.3004 1.46318C13.597 1.16661 13.9992 1 14.4186 1C14.838 1 15.2403 1.16661 15.5369 1.46318C15.8334 1.75975 16 2.16198 16 2.5814C16 3.00081 15.8334 3.40304 15.5369 3.69961L8.45481 10.7817L5.4729 11.5271L6.21838 8.54522L13.3004 1.46318Z" stroke="#5939C6" stroke-width="2" stroke-linecap="round" stroke-linejoin="round"/>
</svg>
