<svg width="17" height="17" viewBox="0 0 17 17" fill="none" xmlns="http://www.w3.org/2000/svg">
<path d="M7.79876 2.60254H2.51084C2.11014 2.60254 1.72585 2.76172 1.44251 3.04505C1.15918 3.32839 1 3.71268 1 4.11337V14.6892C1 15.0899 1.15918 15.4742 1.44251 15.7575C1.72585 16.0409 2.11014 16.2001 2.51084 16.2001H13.0867C13.4874 16.2001 13.8717 16.0409 14.155 15.7575C14.4383 15.4742 14.5975 15.0899 14.5975 14.6892V9.4013" stroke="white" stroke-linecap="round" stroke-linejoin="round"/>
<path d="M13.4644 1.46936C13.7649 1.16883 14.1725 1 14.5975 1C15.0225 1 15.4301 1.16883 15.7306 1.46936C16.0311 1.76988 16.2 2.17748 16.2 2.60248C16.2 3.02749 16.0311 3.43509 15.7306 3.73561L8.55414 10.9121L5.53247 11.6675L6.28789 8.64582L13.4644 1.46936Z" stroke="white" stroke-linecap="round" stroke-linejoin="round"/>
</svg>
