<svg width="22" height="22" viewBox="0 0 22 22" fill="none" xmlns="http://www.w3.org/2000/svg">
<path d="M13.3156 9.29671C13.3156 10.7986 12.7113 11.5495 11.5028 11.5495H9.54917V7.21991H11.5028C12.1364 7.21991 12.594 7.38418 12.8756 7.71271C13.1689 8.04124 13.3156 8.56924 13.3156 9.29671Z" fill="#511285"/>
<path fill-rule="evenodd" clip-rule="evenodd" d="M4.88889 0H17.1111C19.8112 0 22 2.18883 22 4.88889V17.1111C22 19.8112 19.8112 22 17.1111 22H4.88889C2.18883 22 0 19.8112 0 17.1111V4.88889C0 2.18883 2.18883 0 4.88889 0ZM11.5204 5.14311H7.12037V17.1111H9.54917V13.6263H11.5204C12.9166 13.6263 13.9726 13.2567 14.6884 12.5175C15.4158 11.7783 15.7796 10.7047 15.7796 9.29671C15.7796 6.52764 14.3598 5.14311 11.5204 5.14311Z" fill="#511285"/>
</svg>
