<svg width="25" height="22" viewBox="0 0 25 22" fill="none" xmlns="http://www.w3.org/2000/svg">
<path d="M14.2857 0C11.4441 0 8.71889 1.15892 6.70957 3.22182C4.70025 5.28472 3.57143 8.08262 3.57143 11H0L4.63095 15.7544L4.71429 15.9256L9.52381 11H5.95238C5.95238 6.27 9.67857 2.44444 14.2857 2.44444C18.8929 2.44444 22.619 6.27 22.619 11C22.619 15.73 18.8929 19.5555 14.2857 19.5555C11.9881 19.5555 9.90476 18.59 8.40476 17.0378L6.71429 18.7733C7.70645 19.7976 8.88629 20.61 10.1858 21.1638C11.4853 21.7176 12.8787 22.0018 14.2857 22C17.1273 22 19.8525 20.8411 21.8619 18.7782C23.8712 16.7153 25 13.9174 25 11C25 8.08262 23.8712 5.28472 21.8619 3.22182C19.8525 1.15892 17.1273 4.34724e-08 14.2857 0ZM13.0952 6.11111V12.2222L18.1905 15.3267L19.0476 13.8478L14.881 11.3056V6.11111H13.0952Z" fill="#511285"/>
</svg>
