<svg width="23" height="24" viewBox="0 0 23 24" fill="none" xmlns="http://www.w3.org/2000/svg">
<path fill-rule="evenodd" clip-rule="evenodd" d="M10.4286 0.0261558C10.3793 0.039225 10.2043 0.0653058 10.0399 0.0840873C8.85918 0.218963 7.43125 0.639053 6.31853 1.1789C5.10136 1.76947 3.79329 2.73091 2.98153 3.63164C2.33911 4.34448 1.92125 4.90158 1.48842 5.62232C0.933155 6.54694 0.439359 7.80854 0.234976 8.82471C0.0488015 9.75043 0.000486342 10.225 7.97378e-06 11.1327C-0.000350802 11.7847 0.0111001 11.964 0.0949641 12.6194C0.206065 13.4878 0.516676 14.5988 0.880086 15.4275C1.19402 16.1434 1.73992 17.0693 1.92424 17.1984C1.98724 17.2425 2.01567 17.2464 2.08644 17.2204C2.13365 17.2031 2.40198 16.9713 2.68276 16.7053C2.96353 16.4393 3.27399 16.1565 3.37265 16.077C4.05735 15.5247 5.12533 14.8702 6.01863 14.4554C6.24062 14.3524 6.45254 14.2419 6.48952 14.21C6.59007 14.1233 6.57416 14.0044 6.4192 13.6844C6.05074 12.9235 5.83924 11.9825 5.83924 11.1039C5.83924 10.6439 5.86917 10.3712 5.97862 9.83447C6.23111 8.59636 6.94008 7.40686 7.87903 6.64604C8.61739 6.04777 9.28815 5.71833 10.1665 5.52261C10.7302 5.397 11.0216 5.36267 11.5236 5.36267C12.6238 5.36267 13.7231 5.6872 14.6601 6.28856C14.9881 6.49908 15.6457 7.10364 15.9281 7.45432C16.3135 7.93283 16.618 8.50052 16.8399 9.15456C17.0235 9.69547 17.1071 10.0836 17.1482 10.5846C17.1886 11.0763 17.1886 11.2071 17.1484 11.652C17.0828 12.3786 16.8988 13.0498 16.5887 13.6934C16.4471 13.9873 16.4227 14.0604 16.4444 14.1262C16.4665 14.1934 16.5756 14.2572 17.1725 14.5515C18.0383 14.9784 18.5781 15.2917 19.126 15.6855C19.6911 16.0916 19.8225 16.201 20.4047 16.75C21.0618 17.3698 21.0447 17.3693 21.411 16.7801C22.2684 15.4011 22.736 14.0347 22.9689 12.2276C23.0075 11.9283 23.0113 10.2535 22.9739 10.0345C22.9592 9.94829 22.9309 9.74792 22.911 9.58924C22.7591 8.37883 22.2729 6.96337 21.5977 5.76657C21.2646 5.17612 20.7451 4.44574 20.2534 3.87687C19.0347 2.46684 17.1885 1.25028 15.3272 0.630831C14.5147 0.360416 13.7735 0.187574 13.0447 0.0985702C12.8391 0.0734704 12.6136 0.0402348 12.5435 0.0247133C12.3907 -0.00909934 10.5568 -0.00782992 10.4286 0.0261558ZM10.6379 8.04728C10.5557 8.0602 10.3135 8.0926 10.0997 8.11926C9.65441 8.1748 8.50832 8.44166 8.16124 8.57065C7.86516 8.68069 7.74563 8.78241 7.61231 9.03788C7.16262 9.89956 6.99025 10.9446 7.1546 11.8129C7.27174 12.4318 7.32523 12.5464 7.49676 12.5464C7.54821 12.5464 7.81185 12.4747 8.08261 12.3872C8.86043 12.1355 9.72075 11.9498 10.4435 11.8774C10.9197 11.8298 12.042 11.8155 12.372 11.8528C13.4477 11.9747 14.0057 12.0857 14.7806 12.3318C15.1023 12.434 15.4004 12.5176 15.4432 12.5176C15.5986 12.5176 15.7026 12.317 15.8696 11.6953C15.8952 11.6001 15.9284 11.3787 15.9434 11.2033C15.9583 11.0279 15.9802 10.8476 15.9919 10.8026C16.036 10.6328 15.8918 9.70629 15.763 9.33196C15.6467 8.99415 15.5355 8.79895 15.4145 8.72059C15.2725 8.62861 14.7121 8.4444 14.1658 8.31016C13.7249 8.20183 13.3131 8.12806 12.7008 8.04786C12.4283 8.01214 10.864 8.01171 10.6379 8.04728ZM10.4136 14.8578C9.36715 14.9984 9.12969 15.0429 8.59037 15.1994C6.94454 15.6772 5.52283 16.4227 4.2054 17.4988C3.79634 17.8329 3.5756 18.0658 3.54977 18.1905C3.52941 18.2886 3.60822 18.4127 3.9858 18.8771C4.6754 19.7253 5.54154 20.4957 6.50528 21.118C6.93913 21.3981 7.0566 21.4612 7.14462 21.4612C7.24259 21.4612 7.2884 21.4272 7.6446 21.0899C8.21691 20.5479 8.69964 20.2584 9.4485 20.008C9.83326 19.8793 10.1413 19.8212 10.6528 19.7806C11.7233 19.6958 12.8494 19.8044 13.6732 20.0719C14.3479 20.291 14.7397 20.5238 15.2521 21.0102C15.8892 21.615 16.1823 22.009 16.5461 22.7497C16.6461 22.9534 16.7932 23.2527 16.8729 23.4149C16.9831 23.6391 17.0556 23.7446 17.1755 23.8549L17.3331 24H17.5985C17.8102 24 17.88 23.989 17.9433 23.9458C17.987 23.916 18.7156 23.635 19.5624 23.3214C20.4093 23.0079 21.1666 22.7203 21.2453 22.6823C21.5658 22.5275 21.7431 22.2926 21.7443 22.0212C21.7472 21.3708 20.9372 19.82 20.0202 18.7204C19.3881 17.9623 19.0291 17.6229 18.2879 17.0827C17.3414 16.3928 16.0813 15.749 14.9468 15.3759C14.1404 15.1107 13.3803 14.9469 12.641 14.8791C12.2077 14.8393 10.661 14.8245 10.4136 14.8578Z" fill="#511285"/>
</svg>
