<svg width="114" height="114" viewBox="0 0 114 114" fill="none" xmlns="http://www.w3.org/2000/svg">
<rect width="114" height="114" rx="10" fill="#C4C4C4"/>
<path d="M90.25 14.25H23.75C18.5033 14.25 14.25 18.5033 14.25 23.75V90.25C14.25 95.4967 18.5033 99.75 23.75 99.75H90.25C95.4967 99.75 99.75 95.4967 99.75 90.25V23.75C99.75 18.5033 95.4967 14.25 90.25 14.25Z" stroke="#838383" stroke-width="3" stroke-linecap="round" stroke-linejoin="round"/>
<path d="M40.3748 47.5001C44.3098 47.5001 47.4998 44.3101 47.4998 40.3751C47.4998 36.44 44.3098 33.2501 40.3748 33.2501C36.4397 33.2501 33.2498 36.44 33.2498 40.3751C33.2498 44.3101 36.4397 47.5001 40.3748 47.5001Z" stroke="#838383" stroke-width="3" stroke-linecap="round" stroke-linejoin="round"/>
<path d="M99.7498 71.25L75.9998 47.5L23.7498 99.75" stroke="#838383" stroke-width="3" stroke-linecap="round" stroke-linejoin="round"/>
</svg>
