<svg width="16" height="16" viewBox="0 0 16 16" fill="none" xmlns="http://www.w3.org/2000/svg">
<path d="M13.4444 1H2.55556C1.69645 1 1 1.69645 1 2.55556V13.4444C1 14.3036 1.69645 15 2.55556 15H13.4444C14.3036 15 15 14.3036 15 13.4444V2.55556C15 1.69645 14.3036 1 13.4444 1Z" stroke="white" stroke-linecap="round" stroke-linejoin="round"/>
<path d="M5.27775 6.44442C5.92208 6.44442 6.44442 5.92208 6.44442 5.27775C6.44442 4.63342 5.92208 4.11108 5.27775 4.11108C4.63342 4.11108 4.11108 4.63342 4.11108 5.27775C4.11108 5.92208 4.63342 6.44442 5.27775 6.44442Z" stroke="white" stroke-linecap="round" stroke-linejoin="round"/>
<path d="M15 10.3333L11.1111 6.4444L2.55554 15" stroke="white" stroke-linecap="round" stroke-linejoin="round"/>
</svg>
