<svg width="31" height="18" viewBox="0 0 31 18" fill="none" xmlns="http://www.w3.org/2000/svg">
<path fill-rule="evenodd" clip-rule="evenodd" d="M21.5194 17.9874C21.4675 17.9957 21.4143 18 21.3601 18H9.68006C9.65584 18 9.63181 17.9991 9.60802 17.9974C9.5389 17.9991 9.46958 18 9.40007 18C4.62833 18 0.760071 13.9706 0.760071 9C0.760071 4.02944 4.62833 0 9.40007 0C9.46958 0 9.5389 0.000855017 9.60801 0.0025555C9.63181 0.000861489 9.65583 0 9.68006 0H21.3601C21.4143 0 21.4675 0.00431424 21.5194 0.0126181C21.6785 0.0042412 21.8388 0 22.0001 0C26.9706 0 31.0001 4.02944 31.0001 9C31.0001 13.9706 26.9706 18 22.0001 18C21.8388 18 21.6785 17.9958 21.5194 17.9874Z" fill="#A7A7A7"/>
<circle cx="9.76007" cy="9" r="8.5" fill="white" stroke="#A7A7A7"/>
<path d="M12.7673 8.10791H6.04734C5.51715 8.10791 5.08734 8.53772 5.08734 9.06791V12.4279C5.08734 12.9581 5.51715 13.3879 6.04734 13.3879H12.7673C13.2975 13.3879 13.7273 12.9581 13.7273 12.4279V9.06791C13.7273 8.53772 13.2975 8.10791 12.7673 8.10791Z" fill="#A7A7A7"/>
<path d="M7.00739 8.10784V6.18784C7.00739 5.55132 7.26024 4.94087 7.71033 4.49079C8.16042 4.0407 8.77087 3.78784 9.40739 3.78784C10.0439 3.78784 10.6544 4.0407 11.1044 4.49079C11.5545 4.94087 11.8074 5.55132 11.8074 6.18784V8.10784" stroke="#A7A7A7" stroke-width="2" stroke-linecap="round" stroke-linejoin="round"/>
</svg>
