<svg width="31" height="18" viewBox="0 0 31 18" fill="none" xmlns="http://www.w3.org/2000/svg">
<path fill-rule="evenodd" clip-rule="evenodd" d="M21.5194 17.9874C21.4675 17.9957 21.4143 18 21.3601 18H9.68006C9.65584 18 9.63181 17.9991 9.60802 17.9974C9.5389 17.9991 9.46958 18 9.40007 18C4.62833 18 0.760071 13.9706 0.760071 9C0.760071 4.02944 4.62833 0 9.40007 0C9.46958 0 9.5389 0.000855017 9.60801 0.0025555C9.63181 0.000861489 9.65583 0 9.68006 0H21.3601C21.4143 0 21.4675 0.00431424 21.5194 0.0126181C21.6785 0.0042412 21.8388 0 22.0001 0C26.9706 0 31.0001 4.02944 31.0001 9C31.0001 13.9706 26.9706 18 22.0001 18C21.8388 18 21.6785 17.9958 21.5194 17.9874Z" fill="#F232A4"/>
<circle cx="22.0001" cy="9" r="8.5" fill="white" stroke="#F232A4"/>
<path d="M25.72 8.64246H19C18.4698 8.64246 18.04 9.07226 18.04 9.60246V12.9625C18.04 13.4926 18.4698 13.9225 19 13.9225H25.72C26.2502 13.9225 26.68 13.4926 26.68 12.9625V9.60246C26.68 9.07226 26.2502 8.64246 25.72 8.64246Z" fill="#F232A4"/>
<path d="M19.9601 8.64236V6.72236C19.9595 6.12719 20.1801 5.55302 20.579 5.11132C20.9779 4.66963 21.5267 4.39192 22.1189 4.3321C22.711 4.27229 23.3043 4.43464 23.7835 4.78763C24.2627 5.14063 24.5936 5.65909 24.7121 6.24236" stroke="#F232A4" stroke-width="2" stroke-linecap="round" stroke-linejoin="round"/>
</svg>
