<svg width="331" height="43" viewBox="0 0 331 43" fill="none" xmlns="http://www.w3.org/2000/svg">
<path fill-rule="evenodd" clip-rule="evenodd" d="M18.1267 0.0468625C18.041 0.0702782 17.7369 0.117006 17.4511 0.150656C15.3988 0.392308 12.9168 1.14497 10.9827 2.1122C8.86705 3.1703 6.5934 4.89287 5.18242 6.50669C4.06578 7.78386 3.33948 8.782 2.58714 10.0733C1.62199 11.7299 0.763683 13.9903 0.40843 15.8109C0.0848256 17.4695 0.000845348 18.3199 1.38598e-05 19.9462C-0.000609756 21.1143 0.019294 21.4355 0.165064 22.6098C0.358177 24.1657 0.898073 26.1562 1.52974 27.641C2.07541 28.9237 3.02429 30.5825 3.34467 30.8138C3.45417 30.8928 3.50359 30.8997 3.6266 30.8532C3.70866 30.8221 4.17507 30.4069 4.6631 29.9303C5.15113 29.4537 5.69077 28.9471 5.86226 28.8046C7.05238 27.815 8.90873 26.6424 10.4614 25.8993C10.8473 25.7146 11.2156 25.5168 11.2799 25.4596C11.4547 25.3042 11.427 25.0912 11.1577 24.5179C10.5172 23.1546 10.1496 21.4686 10.1496 19.8945C10.1496 19.0703 10.2016 18.5817 10.3919 17.6201C10.8308 15.4018 12.0631 13.2706 13.6951 11.9075C14.9785 10.8356 16.1444 10.2453 17.6711 9.89468C18.6509 9.66962 19.1574 9.60811 20.0301 9.60811C21.9423 9.60811 23.8532 10.1896 25.4818 11.267C26.0519 11.6442 27.195 12.7274 27.6859 13.3557C28.3558 14.213 28.8849 15.2301 29.2707 16.4019C29.5898 17.3711 29.7352 18.0665 29.8066 18.964C29.8767 19.8451 29.8768 20.0795 29.807 20.8766C29.693 22.1783 29.3731 23.3808 28.834 24.5341C28.588 25.0605 28.5456 25.1916 28.5832 25.3094C28.6216 25.4299 28.8113 25.5441 29.8489 26.0714C31.3537 26.8363 32.292 27.3977 33.2444 28.1031C34.2267 28.8308 34.4551 29.0268 35.4669 30.0105C36.6091 31.1209 36.5793 31.1199 37.216 30.0644C38.7063 27.5936 39.5191 25.1455 39.924 21.9077C39.991 21.3715 39.9977 18.3708 39.9327 17.9785C39.9071 17.824 39.8579 17.465 39.8233 17.1807C39.5593 15.0121 38.7141 12.476 37.5407 10.3318C36.9617 9.27388 36.0586 7.96529 35.204 6.94606C33.0857 4.41975 29.8766 2.24008 26.6413 1.13024C25.2291 0.645746 23.9407 0.336069 22.6739 0.176605C22.3166 0.131634 21.9246 0.0720873 21.8027 0.044278C21.5372 -0.016303 18.3497 -0.0140286 18.1267 0.0468625ZM134.015 1.18312C133.901 1.20798 133.609 1.22954 133.366 1.23098C132.044 1.23884 129.695 1.73786 128.158 2.33746C127.165 2.72478 126.939 2.83322 126.177 3.28774C124.91 4.04376 123.687 5.12967 122.959 6.14631C121.791 7.77698 121.179 9.753 121.181 11.8825C121.184 14.1785 121.73 16.0244 122.928 17.7833C124.529 20.1344 127.148 21.9864 131.261 23.6748C132.094 24.0168 133.787 24.6483 134.431 24.8573C135.655 25.2543 137.034 25.8726 137.757 26.3483C138.183 26.6285 138.837 27.2308 139.01 27.5018C139.468 28.2215 139.446 29.292 138.954 30.3107C138.621 30.9984 137.879 31.5647 136.9 31.8778C136.005 32.1639 134.509 32.2353 133.44 32.043C132.365 31.8497 131.095 31.3303 129.829 30.5665C129.311 30.2546 128.277 29.4897 127.837 29.0946C127.691 28.963 127.328 28.6515 127.031 28.4025C125.706 27.2912 125.432 27.26 124.412 28.1046C123.837 28.5806 122.49 29.8531 120.763 31.5506C119.656 32.6392 119.516 32.835 119.555 33.2372C119.597 33.6708 119.845 33.9945 121.101 35.2529C122.077 36.2302 122.414 36.5296 123.136 37.0629C125.17 38.5646 127.795 39.8665 130.04 40.4868C131.72 40.9512 132.927 41.1122 134.717 41.111C137.53 41.1091 139.928 40.6287 142.298 39.5918C144.079 38.813 145.94 37.4628 147.029 36.161C148.724 34.1332 149.458 32.4131 149.789 29.6898C149.86 29.1055 149.833 27.5203 149.74 26.821C149.673 26.3126 149.43 25.2851 149.264 24.8022C148.815 23.4986 147.617 21.7832 146.541 20.9024C144.32 19.0848 142.075 18.0285 136.328 16.0964C134.377 15.4406 134.127 15.3437 133.295 14.9192C132.687 14.609 132.502 14.4844 132.138 14.1418C131.816 13.8383 131.661 13.6458 131.535 13.3907C131.37 13.0586 131.365 13.0271 131.365 12.3994C131.365 11.7731 131.371 11.7396 131.533 11.4116C132.034 10.3987 133.419 9.81332 135.307 9.81601C136.197 9.81725 136.63 9.89272 137.511 10.1997C138.263 10.4618 138.54 10.5905 139.2 10.9861C139.845 11.3729 140.539 11.8806 141.232 12.4735C142.234 13.331 142.634 13.4791 143.214 13.2066C143.515 13.0649 143.878 12.7179 145.214 11.2925C145.743 10.7288 146.492 9.93882 146.878 9.53719C148.319 8.03843 148.528 7.61473 148.184 6.89437C147.822 6.13737 146.793 5.2361 144.779 3.91443C143.384 2.99843 141.877 2.31715 140.226 1.85525C139.011 1.51574 137.857 1.31017 136.692 1.22587C135.717 1.15536 134.251 1.132 134.015 1.18312ZM46.7867 2.00561C46.4109 2.12114 46.1197 2.37055 45.9843 2.69289C45.9121 2.86476 45.9036 4.1628 45.9036 14.9852C45.9036 22.3115 45.923 27.2218 45.9528 27.4313C45.9798 27.6215 46.0291 28.0098 46.0624 28.2941C46.3789 30.9987 47.4305 33.6609 48.972 35.66C49.9356 36.9096 50.7419 37.6559 52.101 38.5562C53.4898 39.4762 54.8099 40.0549 56.5154 40.4917C58.5716 41.0183 60.1646 41.2125 62.4294 41.2125C63.5861 41.2125 64.7483 41.1536 65.3396 41.065C65.4397 41.05 65.8021 41.0005 66.1451 40.955C68.2234 40.6791 70.5467 39.9371 71.9915 39.0878C74.4152 37.6631 75.9714 36.0129 77.2035 33.5607C78.0278 31.9201 78.4276 30.6073 78.7521 28.475C78.9034 27.4811 78.9155 26.5872 78.9357 14.9523L78.9566 2.95433L78.8111 2.67583C78.6351 2.33896 78.2991 2.09416 77.8995 2.01161C77.7098 1.97248 76.4061 1.9593 73.7036 1.96933C70.0576 1.98277 69.7683 1.99031 69.575 2.07689C69.3136 2.19392 69.0532 2.44002 68.9079 2.70746L68.7955 2.91422L68.7674 14.7254L68.7393 26.5367L68.6255 27.0504C68.4872 27.6745 68.3494 28.0975 68.0884 28.6986C67.7831 29.4022 67.3993 29.9297 66.7078 30.5961C66.1631 31.121 66.0275 31.2221 65.5214 31.4798C64.4442 32.0284 63.5437 32.2482 62.3736 32.2484C60.935 32.2485 59.568 31.8506 58.5578 31.1376C58.1498 30.8495 57.5282 30.1978 57.217 29.7316C56.63 28.8522 56.2222 27.6535 56.0772 26.3816C56.0437 26.0878 56.0122 21.66 55.9918 14.3636C55.9675 5.68167 55.9443 2.78515 55.8986 2.70746C55.7827 2.51057 55.4386 2.22095 55.1799 2.10263L54.9201 1.9838L50.9185 1.9747C48.7177 1.96969 46.8584 1.98359 46.7867 2.00561ZM154.863 2.03182C154.493 2.13122 154.207 2.35493 154.037 2.6781L153.89 2.95713L153.905 6.47646C153.919 9.97387 153.92 9.99734 154.033 10.241C154.163 10.522 154.359 10.7224 154.621 10.8426C154.782 10.9169 155.303 10.9291 159.309 10.9521L163.816 10.9779L163.934 11.0957L164.053 11.2133L164.079 25.3622C164.1 36.3902 164.12 39.5508 164.17 39.6918C164.268 39.9686 164.416 40.1831 164.611 40.331C165.005 40.6299 164.883 40.6222 169.221 40.6222C173.655 40.6222 173.505 40.6335 173.876 40.2744C174.274 39.8906 174.236 41.3511 174.265 25.4655L174.291 11.2133L174.409 11.0957L174.527 10.9779L179.086 10.9521C184.219 10.923 183.783 10.9607 184.182 10.5103C184.57 10.0713 184.559 10.2019 184.543 6.34692C184.528 2.94208 184.527 2.91257 184.416 2.70746C184.266 2.43113 184.063 2.24675 183.749 2.10289L183.489 1.9838L169.302 1.97418C157.793 1.96638 155.067 1.97723 154.863 2.03182ZM196.326 2.04314C196.128 2.10444 195.989 2.20322 195.729 2.46989C195.542 2.66073 195.315 2.94348 195.223 3.09819C195.131 3.25285 194.468 4.90301 193.75 6.76515C193.031 8.62729 190.741 14.5587 188.66 19.9462C181.276 39.0614 181.74 37.8334 181.454 39.0142C181.248 39.8609 181.334 40.2724 181.765 40.5067C181.92 40.591 182.593 40.5964 193.025 40.5964C203.457 40.5964 204.13 40.591 204.285 40.5067C204.376 40.4574 204.504 40.3411 204.571 40.2483C204.802 39.9261 204.762 39.7372 203.95 37.3399C202.452 32.9109 201.908 31.3555 201.783 31.1441C201.61 30.8497 201.415 30.6743 201.106 30.5325C200.848 30.4142 200.829 30.4133 198.139 30.3876C195.28 30.3603 195.308 30.3629 195.232 30.1232C195.213 30.0645 195.338 29.6028 195.535 29.0036C195.72 28.4428 196.157 27.1001 196.507 26.0198C197.249 23.73 198.628 19.6014 199.152 18.1007C199.664 16.6338 199.772 16.4507 199.992 16.6703C200.093 16.7705 200.748 18.689 205.375 32.4481C208.047 40.391 207.936 40.1077 208.481 40.4403L208.737 40.5964H213.402C218.037 40.5964 218.067 40.5957 218.213 40.4894C218.518 40.2663 218.616 39.8304 218.481 39.2883C218.448 39.1549 218.192 38.4715 217.912 37.7697C217.632 37.0678 217.212 35.9978 216.98 35.3919C216.747 34.786 216.257 33.511 215.891 32.5586C215.525 31.6062 215.033 30.3268 214.8 29.7156C214.566 29.1044 214.072 27.8193 213.703 26.8597C213.335 25.9003 212.731 24.3302 212.362 23.3706C211.993 22.4112 211.5 21.126 211.266 20.5147C211.032 19.9035 210.539 18.6184 210.17 17.6589C209.801 16.6994 209.197 15.1293 208.828 14.1698C208.459 13.2103 207.966 11.9251 207.732 11.3139C207.498 10.7026 207.007 9.42332 206.641 8.47092C206.274 7.51853 205.761 6.18415 205.501 5.50561C204.691 3.39675 204.344 2.6781 203.955 2.3096C203.601 1.97305 203.74 1.98483 199.989 1.97356C197.047 1.96473 196.55 1.97418 196.326 2.04314ZM225.124 2.03208C224.71 2.14285 224.424 2.42275 224.311 2.83059C224.276 2.95423 224.258 9.227 224.258 21.3455C224.258 37.8367 224.266 39.6972 224.339 39.9107C224.441 40.2096 224.719 40.498 224.972 40.5679C225.257 40.6464 233.121 40.6422 233.357 40.5634C233.621 40.4758 233.874 40.2688 233.955 40.0743C234.016 39.9287 234.028 38.2006 234.028 28.9711C234.028 21.994 234.046 17.9924 234.078 17.9078C234.142 17.7426 234.285 17.7367 234.433 17.8931C234.494 17.958 234.898 18.5918 235.332 19.3017C235.765 20.0115 236.488 21.1971 236.938 21.9362C237.389 22.6754 238.254 24.0943 238.861 25.0893C239.468 26.0844 240.543 27.8522 241.251 29.0178C241.96 30.1834 243.176 32.1838 243.954 33.4632C244.732 34.7425 245.891 36.6522 246.53 37.707C247.874 39.9255 248.122 40.2707 248.52 40.4775L248.798 40.6222H253.202C256.356 40.6222 257.656 40.6056 257.782 40.5634C258.046 40.4758 258.299 40.2688 258.38 40.0743C258.442 39.928 258.453 37.1023 258.453 21.3935C258.453 4.80479 258.444 2.86522 258.372 2.69361C258.219 2.32759 257.932 2.12326 257.424 2.016C257.235 1.97615 255.987 1.95795 253.445 1.95795C249.214 1.95795 249.366 1.94426 248.948 2.36243C248.801 2.50887 248.681 2.68792 248.642 2.81684C248.593 2.98127 248.579 5.28562 248.579 12.9577C248.579 19.2833 248.56 22.9339 248.528 23.0184C248.465 23.1829 248.321 23.1896 248.177 23.0346C248.118 22.9707 247.111 21.3948 245.94 19.5326C244.769 17.6705 243.041 14.9257 242.099 13.4332C239.475 9.27362 236.083 3.86284 235.716 3.25021C235.475 2.8492 234.957 2.29353 234.703 2.16575C234.308 1.96648 234.095 1.95785 229.673 1.96142C226.321 1.96416 225.32 1.97972 225.124 2.03208ZM263.718 2.05808C263.416 2.24256 263.367 2.47884 263.559 2.82366C263.623 2.93919 264.035 3.6581 264.474 4.4213C264.913 5.18446 265.589 6.36713 265.976 7.04944C266.364 7.73175 266.966 8.79011 267.313 9.40135C267.661 10.0126 268.269 11.0826 268.664 11.7791C269.06 12.4756 269.668 13.5456 270.016 14.1568C270.363 14.7681 270.971 15.8381 271.367 16.5346C271.762 17.2311 272.37 18.3011 272.718 18.9124C273.066 19.5236 273.674 20.5936 274.069 21.2901C274.464 21.9866 275.063 23.036 275.399 23.6222C275.734 24.2083 276.034 24.7782 276.065 24.8886C276.104 25.0277 276.122 27.3502 276.123 32.4552C276.124 39.4893 276.128 39.8305 276.22 40.0299C276.336 40.2849 276.579 40.4968 276.838 40.5683C277.104 40.6416 285.222 40.6416 285.487 40.5683C285.746 40.4968 285.99 40.2849 286.106 40.0299C286.197 39.8305 286.201 39.4911 286.202 32.5022C286.203 26.4523 286.216 25.1425 286.275 24.9477C286.314 24.8181 286.463 24.5062 286.607 24.2546C286.75 24.003 287.065 23.4482 287.306 23.0217C288.007 21.7858 289.13 19.8064 289.815 18.6022C290.163 17.991 290.771 16.921 291.167 16.2245C291.562 15.5279 292.17 14.4579 292.518 13.8467C292.865 13.2355 293.473 12.1655 293.869 11.469C294.264 10.7724 294.872 9.70244 295.22 9.09121C295.568 8.47997 296.082 7.57281 296.363 7.07529C296.644 6.57777 297.159 5.67061 297.507 5.05937C297.855 4.44813 298.214 3.81389 298.305 3.64998C298.396 3.48607 298.575 3.19966 298.703 3.01352C299.048 2.51156 299.023 2.20043 298.624 2.04169C298.436 1.96659 297.91 1.95795 293.513 1.95795C288.055 1.95795 288.261 1.94529 287.86 2.30573C287.65 2.49502 287.609 2.57136 286.865 4.15479C286.679 4.5528 286.322 5.30877 286.074 5.83472C285.576 6.88838 285.172 7.74742 284.567 9.03952C284.347 9.50861 284.02 10.2064 283.839 10.5902C283.659 10.974 283.331 11.6718 283.112 12.1409C282.713 12.9925 282.294 13.8843 281.788 14.9578C281.286 16.0243 281.143 16.0243 280.641 14.9578C280.315 14.2641 279.78 13.136 279.11 11.7274C278.512 10.4702 278.011 9.41313 277.395 8.10909C277.147 7.58314 276.773 6.79228 276.564 6.35162C276.355 5.91096 275.981 5.1201 275.733 4.59416C274.716 2.43531 274.611 2.26443 274.187 2.08036C273.976 1.98855 273.716 1.98313 268.924 1.97036C263.999 1.95723 263.88 1.95925 263.718 2.05808ZM308.602 2.04691C308.444 2.10258 308.249 2.24763 307.999 2.49584C307.704 2.78841 307.581 2.96178 307.392 3.35359C307.262 3.62367 306.442 5.69387 305.571 7.95402C304.7 10.2142 302.279 16.4829 300.193 21.8845C298.106 27.2862 295.951 32.8678 295.403 34.2881C294.395 36.9019 293.539 39.3035 293.492 39.647C293.438 40.0477 293.723 40.4522 294.14 40.5675C294.274 40.6045 297.817 40.6218 305.324 40.6219C316.234 40.6222 316.314 40.6215 316.523 40.5181C316.848 40.358 316.939 40.1966 316.96 39.7418C316.978 39.3756 316.962 39.3065 316.69 38.5788C316.373 37.7264 315.847 36.2138 314.859 33.3081C314.501 32.2562 314.152 31.299 314.082 31.181C314.013 31.063 313.849 30.8728 313.719 30.7584C313.291 30.3844 313.32 30.3876 310.409 30.3876H307.818L307.69 30.2607C307.62 30.1909 307.562 30.1009 307.562 30.0606C307.562 30.0203 307.828 29.1877 308.152 28.2103C308.476 27.2329 309.075 25.4098 309.484 24.1589C311.105 19.1929 311.882 16.9288 312.017 16.7806C312.116 16.6714 312.257 16.663 312.339 16.7616C312.396 16.8302 313.337 19.6067 318.001 33.4632C319.139 36.8463 320.119 39.7079 320.178 39.8223C320.329 40.1165 320.758 40.4999 321.013 40.568C321.159 40.6073 322.618 40.6202 325.813 40.6104L330.402 40.5964L330.595 40.4775C330.821 40.3374 331 40.0721 331 39.8762C331 39.7995 330.955 39.6278 330.9 39.4946C330.846 39.3614 330.637 38.8221 330.437 38.2962C329.704 36.3667 328.823 34.0702 326.946 29.1987C326.437 27.8767 325.829 26.295 325.595 25.6838C325.361 25.0725 324.87 23.7932 324.504 22.8408C324.138 21.8884 323.647 20.6091 323.413 19.9978C323.179 19.3866 322.683 18.0956 322.312 17.129C321.94 16.1624 321.336 14.5923 320.97 13.6399C320.604 12.6876 320.113 11.4082 319.879 10.797C319.21 9.04784 318.132 6.24747 317.791 5.36951C317.62 4.92885 317.4 4.34873 317.302 4.08035C317.111 3.55725 316.623 2.66177 316.376 2.38161C316.293 2.28738 316.129 2.15934 316.012 2.09705C315.8 1.98401 315.792 1.9838 312.318 1.97424C309.25 1.96581 308.808 1.97444 308.602 2.04691ZM87.2472 2.34522C86.9626 2.44606 86.7957 2.57994 86.6621 2.81462C86.4474 3.1918 86.4292 3.51776 86.449 6.63592C86.4656 9.25222 86.4777 9.61188 86.557 9.8465C86.6709 10.1837 86.8096 10.3573 87.0802 10.5012L87.2961 10.6161L101.113 10.6294C110.805 10.6387 114.991 10.6261 115.136 10.5873C115.413 10.5131 115.761 10.1832 115.912 9.85245L116.034 9.58226V6.35162V3.12098L115.904 2.89039C115.753 2.62073 115.523 2.45253 115.159 2.34517C114.777 2.23233 87.5656 2.23238 87.2472 2.34522ZM18.4905 14.418C18.3476 14.4412 17.9266 14.4992 17.5551 14.547C16.781 14.6465 14.789 15.1246 14.1857 15.3558C13.671 15.5529 13.4633 15.7352 13.2315 16.1929C12.4499 17.7367 12.1503 19.609 12.436 21.1648C12.6396 22.2736 12.7325 22.479 13.0307 22.479C13.1201 22.479 13.5784 22.3506 14.049 22.1936C15.401 21.7428 16.8964 21.41 18.1527 21.2804C18.9804 21.195 20.9311 21.1694 21.5046 21.2363C23.3744 21.4547 24.3443 21.6535 25.6913 22.0945C26.2504 22.2775 26.7686 22.4273 26.8429 22.4273C27.1131 22.4273 27.2939 22.068 27.5842 20.9541C27.6286 20.7835 27.6863 20.3868 27.7124 20.0725C27.7384 19.7583 27.7763 19.4352 27.7967 19.3546C27.8734 19.0505 27.6228 17.3904 27.3988 16.7198C27.1968 16.1145 27.0034 15.7648 26.7931 15.6244C26.5464 15.4596 25.5722 15.1296 24.6227 14.889C23.8563 14.6949 23.1404 14.5628 22.0763 14.4191C21.6025 14.3551 18.8835 14.3543 18.4905 14.418ZM87.2472 17.3352C86.9265 17.4492 86.7886 17.5749 86.6205 17.9067L86.4646 18.2145V28.8627C86.4646 39.0511 86.4687 39.5242 86.5601 39.8187C86.6748 40.1884 86.9439 40.4814 87.2453 40.5646C87.5334 40.6442 114.856 40.6459 115.143 40.5664C115.416 40.4911 115.763 40.1597 115.912 39.8328L116.034 39.5626L116.05 36.4612C116.062 34.2548 116.049 33.3001 116.007 33.153C115.909 32.8099 115.711 32.5731 115.391 32.417L115.099 32.2743L105.993 32.2484L96.8871 32.2226L96.7687 32.1048L96.6504 31.9871V28.9403V25.8934L96.7687 25.7757L96.8871 25.6579L106.019 25.6321C114.411 25.6084 115.164 25.5993 115.307 25.5202C115.542 25.3902 115.781 25.1191 115.915 24.8309L116.034 24.5724L116.05 21.471C116.062 19.2647 116.049 18.31 116.007 18.1628C115.909 17.8198 115.711 17.5829 115.391 17.4268L115.099 17.2841L101.275 17.2733C89.5002 17.264 87.4217 17.2732 87.2472 17.3352ZM18.1007 26.6202C16.2817 26.8721 15.869 26.9518 14.9316 27.2323C12.0708 28.0882 9.59965 29.4239 7.30973 31.352C6.5987 31.9506 6.21502 32.3679 6.17012 32.5912C6.13473 32.767 6.27172 32.9894 6.92802 33.8215C8.12666 35.3412 9.63218 36.7215 11.3073 37.8364C12.0614 38.3383 12.2656 38.4513 12.4186 38.4513C12.5889 38.4513 12.6685 38.3903 13.2877 37.786C14.2824 36.815 15.1215 36.2963 16.4231 35.8476C17.0919 35.6171 17.6273 35.5129 18.5165 35.4403C20.3771 35.2883 22.3345 35.4829 23.7664 35.9622C24.9391 36.3547 25.6202 36.7719 26.5108 37.6433C27.6183 38.7269 28.1277 39.4329 28.7601 40.76C28.9339 41.1249 29.1896 41.6612 29.328 41.9517C29.5196 42.3534 29.6456 42.5423 29.854 42.74L30.128 43H30.5894C30.9572 43 31.0786 42.9803 31.1887 42.9029C31.2645 42.8494 32.5309 42.3461 34.0029 41.7842C35.4749 41.2225 36.7912 40.7071 36.928 40.639C37.4851 40.3617 37.7933 39.9409 37.7955 39.4546C37.8005 38.2894 36.3925 35.5109 34.7987 33.5407C33.7 32.1825 33.0759 31.5744 31.7875 30.6064C30.1424 29.3704 27.952 28.217 25.9802 27.5485C24.5785 27.0733 23.2572 26.7798 21.9723 26.6583C21.2192 26.5872 18.5306 26.5606 18.1007 26.6202Z" fill="white"/>
</svg>
