<svg xmlns="http://www.w3.org/2000/svg" width="240.572" height="55.871" viewBox="0 0 240.572 55.871">
  <g id="Group_90" data-name="Group 90" transform="translate(-73.606 -97.955)">
    <g id="Group_89" data-name="Group 89" transform="translate(73.607 97.955)">
      <g id="Group_83" data-name="Group 83" transform="translate(0)">
        <path id="Path_1050" data-name="Path 1050" d="M514.867,7211.76a6.461,6.461,0,0,0,.39,2.385,4.512,4.512,0,0,0,1.028,1.6,3.882,3.882,0,0,0,1.485.9,5.47,5.47,0,0,0,1.76.285,4.865,4.865,0,0,0,1.8-.333,4.173,4.173,0,0,0,1.484-.988,4.716,4.716,0,0,0,1.009-1.625,6.194,6.194,0,0,0,.371-2.224v-16.12a.82.82,0,0,1,.237-.589.841.841,0,0,1,.636-.247h5.546a.906.906,0,0,1,.684.256.816.816,0,0,1,.247.58v16.01a14.07,14.07,0,0,1-.978,5.583,9.586,9.586,0,0,1-2.63,3.637,10.073,10.073,0,0,1-3.827,1.976,17.161,17.161,0,0,1-4.568.6,16.765,16.765,0,0,1-4.577-.617,10.132,10.132,0,0,1-3.837-2.013,9.773,9.773,0,0,1-2.63-3.646,13.826,13.826,0,0,1-.978-5.517v-16.01a.87.87,0,0,1,.218-.58.68.68,0,0,1,.54-.256h5.683a1,1,0,0,1,.6.238.723.723,0,0,1,.313.6Z" transform="translate(-474.171 -7193.341)" fill="#1a1818"/>
        <g id="Group_79" data-name="Group 79" transform="translate(62.878 1.68)">
          <path id="Path_1051" data-name="Path 1051" d="M664.117,7195.8a.882.882,0,0,1,.589.209.776.776,0,0,1,.247.627v4.3a1.071,1.071,0,0,1-.228.607.709.709,0,0,1-.608.324H644.338q-.836,0-.836-.931v-4.3a.739.739,0,0,1,.836-.836Z" transform="translate(-643.502 -7195.804)" fill="#1a1818"/>
        </g>
        <g id="Group_80" data-name="Group 80" transform="translate(62.878 12.641)">
          <path id="Path_1052" data-name="Path 1052" d="M643.522,7247.044a.853.853,0,0,1,.2-.5.727.727,0,0,1,.526-.243A.7.7,0,0,0,643.522,7247.044Z" transform="translate(-643.518 -7246.292)" fill="#1a1818"/>
          <path id="Path_1053" data-name="Path 1053" d="M650.851,7252.34v4.9h13.265a.87.87,0,0,1,.588.21.771.771,0,0,1,.248.625v4.3a1.067,1.067,0,0,1-.228.606.7.7,0,0,1-.608.324H644.338q-.837,0-.836-.93v-15.259a.555.555,0,0,1,0-.084.852.852,0,0,1,.2-.5.725.725,0,0,1,.526-.243.7.7,0,0,1,.1,0h19.778a.876.876,0,0,1,.588.209.774.774,0,0,1,.248.627v4.3a1.065,1.065,0,0,1-.228.607.709.709,0,0,1-.608.324Z" transform="translate(-643.502 -7246.276)" fill="#1a1818"/>
        </g>
        <path id="Path_1054" data-name="Path 1054" d="M759.223,7211.7q.323.267.826.712a11.085,11.085,0,0,0,1.149.883,9.621,9.621,0,0,0,1.918,1.006,5.561,5.561,0,0,0,1.994.361,5.211,5.211,0,0,0,1.624-.218,2.736,2.736,0,0,0,1.035-.579,2.052,2.052,0,0,0,.541-.834,3.108,3.108,0,0,0,.162-1.006,1.481,1.481,0,0,0-.446-1.053,4.63,4.63,0,0,0-1.092-.826,9.327,9.327,0,0,0-1.348-.617q-.7-.256-1.216-.427a27.822,27.822,0,0,1-3.988-1.717,12.312,12.312,0,0,1-2.849-2.049,7.375,7.375,0,0,1-2.279-5.513,7.144,7.144,0,0,1,.712-3.207A7.044,7.044,0,0,1,758,7194.15a9.666,9.666,0,0,1,3.181-1.584,14.417,14.417,0,0,1,4.159-.56,13.867,13.867,0,0,1,3.314.389,12.629,12.629,0,0,1,3.124,1.244q.645.38,1.225.788a12.785,12.785,0,0,1,1.016.789,4.784,4.784,0,0,1,.693.722,1.05,1.05,0,0,1,.257.588.882.882,0,0,1-.123.456,2.878,2.878,0,0,1-.37.475l-2.906,3.1a.931.931,0,0,1-.646.323.827.827,0,0,1-.484-.152,6,6,0,0,1-.484-.38l-.171-.152q-.38-.322-.845-.665a7.535,7.535,0,0,0-1-.617,6.78,6.78,0,0,0-1.121-.456,4.067,4.067,0,0,0-1.2-.18,6.345,6.345,0,0,0-1.178.1,3.3,3.3,0,0,0-.969.332,1.843,1.843,0,0,0-.665.6,1.749,1.749,0,0,0,.019,1.823,2.631,2.631,0,0,0,.8.722,7.328,7.328,0,0,0,1.32.626q.788.294,1.833.636,2.013.665,3.713,1.4a12.507,12.507,0,0,1,2.934,1.728,7.141,7.141,0,0,1,1.928,2.384,7.454,7.454,0,0,1,.693,3.361,8.313,8.313,0,0,1-.855,3.789,8.658,8.658,0,0,1-2.345,2.9,10.957,10.957,0,0,1-3.5,1.852,13.907,13.907,0,0,1-4.33.655,12.283,12.283,0,0,1-4.292-.781,16.459,16.459,0,0,1-3.931-2.1,10.167,10.167,0,0,1-1.282-1.085q-.523-.533-.826-.857l-.057-.057a.105.105,0,0,0-.038-.048.136.136,0,0,1-.038-.029.106.106,0,0,0-.038-.047.149.149,0,0,1-.038-.028,1.332,1.332,0,0,1-.437-.762,1.08,1.08,0,0,1,.437-.724l3.286-3.134a1.236,1.236,0,0,1,.646-.285.7.7,0,0,1,.361.114A3.569,3.569,0,0,1,759.223,7211.7Z" transform="translate(-667.154 -7191.151)" fill="#1a1818"/>
        <path id="Path_1055" data-name="Path 1055" d="M869.209,7195.638a.771.771,0,0,1,.257-.606.927.927,0,0,1,.636-.227h20.435a.96.96,0,0,1,.608.208.849.849,0,0,1,.3.625v4.715a1.066,1.066,0,0,1-.237.653.8.8,0,0,1-.674.313h-6.552v20.8a.9.9,0,0,1-.246.618.822.822,0,0,1-.644.276h-5.569a.893.893,0,0,1-.606-.257.824.824,0,0,1-.284-.637v-20.8H870.1a.883.883,0,0,1-.636-.246.952.952,0,0,1-.257-.72Z" transform="translate(-757.313 -7193.341)" fill="#1a1818"/>
        <path id="Path_1056" data-name="Path 1056" d="M1363.62,7222.477a.46.46,0,0,1-.221.43.524.524,0,0,1-.093.043c-.028.011-.059.019-.091.028a1.349,1.349,0,0,1-.3.03H1356.8a.985.985,0,0,1-.988-.721L1350.023,7205q-.779,2.166-1.492,4.319t-1.405,4.322q-.332,1.045-.673,2.089,1.8-.1,3.625-.171a1.019,1.019,0,0,1,1.058.7l2.23,5.551a.915.915,0,0,1,.08.632.551.551,0,0,1-.328.328.774.774,0,0,1-.2.059l-.052.022-9.527.145h-.013l-.471.007H1337.2a.938.938,0,0,1-.619-.161.522.522,0,0,1-.154-.243.716.716,0,0,1-.024-.185.855.855,0,0,1,.017-.208v-.057l9.8-25.507c.063-.178.139-.374.228-.588.043-.108.091-.211.141-.311a0,0,0,0,1,0,0c.05-.1.1-.193.159-.285a1.991,1.991,0,0,1,.289-.365c.037-.037.074-.069.111-.1a.84.84,0,0,1,.2-.124,1.044,1.044,0,0,1,.111-.04l.074-.017a1.3,1.3,0,0,1,.13-.008h4.691a1.468,1.468,0,0,1,.269.023s0,0,0,0a.745.745,0,0,1,.389.2.631.631,0,0,1,.12.175q.156.254.287.521c.028.061.056.12.082.18.054.122.109.244.161.365s.1.247.154.375l9.742,25.507a.46.46,0,0,0,.028.169A.43.43,0,0,1,1363.62,7222.477Z" transform="translate(-1123.048 -7193.343)" fill="#fff"/>
        <path id="Path_1057" data-name="Path 1057" d="M1385.766,7265.978q.694-2.167,1.405-4.322Q1386.461,7263.813,1385.766,7265.978Z" transform="translate(-1161.688 -7245.674)" fill="#1a1818"/>
        <path id="Path_1058" data-name="Path 1058" d="M1392.479,7194.8a1.252,1.252,0,0,1,.267.026,1.467,1.467,0,0,0-.269-.024h-4.691a1.294,1.294,0,0,0-.13.009.9.9,0,0,1,.132-.011Z" transform="translate(-1163.168 -7193.334)" fill="#1a1818"/>
        <path id="Path_1059" data-name="Path 1059" d="M1411.106,7194.916a.726.726,0,0,1,.389.2A.745.745,0,0,0,1411.106,7194.916Z" transform="translate(-1181.525 -7193.429)" fill="#1a1818"/>
        <path id="Path_1060" data-name="Path 1060" d="M1415.009,7199.591c-.052-.122-.106-.243-.161-.365-.026-.061-.054-.119-.083-.181.03.062.056.12.085.181C1414.905,7199.345,1414.957,7199.467,1415.009,7199.591Z" transform="translate(-1184.39 -7196.661)" fill="#1a1818"/>
        <path id="Path_1061" data-name="Path 1061" d="M1104.674,7195.64a.882.882,0,0,1,.209-.589.776.776,0,0,1,.627-.247h6.21a1.3,1.3,0,0,1,.551.133,1.2,1.2,0,0,1,.494.456q2.412,3.894,4.786,7.673t4.8,7.672v-15.212a.926.926,0,0,1,.3-.532.807.807,0,0,1,.532-.19h5.413a1.011,1.011,0,0,1,.665.219.754.754,0,0,1,.266.617v26.626a.671.671,0,0,1-.228.56.982.982,0,0,1-.627.181h-6.058a.633.633,0,0,1-.437-.171,3.031,3.031,0,0,1-.4-.456l-4.995-8.262q-2.469-4.083-5.014-8.261v16.314a.728.728,0,0,1-.874.835h-5.394a.786.786,0,0,1-.636-.237.872.872,0,0,1-.2-.58Z" transform="translate(-941.642 -7193.341)" fill="#1a1818"/>
        <path id="Path_1062" data-name="Path 1062" d="M1248.617,7205.211l4.586-9.818a2.452,2.452,0,0,1,.19-.333.571.571,0,0,1,.152-.152.384.384,0,0,1,.161-.057.983.983,0,0,0,.2-.047h7.312a.3.3,0,0,1,.219.085.273.273,0,0,1,.085.2.733.733,0,0,1-.266.475l-9,15.934v10.617a.78.78,0,0,1-.871.893H1245.7a.74.74,0,0,1-.587-.237.958.958,0,0,1-.208-.655V7211.46l-8.983-15.9a.7.7,0,0,1-.247-.475.289.289,0,0,1,.076-.2.264.264,0,0,1,.209-.085h7.312a1.477,1.477,0,0,0,.209.047.383.383,0,0,1,.152.057.59.59,0,0,1,.152.152c.05.07.12.18.209.333Z" transform="translate(-1044.192 -7193.341)" fill="#1a1818"/>
        <path id="Path_1063" data-name="Path 1063" d="M1343.176,7321.793c.048,0,.1,0,.139-.006l-.471.006Zm-6.761-.8a.745.745,0,0,0-.02.209.622.622,0,0,0,.026.184.714.714,0,0,1-.024-.184A.865.865,0,0,1,1336.416,7321Z" transform="translate(-1123.04 -7292.128)" fill="#1a1818"/>
        <g id="Group_82" data-name="Group 82" transform="translate(0 0)">
          <g id="Group_81" data-name="Group 81">
            <path id="Path_1064" data-name="Path 1064" d="M382.5,7198.75a15,15,0,0,0-1.464-3.475,14.262,14.262,0,0,0-2.269-2.954,14.493,14.493,0,0,0-2.947-2.27,14.79,14.79,0,0,0-3.477-1.461,14.512,14.512,0,0,0-7.725,0,14.8,14.8,0,0,0-3.468,1.461,14.193,14.193,0,0,0-2.936,2.27,14.738,14.738,0,0,0-2.272,2.954,14.691,14.691,0,0,0-1.464,11.206,14.187,14.187,0,0,0,1.464,3.456c.167.282.343.56.53.83l.3-.328a14.47,14.47,0,0,1,1.227-1.188,16.085,16.085,0,0,1,3.218-2.122c.043-.022.091-.046.139-.067l.119-.063c.289-.146.582-.283.873-.409a7.5,7.5,0,0,1-.5-1.049,8.385,8.385,0,0,1,0-5.878,7.369,7.369,0,0,1,1.488-2.4,7.092,7.092,0,0,1,10.318,0,7.374,7.374,0,0,1,1.49,2.4,8.373,8.373,0,0,1,.02,5.822.5.5,0,0,1-.02.057,7.459,7.459,0,0,1-.51,1.062c.235.1.467.2.7.315.041.022.087.043.13.065s.087.041.13.063c.178.085.354.174.526.265a15.832,15.832,0,0,1,2.721,1.8,14.48,14.48,0,0,1,1.679,1.646c.182-.267.354-.543.519-.823a14.105,14.105,0,0,0,1.049-2.2c.156-.408.293-.827.415-1.257a14.537,14.537,0,0,0,0-7.731Z" transform="translate(-353.97 -7188.068)" fill="#1a1818"/>
          </g>
          <path id="Path_1065" data-name="Path 1065" d="M397.2,7287.2a.875.875,0,0,1-.31.356,2.214,2.214,0,0,1-.251.14c-.086.043-.184.085-.291.127l-.809.312-3.154,1.211a.932.932,0,0,1-.721.011.825.825,0,0,1-.37-.348c-.087-.155-.179-.34-.271-.553l-.088-.212c-.1-.232-.22-.478-.35-.733-.04-.077-.08-.154-.122-.232a7.412,7.412,0,0,0-.629-.989c-.005,0-.007-.01-.012-.015a10.353,10.353,0,0,0-1.373-1.327,5.859,5.859,0,0,0-1.793-.806,8.483,8.483,0,0,0-2.043-.269,11.315,11.315,0,0,0-1.968.083,5.769,5.769,0,0,0-1.342.392,5.6,5.6,0,0,0-1.715,1.089,6.337,6.337,0,0,0-.691.771,13.9,13.9,0,0,1-2.276-1.624,14.215,14.215,0,0,1-2.426-2.734,11.608,11.608,0,0,1,1.037-1,13.92,13.92,0,0,1,2.787-1.835c.041-.021.086-.043.129-.062s.087-.045.129-.068a13.956,13.956,0,0,1,1.884-.785,12.908,12.908,0,0,1,1.252-.354,12.684,12.684,0,0,1,3.35-.289c.087,0,.173.011.258.021a12.244,12.244,0,0,1,2.059.252,13.914,13.914,0,0,1,3.153,1.092c.043.021.088.043.13.065s.089.04.132.062c.152.073.3.149.452.228a13.831,13.831,0,0,1,2.363,1.564,12.66,12.66,0,0,1,2.271,2.479c.224.335.43.667.62,1,.048.081.1.162.14.244a12.233,12.233,0,0,1,.572,1.152,4.936,4.936,0,0,1,.312.951A1.066,1.066,0,0,1,397.2,7287.2Z" transform="translate(-369.8 -7258.025)" fill="#1a1818"/>
        </g>
        <path id="Path_1066" data-name="Path 1066" d="M987.964,7222.473c-.009.347-.257.532-.684.532h-6.116a.985.985,0,0,1-.988-.721L974.384,7205q-.779,2.163-1.492,4.32t-1.405,4.322c-.222.7-.625,1.938-.625,1.938l3.921-.021a1.019,1.019,0,0,1,1.058.7l1.948,5.73a.914.914,0,0,1,.08.632.55.55,0,0,1-.328.329.558.558,0,0,1-.167.052H961.7a.93.93,0,0,1-.617-.161.561.561,0,0,1-.177-.388,10.917,10.917,0,0,1,.54-2.021l.513-1.336.512-1.333.4-1.042.18-.468,3.1-8.063,2.984-7.769,1.453-3.778c.063-.179.139-.374.228-.589a3.966,3.966,0,0,1,.3-.6,1.86,1.86,0,0,1,.4-.465.787.787,0,0,1,.515-.19h4.691a.775.775,0,0,1,.777.4,6.393,6.393,0,0,1,.371.7c.106.239.211.487.313.741l.237.621.649,1.7.966,2.53,1.19,3.115,1.319,3.454,1.354,3.546,1.3,3.393,1.143,2.993.9,2.346a15.116,15.116,0,0,1,.7,1.881A.99.99,0,0,1,987.964,7222.473Z" transform="translate(-829.095 -7193.339)" fill="#1a1818"/>
        <path id="Path_1067" data-name="Path 1067" d="M1363.821,7222.473c-.009.347-.257.532-.684.532h-6.115a.985.985,0,0,1-.988-.721L1350.241,7205q-.779,2.163-1.492,4.32t-1.405,4.322c-.222.7-.625,1.938-.625,1.938l3.921-.021a1.019,1.019,0,0,1,1.058.7l1.948,5.73a.914.914,0,0,1,.08.632.55.55,0,0,1-.328.329.556.556,0,0,1-.166.052h-15.676a.93.93,0,0,1-.617-.161.559.559,0,0,1-.178-.388,10.921,10.921,0,0,1,.54-2.021l.513-1.336.512-1.333.4-1.042.18-.468,3.1-8.063,2.984-7.769,1.453-3.778c.063-.179.139-.374.228-.589a3.983,3.983,0,0,1,.3-.6,1.865,1.865,0,0,1,.4-.465.787.787,0,0,1,.515-.19h4.691a.775.775,0,0,1,.778.4,6.372,6.372,0,0,1,.371.7c.106.239.211.487.313.741l.237.621.649,1.7.966,2.53,1.19,3.115,1.319,3.454,1.354,3.546,1.3,3.393,1.143,2.993.9,2.346a15.088,15.088,0,0,1,.7,1.881A.982.982,0,0,1,1363.821,7222.473Z" transform="translate(-1123.327 -7193.339)" fill="#1a1818"/>
        <path id="Path_1068" data-name="Path 1068" d="M401.411,7229.429c1.147-1.724,3.521-2.281,6.241-1.342A8.374,8.374,0,0,0,401.411,7229.429Z" transform="translate(-391.108 -7219.042)" fill="#fff"/>
        <path id="Path_1069" data-name="Path 1069" d="M405.9,7242.236h-.053a13.652,13.652,0,0,0-10.131-.011c-.034.058-.068.118-.1.178H395.6c-.045-.108-.085-.22-.122-.333a5.351,5.351,0,0,1-.185-.746,5.681,5.681,0,0,1-.069-1.4,5.892,5.892,0,0,1,.233-1.281h0a6.634,6.634,0,0,1,.361-.942c.085-.18.175-.354.273-.521a13.015,13.015,0,0,1,9.74.046,5.188,5.188,0,0,1,.334.8c.046.145.087.291.12.437a5.733,5.733,0,0,1,.13,1.727,5.877,5.877,0,0,1-.144.934A6.258,6.258,0,0,1,405.9,7242.236Z" transform="translate(-386.255 -7225.788)" fill="#fff"/>
      </g>
      <g id="Group_88" data-name="Group 88" transform="translate(0)">
        <path id="Path_1070" data-name="Path 1070" d="M514.867,7211.76a6.461,6.461,0,0,0,.39,2.385,4.512,4.512,0,0,0,1.028,1.6,3.882,3.882,0,0,0,1.485.9,5.47,5.47,0,0,0,1.76.285,4.865,4.865,0,0,0,1.8-.333,4.173,4.173,0,0,0,1.484-.988,4.716,4.716,0,0,0,1.009-1.625,6.194,6.194,0,0,0,.371-2.224v-16.12a.82.82,0,0,1,.237-.589.841.841,0,0,1,.636-.247h5.546a.906.906,0,0,1,.684.256.816.816,0,0,1,.247.58v16.01a14.07,14.07,0,0,1-.978,5.583,9.586,9.586,0,0,1-2.63,3.637,10.073,10.073,0,0,1-3.827,1.976,17.161,17.161,0,0,1-4.568.6,16.765,16.765,0,0,1-4.577-.617,10.132,10.132,0,0,1-3.837-2.013,9.773,9.773,0,0,1-2.63-3.646,13.826,13.826,0,0,1-.978-5.517v-16.01a.87.87,0,0,1,.218-.58.68.68,0,0,1,.54-.256h5.683a1,1,0,0,1,.6.238.723.723,0,0,1,.313.6Z" transform="translate(-474.171 -7193.341)" fill="#fff"/>
        <g id="Group_84" data-name="Group 84" transform="translate(62.878 1.68)">
          <path id="Path_1071" data-name="Path 1071" d="M664.117,7195.8a.882.882,0,0,1,.589.209.776.776,0,0,1,.247.627v4.3a1.071,1.071,0,0,1-.228.607.709.709,0,0,1-.608.324H644.338q-.836,0-.836-.931v-4.3a.739.739,0,0,1,.836-.836Z" transform="translate(-643.502 -7195.804)" fill="#fff"/>
        </g>
        <g id="Group_85" data-name="Group 85" transform="translate(62.878 12.641)">
          <path id="Path_1072" data-name="Path 1072" d="M643.522,7247.044a.853.853,0,0,1,.2-.5.727.727,0,0,1,.526-.243A.7.7,0,0,0,643.522,7247.044Z" transform="translate(-643.518 -7246.292)" fill="#fff"/>
          <path id="Path_1073" data-name="Path 1073" d="M650.851,7252.34v4.9h13.265a.87.87,0,0,1,.588.21.771.771,0,0,1,.248.625v4.3a1.067,1.067,0,0,1-.228.606.7.7,0,0,1-.608.324H644.338q-.837,0-.836-.93v-15.259a.555.555,0,0,1,0-.084.852.852,0,0,1,.2-.5.725.725,0,0,1,.526-.243.7.7,0,0,1,.1,0h19.778a.876.876,0,0,1,.588.209.774.774,0,0,1,.248.627v4.3a1.065,1.065,0,0,1-.228.607.709.709,0,0,1-.608.324Z" transform="translate(-643.502 -7246.276)" fill="#fff"/>
        </g>
        <path id="Path_1074" data-name="Path 1074" d="M759.223,7211.7q.323.267.826.712a11.085,11.085,0,0,0,1.149.883,9.621,9.621,0,0,0,1.918,1.006,5.561,5.561,0,0,0,1.994.361,5.211,5.211,0,0,0,1.624-.218,2.736,2.736,0,0,0,1.035-.579,2.052,2.052,0,0,0,.541-.834,3.108,3.108,0,0,0,.162-1.006,1.481,1.481,0,0,0-.446-1.053,4.63,4.63,0,0,0-1.092-.826,9.327,9.327,0,0,0-1.348-.617q-.7-.256-1.216-.427a27.822,27.822,0,0,1-3.988-1.717,12.312,12.312,0,0,1-2.849-2.049,7.375,7.375,0,0,1-2.279-5.513,7.144,7.144,0,0,1,.712-3.207A7.044,7.044,0,0,1,758,7194.15a9.666,9.666,0,0,1,3.181-1.584,14.417,14.417,0,0,1,4.159-.56,13.867,13.867,0,0,1,3.314.389,12.629,12.629,0,0,1,3.124,1.244q.645.38,1.225.788a12.785,12.785,0,0,1,1.016.789,4.784,4.784,0,0,1,.693.722,1.05,1.05,0,0,1,.257.588.882.882,0,0,1-.123.456,2.878,2.878,0,0,1-.37.475l-2.906,3.1a.931.931,0,0,1-.646.323.827.827,0,0,1-.484-.152,6,6,0,0,1-.484-.38l-.171-.152q-.38-.322-.845-.665a7.535,7.535,0,0,0-1-.617,6.78,6.78,0,0,0-1.121-.456,4.067,4.067,0,0,0-1.2-.18,6.345,6.345,0,0,0-1.178.1,3.3,3.3,0,0,0-.969.332,1.843,1.843,0,0,0-.665.6,1.749,1.749,0,0,0,.019,1.823,2.631,2.631,0,0,0,.8.722,7.328,7.328,0,0,0,1.32.626q.788.294,1.833.636,2.013.665,3.713,1.4a12.507,12.507,0,0,1,2.934,1.728,7.141,7.141,0,0,1,1.928,2.384,7.454,7.454,0,0,1,.693,3.361,8.313,8.313,0,0,1-.855,3.789,8.658,8.658,0,0,1-2.345,2.9,10.957,10.957,0,0,1-3.5,1.852,13.907,13.907,0,0,1-4.33.655,12.283,12.283,0,0,1-4.292-.781,16.459,16.459,0,0,1-3.931-2.1,10.167,10.167,0,0,1-1.282-1.085q-.523-.533-.826-.857l-.057-.057a.105.105,0,0,0-.038-.048.136.136,0,0,1-.038-.029.106.106,0,0,0-.038-.047.149.149,0,0,1-.038-.028,1.332,1.332,0,0,1-.437-.762,1.08,1.08,0,0,1,.437-.724l3.286-3.134a1.236,1.236,0,0,1,.646-.285.7.7,0,0,1,.361.114A3.569,3.569,0,0,1,759.223,7211.7Z" transform="translate(-667.154 -7191.151)" fill="#fff"/>
        <path id="Path_1075" data-name="Path 1075" d="M869.209,7195.638a.771.771,0,0,1,.257-.606.927.927,0,0,1,.636-.227h20.435a.96.96,0,0,1,.608.208.849.849,0,0,1,.3.625v4.715a1.066,1.066,0,0,1-.237.653.8.8,0,0,1-.674.313h-6.552v20.8a.9.9,0,0,1-.246.618.822.822,0,0,1-.644.276h-5.569a.893.893,0,0,1-.606-.257.824.824,0,0,1-.284-.637v-20.8H870.1a.883.883,0,0,1-.636-.246.952.952,0,0,1-.257-.72Z" transform="translate(-757.313 -7193.341)" fill="#fff"/>
        <path id="Path_1076" data-name="Path 1076" d="M1363.62,7222.477a.46.46,0,0,1-.221.43.524.524,0,0,1-.093.043c-.028.011-.059.019-.091.028a1.349,1.349,0,0,1-.3.03H1356.8a.985.985,0,0,1-.988-.721L1350.023,7205q-.779,2.166-1.492,4.319t-1.405,4.322q-.332,1.045-.673,2.089,1.8-.1,3.625-.171a1.019,1.019,0,0,1,1.058.7l2.23,5.551a.915.915,0,0,1,.08.632.551.551,0,0,1-.328.328.774.774,0,0,1-.2.059l-.052.022-9.527.145h-.013l-.471.007H1337.2a.938.938,0,0,1-.619-.161.522.522,0,0,1-.154-.243.716.716,0,0,1-.024-.185.855.855,0,0,1,.017-.208v-.057l9.8-25.507c.063-.178.139-.374.228-.588.043-.108.091-.211.141-.311a0,0,0,0,1,0,0c.05-.1.1-.193.159-.285a1.991,1.991,0,0,1,.289-.365c.037-.037.074-.069.111-.1a.84.84,0,0,1,.2-.124,1.044,1.044,0,0,1,.111-.04l.074-.017a1.3,1.3,0,0,1,.13-.008h4.691a1.468,1.468,0,0,1,.269.023s0,0,0,0a.745.745,0,0,1,.389.2.631.631,0,0,1,.12.175q.156.254.287.521c.028.061.056.12.082.18.054.122.109.244.161.365s.1.247.154.375l9.742,25.507a.46.46,0,0,0,.028.169A.43.43,0,0,1,1363.62,7222.477Z" transform="translate(-1123.048 -7193.343)" fill="#fff"/>
        <path id="Path_1077" data-name="Path 1077" d="M1385.766,7265.978q.694-2.167,1.405-4.322Q1386.461,7263.813,1385.766,7265.978Z" transform="translate(-1161.688 -7245.674)" fill="#fff"/>
        <path id="Path_1078" data-name="Path 1078" d="M1392.479,7194.8a1.252,1.252,0,0,1,.267.026,1.467,1.467,0,0,0-.269-.024h-4.691a1.294,1.294,0,0,0-.13.009.9.9,0,0,1,.132-.011Z" transform="translate(-1163.168 -7193.334)" fill="#fff"/>
        <path id="Path_1079" data-name="Path 1079" d="M1411.106,7194.916a.726.726,0,0,1,.389.2A.745.745,0,0,0,1411.106,7194.916Z" transform="translate(-1181.525 -7193.429)" fill="#fff"/>
        <path id="Path_1080" data-name="Path 1080" d="M1415.009,7199.591c-.052-.122-.106-.243-.161-.365-.026-.061-.054-.119-.083-.181.03.062.056.12.085.181C1414.905,7199.345,1414.957,7199.467,1415.009,7199.591Z" transform="translate(-1184.39 -7196.661)" fill="#fff"/>
        <path id="Path_1081" data-name="Path 1081" d="M1104.674,7195.64a.882.882,0,0,1,.209-.589.776.776,0,0,1,.627-.247h6.21a1.3,1.3,0,0,1,.551.133,1.2,1.2,0,0,1,.494.456q2.412,3.894,4.786,7.673t4.8,7.672v-15.212a.926.926,0,0,1,.3-.532.807.807,0,0,1,.532-.19h5.413a1.011,1.011,0,0,1,.665.219.754.754,0,0,1,.266.617v26.626a.671.671,0,0,1-.228.56.982.982,0,0,1-.627.181h-6.058a.633.633,0,0,1-.437-.171,3.031,3.031,0,0,1-.4-.456l-4.995-8.262q-2.469-4.083-5.014-8.261v16.314a.728.728,0,0,1-.874.835h-5.394a.786.786,0,0,1-.636-.237.872.872,0,0,1-.2-.58Z" transform="translate(-941.642 -7193.341)" fill="#fff"/>
        <path id="Path_1082" data-name="Path 1082" d="M1248.617,7205.211l4.586-9.818a2.452,2.452,0,0,1,.19-.333.571.571,0,0,1,.152-.152.384.384,0,0,1,.161-.057.983.983,0,0,0,.2-.047h7.312a.3.3,0,0,1,.219.085.273.273,0,0,1,.085.2.733.733,0,0,1-.266.475l-9,15.934v10.617a.78.78,0,0,1-.871.893H1245.7a.74.74,0,0,1-.587-.237.958.958,0,0,1-.208-.655V7211.46l-8.983-15.9a.7.7,0,0,1-.247-.475.289.289,0,0,1,.076-.2.264.264,0,0,1,.209-.085h7.312a1.477,1.477,0,0,0,.209.047.383.383,0,0,1,.152.057.59.59,0,0,1,.152.152c.05.07.12.18.209.333Z" transform="translate(-1044.192 -7193.341)" fill="#fff"/>
        <path id="Path_1083" data-name="Path 1083" d="M1343.176,7321.793c.048,0,.1,0,.139-.006l-.471.006Zm-6.761-.8a.745.745,0,0,0-.02.209.622.622,0,0,0,.026.184.714.714,0,0,1-.024-.184A.865.865,0,0,1,1336.416,7321Z" transform="translate(-1123.04 -7292.128)" fill="#fff"/>
        <g id="Group_87" data-name="Group 87" transform="translate(0 0)">
          <g id="Group_86" data-name="Group 86">
            <path id="Path_1084" data-name="Path 1084" d="M382.5,7198.75a15,15,0,0,0-1.464-3.475,14.262,14.262,0,0,0-2.269-2.954,14.493,14.493,0,0,0-2.947-2.27,14.79,14.79,0,0,0-3.477-1.461,14.512,14.512,0,0,0-7.725,0,14.8,14.8,0,0,0-3.468,1.461,14.193,14.193,0,0,0-2.936,2.27,14.738,14.738,0,0,0-2.272,2.954,14.691,14.691,0,0,0-1.464,11.206,14.187,14.187,0,0,0,1.464,3.456c.167.282.343.56.53.83l.3-.328a14.47,14.47,0,0,1,1.227-1.188,16.085,16.085,0,0,1,3.218-2.122c.043-.022.091-.046.139-.067l.119-.063c.289-.146.582-.283.873-.409a7.5,7.5,0,0,1-.5-1.049,8.385,8.385,0,0,1,0-5.878,7.369,7.369,0,0,1,1.488-2.4,7.092,7.092,0,0,1,10.318,0,7.374,7.374,0,0,1,1.49,2.4,8.373,8.373,0,0,1,.02,5.822.5.5,0,0,1-.02.057,7.459,7.459,0,0,1-.51,1.062c.235.1.467.2.7.315.041.022.087.043.13.065s.087.041.13.063c.178.085.354.174.526.265a15.832,15.832,0,0,1,2.721,1.8,14.48,14.48,0,0,1,1.679,1.646c.182-.267.354-.543.519-.823a14.105,14.105,0,0,0,1.049-2.2c.156-.408.293-.827.415-1.257a14.537,14.537,0,0,0,0-7.731Z" transform="translate(-353.97 -7188.068)" fill="#fff"/>
          </g>
          <path id="Path_1085" data-name="Path 1085" d="M397.2,7287.2a.875.875,0,0,1-.31.356,2.214,2.214,0,0,1-.251.14c-.086.043-.184.085-.291.127l-.809.312-3.154,1.211a.932.932,0,0,1-.721.011.825.825,0,0,1-.37-.348c-.087-.155-.179-.34-.271-.553l-.088-.212c-.1-.232-.22-.478-.35-.733-.04-.077-.08-.154-.122-.232a7.412,7.412,0,0,0-.629-.989c-.005,0-.007-.01-.012-.015a10.353,10.353,0,0,0-1.373-1.327,5.859,5.859,0,0,0-1.793-.806,8.483,8.483,0,0,0-2.043-.269,11.315,11.315,0,0,0-1.968.083,5.769,5.769,0,0,0-1.342.392,5.6,5.6,0,0,0-1.715,1.089,6.337,6.337,0,0,0-.691.771,13.9,13.9,0,0,1-2.276-1.624,14.215,14.215,0,0,1-2.426-2.734,11.608,11.608,0,0,1,1.037-1,13.92,13.92,0,0,1,2.787-1.835c.041-.021.086-.043.129-.062s.087-.045.129-.068a13.956,13.956,0,0,1,1.884-.785,12.908,12.908,0,0,1,1.252-.354,12.684,12.684,0,0,1,3.35-.289c.087,0,.173.011.258.021a12.244,12.244,0,0,1,2.059.252,13.914,13.914,0,0,1,3.153,1.092c.043.021.088.043.13.065s.089.04.132.062c.152.073.3.149.452.228a13.831,13.831,0,0,1,2.363,1.564,12.66,12.66,0,0,1,2.271,2.479c.224.335.43.667.62,1,.048.081.1.162.14.244a12.233,12.233,0,0,1,.572,1.152,4.936,4.936,0,0,1,.312.951A1.066,1.066,0,0,1,397.2,7287.2Z" transform="translate(-369.8 -7258.025)" fill="#fff"/>
        </g>
        <path id="Path_1086" data-name="Path 1086" d="M987.964,7222.473c-.009.347-.257.532-.684.532h-6.116a.985.985,0,0,1-.988-.721L974.384,7205q-.779,2.163-1.492,4.32t-1.405,4.322c-.222.7-.625,1.938-.625,1.938l3.921-.021a1.019,1.019,0,0,1,1.058.7l1.948,5.73a.914.914,0,0,1,.08.632.55.55,0,0,1-.328.329.558.558,0,0,1-.167.052H961.7a.93.93,0,0,1-.617-.161.561.561,0,0,1-.177-.388,10.917,10.917,0,0,1,.54-2.021l.513-1.336.512-1.333.4-1.042.18-.468,3.1-8.063,2.984-7.769,1.453-3.778c.063-.179.139-.374.228-.589a3.966,3.966,0,0,1,.3-.6,1.86,1.86,0,0,1,.4-.465.787.787,0,0,1,.515-.19h4.691a.775.775,0,0,1,.777.4,6.393,6.393,0,0,1,.371.7c.106.239.211.487.313.741l.237.621.649,1.7.966,2.53,1.19,3.115,1.319,3.454,1.354,3.546,1.3,3.393,1.143,2.993.9,2.346a15.116,15.116,0,0,1,.7,1.881A.99.99,0,0,1,987.964,7222.473Z" transform="translate(-829.095 -7193.339)" fill="#fff"/>
        <path id="Path_1087" data-name="Path 1087" d="M1363.821,7222.473c-.009.347-.257.532-.684.532h-6.115a.985.985,0,0,1-.988-.721L1350.241,7205q-.779,2.163-1.492,4.32t-1.405,4.322c-.222.7-.625,1.938-.625,1.938l3.921-.021a1.019,1.019,0,0,1,1.058.7l1.948,5.73a.914.914,0,0,1,.08.632.55.55,0,0,1-.328.329.556.556,0,0,1-.166.052h-15.676a.93.93,0,0,1-.617-.161.559.559,0,0,1-.178-.388,10.921,10.921,0,0,1,.54-2.021l.513-1.336.512-1.333.4-1.042.18-.468,3.1-8.063,2.984-7.769,1.453-3.778c.063-.179.139-.374.228-.589a3.983,3.983,0,0,1,.3-.6,1.865,1.865,0,0,1,.4-.465.787.787,0,0,1,.515-.19h4.691a.775.775,0,0,1,.778.4,6.372,6.372,0,0,1,.371.7c.106.239.211.487.313.741l.237.621.649,1.7.966,2.53,1.19,3.115,1.319,3.454,1.354,3.546,1.3,3.393,1.143,2.993.9,2.346a15.088,15.088,0,0,1,.7,1.881A.982.982,0,0,1,1363.821,7222.473Z" transform="translate(-1123.327 -7193.339)" fill="#fff"/>
        <path id="Path_1088" data-name="Path 1088" d="M401.411,7229.429c1.147-1.724,3.521-2.281,6.241-1.342A8.374,8.374,0,0,0,401.411,7229.429Z" transform="translate(-391.108 -7219.042)" fill="#fff"/>
        <path id="Path_1089" data-name="Path 1089" d="M405.9,7242.236h-.053a13.652,13.652,0,0,0-10.131-.011c-.034.058-.068.118-.1.178H395.6c-.045-.108-.085-.22-.122-.333a5.351,5.351,0,0,1-.185-.746,5.681,5.681,0,0,1-.069-1.4,5.892,5.892,0,0,1,.233-1.281h0a6.634,6.634,0,0,1,.361-.942c.085-.18.175-.354.273-.521a13.015,13.015,0,0,1,9.74.046,5.188,5.188,0,0,1,.334.8c.046.145.087.291.12.437a5.733,5.733,0,0,1,.13,1.727,5.877,5.877,0,0,1-.144.934A6.258,6.258,0,0,1,405.9,7242.236Z" transform="translate(-386.255 -7225.788)" fill="#fff"/>
      </g>
    </g>
    <text id="كويستانيا_فضاءُ_التحديات_" data-name="كويستانيا فضاءُ التحديات " transform="translate(125.271 149.826)" fill="#fff" font-size="14" font-family="SegoeUI-Bold, Segoe UI" font-weight="700"><tspan x="0" y="0">كويستانيا فضاءُ التحديات</tspan><tspan y="0"> </tspan></text>
  </g>
</svg>
