<svg width="111" height="118" viewBox="0 0 111 118" fill="none" xmlns="http://www.w3.org/2000/svg">
<path fill-rule="evenodd" clip-rule="evenodd" d="M50.3293 0.128599C50.0912 0.192856 49.2471 0.321087 48.4535 0.413429C42.7552 1.07657 35.8639 3.14201 30.4938 5.79626C24.6196 8.69988 18.3067 13.427 14.3891 17.8556C11.2887 21.3604 9.27214 24.0994 7.18325 27.6431C4.50349 32.1891 2.12039 38.392 1.13402 43.3882C0.23552 47.9396 0.00234713 50.2732 3.84821e-05 54.736C-0.001693 57.9414 0.0535702 58.823 0.458305 62.0455C0.994488 66.3151 2.49352 71.7774 4.24737 75.852C5.76242 79.3719 8.39702 83.924 9.28657 84.5587C9.59059 84.7756 9.72781 84.7946 10.0693 84.6669C10.2972 84.5817 11.5922 83.4421 12.9472 82.1343C14.3022 80.8266 15.8006 79.4363 16.2767 79.0451C19.5811 76.3296 24.7353 73.1116 29.0464 71.0726C30.1178 70.5657 31.1405 70.0227 31.319 69.8659C31.8042 69.4393 31.7275 68.8549 30.9796 67.2817C29.2014 63.5406 28.1807 58.9139 28.1807 54.5941C28.1807 52.3324 28.3251 50.9918 28.8534 48.3528C30.0719 42.2654 33.4935 36.417 38.0249 32.6764C41.5883 29.7349 44.8254 28.1151 49.0643 27.1528C51.7847 26.5352 53.191 26.3664 55.614 26.3664C60.9234 26.3664 66.2289 27.9621 70.7508 30.9188C72.3338 31.9538 75.5076 34.9262 76.8706 36.6504C78.7305 39.0031 80.1997 41.7942 81.2708 45.0099C82.1567 47.6694 82.5606 49.5778 82.7588 52.0409C82.9535 54.4587 82.9536 55.1018 82.7598 57.2892C82.4432 60.8614 81.5551 64.1613 80.0584 67.3261C79.3752 68.7707 79.2575 69.1305 79.3619 69.4538C79.4687 69.7844 79.9952 70.0978 82.8761 71.5449C87.0543 73.6438 89.6595 75.1844 92.3038 77.1202C95.0312 79.117 95.6653 79.6549 98.4748 82.3544C101.646 85.4014 101.563 85.3989 103.331 82.5022C107.469 75.7219 109.726 69.004 110.85 60.1188C111.036 58.6473 111.055 50.413 110.874 49.3364C110.803 48.9124 110.666 47.9273 110.57 47.1471C109.838 41.1959 107.491 34.2366 104.233 28.3523C102.625 25.4493 100.118 21.8582 97.7447 19.0613C91.8633 12.1286 82.953 6.14719 73.9702 3.10158C70.0491 1.77205 66.472 0.922237 62.9547 0.484637C61.9627 0.36123 60.8741 0.197821 60.5358 0.121507C59.7986 -0.0447384 50.9483 -0.0384971 50.3293 0.128599ZM51.3393 39.5658C50.9425 39.6293 49.7737 39.7886 48.7421 39.9197C46.593 40.1928 41.0619 41.5048 39.3868 42.139C37.9579 42.68 37.3811 43.1802 36.7377 44.4363C34.5674 48.6728 33.7356 53.8108 34.5287 58.08C35.0941 61.1228 35.3522 61.6865 36.18 61.6865C36.4283 61.6865 37.7007 61.3341 39.0074 60.9035C42.7612 59.6663 46.9132 58.7531 50.4014 58.3973C52.6997 58.163 58.1157 58.0926 59.7081 58.2765C64.8997 58.8756 67.5926 59.4212 71.3325 60.6313C72.8849 61.1337 74.3237 61.5447 74.5301 61.5447C75.2802 61.5447 75.7822 60.5588 76.5882 57.502C76.7116 57.0339 76.8718 55.9452 76.9441 55.0828C77.0163 54.2203 77.1217 53.3338 77.1781 53.1127C77.3912 52.278 76.6953 47.7226 76.0735 45.8821C75.5125 44.2212 74.9755 43.2615 74.3917 42.8762C73.7066 42.424 71.0019 41.5183 68.3656 40.8583C66.2376 40.3257 64.25 39.963 61.2953 39.5686C59.98 39.393 52.4306 39.3909 51.3393 39.5658ZM50.2571 73.0508C45.2067 73.742 44.0607 73.9607 41.4579 74.7305C33.5149 77.0794 26.6537 80.7447 20.2956 86.0358C18.3215 87.6785 17.2562 88.8235 17.1315 89.4364C17.0332 89.9189 17.4136 90.5289 19.2358 92.8124C22.5639 96.9829 26.744 100.771 31.395 103.83C33.4888 105.207 34.0558 105.517 34.4805 105.517C34.9534 105.517 35.1744 105.35 36.8935 103.692C39.6555 101.027 41.9852 99.6039 45.5993 98.3726C47.4561 97.7401 48.9426 97.4541 51.4114 97.2548C56.5775 96.8378 62.0123 97.3717 65.9879 98.6869C69.2441 99.7641 71.1352 100.909 73.6079 103.3C76.6829 106.274 78.0974 108.211 79.8531 111.853C80.3357 112.854 81.0455 114.326 81.43 115.123C81.9619 116.226 82.3118 116.744 82.8904 117.287L83.6513 118H84.9321C85.9536 118 86.2906 117.946 86.5961 117.733C86.8067 117.587 90.323 116.205 94.41 114.664C98.497 113.122 102.152 111.708 102.532 111.521C104.078 110.76 104.934 109.605 104.94 108.271C104.954 105.073 101.045 97.4486 96.6194 92.0419C93.5688 88.3148 91.836 86.646 88.2589 83.9898C83.6911 80.5978 77.6095 77.4327 72.1346 75.5982C68.2429 74.2941 64.5743 73.4888 61.0067 73.1554C58.9155 72.9601 51.4507 72.8874 50.2571 73.0508Z" fill="white"/>
</svg>
