<svg width="20" height="19" viewBox="0 0 20 19" fill="none" xmlns="http://www.w3.org/2000/svg">
<path d="M10.145 0.59375C4.68469 0.59375 0.366699 4.50289 0.366699 9.22168C0.366699 11.2319 1.16212 13.1794 2.60981 14.7224C2.89625 15.9036 2.54849 17.1552 1.68558 18.0181C1.32482 18.3788 1.58017 19 2.09229 19C3.73136 19 5.31123 18.3577 6.48578 17.2257C7.64737 17.6399 8.87645 17.8496 10.145 17.8496C15.6205 17.8496 20 13.929 20 9.22168C20 4.51171 15.6175 0.59375 10.145 0.59375ZM10.145 16.7069C8.89029 16.7069 7.68061 16.4708 6.54959 16.0204C6.32745 15.932 6.07383 15.9901 5.91243 16.1665C5.21767 16.9257 4.31449 17.4551 3.33068 17.6984C3.87274 16.6597 4.01129 15.4352 3.68132 14.2751C3.65532 14.1836 3.607 14.1 3.54074 14.0318C2.23578 12.6876 1.50942 10.9794 1.50942 9.22168C1.50942 5.09856 5.38758 1.73647 10.145 1.73647C14.9448 1.73647 18.8573 5.09856 18.8573 9.22168C18.8573 13.3448 14.9448 16.7069 10.145 16.7069Z" fill="#511285"/>
<path d="M5.54346 7.49609C4.59197 7.49609 3.81787 8.27019 3.81787 9.22168C3.81787 10.1732 4.59197 10.9473 5.54346 10.9473C6.49495 10.9473 7.26904 10.1732 7.26904 9.22168C7.26904 8.27019 6.49495 7.49609 5.54346 7.49609ZM5.54346 9.79688C5.22629 9.79688 4.96826 9.53884 4.96826 9.22168C4.96826 8.90452 5.22629 8.64648 5.54346 8.64648C5.86062 8.64648 6.11865 8.90452 6.11865 9.22168C6.11865 9.53884 5.86062 9.79688 5.54346 9.79688Z" fill="#511285"/>
<path d="M10.145 7.49609C9.19353 7.49609 8.41943 8.27019 8.41943 9.22168C8.41943 10.1732 9.19353 10.9473 10.145 10.9473C11.0965 10.9473 11.8706 10.1732 11.8706 9.22168C11.8706 8.27019 11.0965 7.49609 10.145 7.49609ZM10.145 9.79688C9.82786 9.79688 9.56982 9.53884 9.56982 9.22168C9.56982 8.90452 9.82786 8.64648 10.145 8.64648C10.4622 8.64648 10.7202 8.90452 10.7202 9.22168C10.7202 9.53884 10.4622 9.79688 10.145 9.79688Z" fill="#511285"/>
<path d="M14.8233 7.49609C13.8718 7.49609 13.0977 8.27019 13.0977 9.22168C13.0977 10.1732 13.8718 10.9473 14.8233 10.9473C15.7748 10.9473 16.5489 10.1732 16.5489 9.22168C16.5489 8.27019 15.7748 7.49609 14.8233 7.49609ZM14.8233 9.79688C14.5062 9.79688 14.2481 9.53884 14.2481 9.22168C14.2481 8.90452 14.5062 8.64648 14.8233 8.64648C15.1405 8.64648 15.3985 8.90452 15.3985 9.22168C15.3985 9.53884 15.1405 9.79688 14.8233 9.79688Z" fill="#511285"/>
</svg>
