<svg width="38" height="32" viewBox="0 0 38 32" fill="none" xmlns="http://www.w3.org/2000/svg">
<path d="M36 0H2C0.89543 0 0 0.89543 0 2V7.35385C0 8.45842 0.89543 9.35385 2 9.35385H36C37.1046 9.35385 38 8.45842 38 7.35385V2C38 0.895431 37.1046 0 36 0Z" fill="#F232A4"/>
<path d="M36 22.2154H2C0.89543 22.2154 0 23.1108 0 24.2154V29.5692C0 30.6738 0.89543 31.5692 2 31.5692H36C37.1046 31.5692 38 30.6738 38 29.5692V24.2154C38 23.1108 37.1046 22.2154 36 22.2154Z" fill="#5939C6"/>
<path d="M36 11.1077H2C0.89543 11.1077 0 12.0031 0 13.1077V18.4615C0 19.5661 0.89543 20.4615 2 20.4615H36C37.1046 20.4615 38 19.5661 38 18.4615V13.1077C38 12.0031 37.1046 11.1077 36 11.1077Z" fill="#5939C6"/>
<path d="M34.1576 6.139H32.4916L32.3026 7H31.3366L32.4076 2.24H34.2416L35.3126 7H34.3466L34.1576 6.139ZM33.4926 3.038H33.1566L32.6736 5.299H33.9756L33.4926 3.038Z" fill="white"/>
<path d="M31.7083 13.3477H33.5773C34.0859 13.3477 34.4593 13.4504 34.6973 13.6557C34.9399 13.8564 35.0613 14.183 35.0613 14.6357C35.0613 14.8784 35.0216 15.079 34.9423 15.2377C34.8629 15.3964 34.7276 15.5364 34.5363 15.6577C34.7463 15.7417 34.9003 15.87 34.9983 16.0427C35.1009 16.2154 35.1523 16.4417 35.1523 16.7217C35.1523 17.1884 35.0193 17.536 34.7533 17.7647C34.4873 17.9934 34.1046 18.1077 33.6053 18.1077H31.7083V13.3477ZM33.5353 15.3077C33.8993 15.3077 34.0813 15.1187 34.0813 14.7407C34.0813 14.3627 33.8969 14.1737 33.5283 14.1737H32.6743V15.3077H33.5353ZM33.5563 17.2817C33.7663 17.2817 33.9203 17.2397 34.0183 17.1557C34.1209 17.067 34.1723 16.92 34.1723 16.7147C34.1723 16.5094 34.1233 16.36 34.0253 16.2667C33.9273 16.1687 33.7709 16.1197 33.5563 16.1197H32.6743V17.2817H33.5563Z" fill="white"/>
<path d="M33.6207 29.2994C33.1167 29.2994 32.7293 29.2107 32.4587 29.0334C32.188 28.8561 32.0013 28.5947 31.8987 28.2494C31.8007 27.8994 31.7517 27.4351 31.7517 26.8564C31.7517 26.2217 31.8053 25.7271 31.9127 25.3724C32.0247 25.0177 32.209 24.7634 32.4657 24.6094C32.7223 24.4507 33.0817 24.3714 33.5437 24.3714C33.9683 24.3714 34.442 24.4344 34.9647 24.5604L34.9367 25.3304C34.4747 25.2604 34.099 25.2254 33.8097 25.2254C33.5157 25.2254 33.294 25.2721 33.1447 25.3654C32.9953 25.4587 32.8903 25.6127 32.8297 25.8274C32.7737 26.0374 32.7457 26.3361 32.7457 26.7234V26.9824C32.755 27.3837 32.783 27.6847 32.8297 27.8854C32.881 28.0814 32.979 28.2237 33.1237 28.3124C33.2683 28.4011 33.49 28.4454 33.7887 28.4454C34.106 28.4454 34.4887 28.4127 34.9367 28.3474L34.9577 29.1384C34.449 29.2457 34.0033 29.2994 33.6207 29.2994Z" fill="white"/>
</svg>
