<svg width="126" height="150" viewBox="0 0 126 150" fill="none" xmlns="http://www.w3.org/2000/svg">
<rect x="38.1406" y="14.8325" width="70.4543" height="98.0003" rx="5" fill="#D0D9DD"/>
<rect opacity="0.5" x="13.2432" y="41.3191" width="69.9245" height="86.8759" rx="5" stroke="#CED1D2" stroke-width="2" stroke-linecap="round" stroke-dasharray="10 10"/>
<path fill-rule="evenodd" clip-rule="evenodd" d="M74.9429 32.0348H26.1892C23.4278 32.0348 21.1892 34.2734 21.1892 37.0348V116.559C21.1892 119.321 23.4278 121.559 26.1892 121.559H86.6435C89.4049 121.559 91.6435 119.321 91.6435 116.559V48.7354L74.9429 32.0348Z" fill="#ECEFF2"/>
<g filter="url(#filter0_d)">
<path fill-rule="evenodd" clip-rule="evenodd" d="M73.6328 30.7245V43.4564C73.6328 46.2178 75.8714 48.4564 78.6328 48.4564H91.3647L73.6328 30.7245Z" fill="#B1BFC6"/>
</g>
<path fill-rule="evenodd" clip-rule="evenodd" d="M37.586 40.3153C37.9765 39.9248 37.9765 39.2916 37.586 38.9011L36.7835 38.0986C36.393 37.7081 35.7598 37.7081 35.3693 38.0986L33.8692 39.5986L32.3692 38.0986C31.9787 37.7081 31.3455 37.7081 30.955 38.0986L30.1525 38.9011C29.762 39.2916 29.762 39.9248 30.1525 40.3153L31.6525 41.8154L30.1526 43.3152C29.7621 43.7058 29.7621 44.3389 30.1526 44.7294L30.9551 45.5319C31.3457 45.9225 31.9788 45.9225 32.3694 45.5319L33.8692 44.0321L35.3691 45.5319C35.7597 45.9225 36.3928 45.9225 36.7833 45.5319L37.5858 44.7295C37.9764 44.3389 37.9764 43.7058 37.5858 43.3152L36.0859 41.8154L37.586 40.3153Z" fill="#8DA3B0"/>
<path fill-rule="evenodd" clip-rule="evenodd" d="M91.1398 135.783C91.4869 135.436 91.4869 134.873 91.1398 134.526C90.7927 134.179 90.23 134.179 89.883 134.526L89.26 135.149L88.637 134.526C88.2899 134.179 87.7272 134.179 87.3802 134.526C87.0331 134.873 87.0331 135.436 87.3802 135.783L88.0031 136.406L87.3803 137.029C87.0332 137.376 87.0332 137.938 87.3803 138.285C87.7274 138.632 88.2901 138.632 88.6371 138.285L89.26 137.663L89.8829 138.285C90.2299 138.633 90.7926 138.633 91.1397 138.285C91.4867 137.938 91.4867 137.376 91.1397 137.029L90.5168 136.406L91.1398 135.783Z" fill="#D0D9DD"/>
<path fill-rule="evenodd" clip-rule="evenodd" d="M31.255 82.0489C31.255 81.4966 31.7027 81.0489 32.255 81.0489H81.1092C81.6615 81.0489 82.1092 81.4966 82.1092 82.0489V82.6975C82.1092 83.2498 81.6615 83.6975 81.1092 83.6975H32.255C31.7027 83.6975 31.255 83.2498 31.255 82.6975V82.0489ZM31.2539 88.4056C31.2539 87.8533 31.7016 87.4056 32.2539 87.4056H81.1081C81.6604 87.4056 82.1081 87.8533 82.1081 88.4056V89.0543C82.1081 89.6066 81.6604 90.0543 81.1081 90.0543H32.2539C31.7016 90.0543 31.2539 89.6066 31.2539 89.0543V88.4056ZM32.2539 94.8219C31.7016 94.8219 31.2539 95.2697 31.2539 95.8219V96.4706C31.2539 97.0229 31.7016 97.4706 32.2539 97.4706H81.1081C81.6604 97.4706 82.1081 97.0229 82.1081 96.4706V95.8219C82.1081 95.2697 81.6604 94.8219 81.1081 94.8219H32.2539ZM31.2539 102.179C31.2539 101.626 31.7016 101.179 32.2539 101.179H81.1081C81.6604 101.179 82.1081 101.626 82.1081 102.179V102.827C82.1081 103.38 81.6604 103.827 81.1081 103.827H32.2539C31.7016 103.827 31.2539 103.38 31.2539 102.827V102.179ZM32.2539 107.535C31.7016 107.535 31.2539 107.983 31.2539 108.535V109.184C31.2539 109.736 31.7016 110.184 32.2539 110.184H81.1081C81.6604 110.184 82.1081 109.736 82.1081 109.184V108.535C82.1081 107.983 81.6604 107.535 81.1081 107.535H32.2539Z" fill="#D0D9DB"/>
<path d="M12.4167 26.0186L12.4167 26.0186L12.4222 26.0253C12.5991 26.2402 12.832 26.3833 13.0937 26.4676L13.0937 26.4678L13.1053 26.4712C13.3463 26.5425 13.5983 26.5697 13.8578 26.5579L13.8687 26.5574L13.8795 26.5564C14.1404 26.5332 14.3962 26.4722 14.646 26.3757C14.9046 26.2758 15.1376 26.138 15.3387 25.9592C15.5646 25.7601 15.7688 25.4547 15.6956 25.0675L15.6956 25.0675L15.6941 25.0602C15.6437 24.8139 15.524 24.596 15.3617 24.4071C15.2057 24.2161 15.1517 24.0544 15.1481 23.9152C15.1428 23.7122 15.1793 23.5077 15.263 23.2982L15.2637 23.2964C15.3586 23.0561 15.4857 22.8186 15.6471 22.5838C15.8341 22.3172 16.0127 22.0635 16.1828 21.8226C16.9158 20.7887 17.3413 19.7629 17.4069 18.7508C17.4784 17.7373 17.2092 16.728 16.6346 15.7328C16.2581 15.0806 15.8034 14.5539 15.2634 14.1713C14.7408 13.7935 14.1691 13.5472 13.5521 13.4393C12.9448 13.3285 12.3143 13.3514 11.6656 13.4987C11.0251 13.642 10.3928 13.8968 9.76927 14.2568C9.58867 14.3611 9.38948 14.5105 9.17565 14.6927L9.17564 14.6927L9.17382 14.6943C8.9612 14.8773 8.74394 15.0877 8.52199 15.3242L8.84495 15.6273L8.52199 15.3242C8.29613 15.5649 8.07934 15.8252 7.87143 16.1047L8.27261 16.4031L7.87143 16.1047C7.65842 16.3911 7.47758 16.6825 7.33076 16.9792C7.18133 17.2768 7.08006 17.5786 7.0364 17.8832C6.98755 18.224 7.03888 18.5564 7.2116 18.8555C7.31315 19.0314 7.4357 19.194 7.58764 19.319C7.72251 19.43 7.87776 19.5189 8.05375 19.5661L8.06645 19.5695L8.07932 19.5722C8.233 19.6048 8.39072 19.6078 8.54778 19.5756L8.56659 19.5718L8.58505 19.5665C8.70517 19.5321 8.81994 19.484 8.9281 19.4215C9.14649 19.2954 9.33748 19.1398 9.49255 18.9513L9.49828 18.9444L9.50374 18.9372C9.63373 18.7671 9.74569 18.584 9.83976 18.3886C9.92169 18.2185 10.0018 18.0455 10.08 17.8695L10.08 17.8695L10.0816 17.8659C10.1532 17.7014 10.2336 17.5387 10.3227 17.3778C10.4057 17.2348 10.5074 17.0987 10.6292 16.9695L10.6344 16.964L10.6394 16.9583C10.7413 16.8434 10.885 16.7267 11.0818 16.613C11.3501 16.4581 11.6352 16.345 11.9384 16.2733L11.9384 16.2735L11.9498 16.2705C12.2383 16.1951 12.5156 16.182 12.7863 16.2267L12.7863 16.2268L12.8001 16.2287C13.0618 16.2645 13.3201 16.3644 13.578 16.5408L13.578 16.5408L13.5813 16.543C13.8159 16.7007 14.043 16.948 14.2527 17.3112C14.4585 17.6677 14.5751 17.9824 14.6209 18.2578C14.669 18.5466 14.662 18.8207 14.6036 19.0839C14.5421 19.3613 14.4335 19.6491 14.2729 19.9479C14.0993 20.2579 13.8882 20.5886 13.6384 20.9399L13.6384 20.9399L13.6355 20.944C13.3401 21.3684 13.0684 21.7999 12.8207 22.2385C12.5639 22.6809 12.3622 23.1171 12.2192 23.5468C12.0702 23.9784 11.9921 24.4027 11.9949 24.8166L11.995 24.8204C12.0015 25.2662 12.1415 25.6721 12.4167 26.0186ZM13.7992 29.6035L14.2322 29.3535L13.7992 29.6035C13.9544 29.8722 14.1699 30.0927 14.457 30.2204L14.4688 30.2257L14.4809 30.2303C14.717 30.321 14.9636 30.3628 15.217 30.3559L15.2252 30.3557L15.2333 30.3552C15.4631 30.3414 15.6868 30.2971 15.9031 30.2222L15.9063 30.221C16.1054 30.1505 16.2868 30.0708 16.4453 29.9792C16.8847 29.7255 17.2272 29.376 17.347 28.904C17.4706 28.4381 17.357 27.9719 17.1069 27.5385C16.9626 27.2888 16.7721 27.0712 16.5193 26.934C16.3 26.8112 16.0614 26.7446 15.8098 26.7432C15.5797 26.733 15.3543 26.7714 15.1373 26.853C14.9461 26.9182 14.7666 26.9982 14.6004 27.0941C14.3906 27.2152 14.2141 27.3812 14.0679 27.5796C13.9269 27.765 13.8177 27.9716 13.7386 28.1958C13.6598 28.4169 13.6183 28.645 13.616 28.878C13.6134 29.1335 13.6703 29.3802 13.7992 29.6035Z" fill="#8DA3B0" stroke="#8DA3B0"/>
<circle cx="18.8054" cy="2.38379" r="1.38379" stroke="#D3D6D5" stroke-width="2"/>
<circle cx="70.9839" cy="136.141" r="1.11893" stroke="#D3D6D5" stroke-width="2"/>
<circle cx="122.368" cy="79.4597" r="2.17839" stroke="#D3D6D5" stroke-width="2"/>
<circle cx="3.17839" cy="110.184" r="2.17839" stroke="#D3D6D5" stroke-width="2"/>
<path fill-rule="evenodd" clip-rule="evenodd" d="M53.5127 50.894C53.44 50.9139 53.1822 50.9536 52.9398 50.9823C51.1994 51.1877 49.0945 51.8275 47.4544 52.6496C45.6602 53.549 43.7321 55.0133 42.5355 56.3851C41.5886 57.4707 40.9726 58.3192 40.3346 59.4169C39.5161 60.825 38.7883 62.7464 38.487 64.294C38.2126 65.7039 38.1413 66.4267 38.1406 67.8091C38.1401 68.802 38.157 69.0751 38.2806 70.0733C38.4444 71.3958 38.9022 73.0878 39.4379 74.35C39.9006 75.4403 40.7053 76.8503 40.977 77.0469C41.0699 77.1141 41.1118 77.12 41.2161 77.0805C41.2857 77.0541 41.6812 76.7011 42.0951 76.2959C42.509 75.8909 42.9666 75.4602 43.112 75.3391C44.1213 74.4979 45.6955 73.5011 47.0123 72.8695C47.3395 72.7125 47.6519 72.5443 47.7064 72.4957C47.8546 72.3636 47.8312 72.1826 47.6028 71.6952C47.0596 70.5364 46.7479 69.1033 46.7479 67.7652C46.7479 67.0646 46.792 66.6493 46.9533 65.8319C47.3255 63.9462 48.3706 62.1347 49.7546 60.976C50.843 60.0648 51.8317 59.5631 53.1264 59.265C53.9573 59.0737 54.3868 59.0214 55.1269 59.0214C56.7485 59.0214 58.369 59.5157 59.7501 60.4315C60.2336 60.7521 61.203 61.6729 61.6193 62.2069C62.1873 62.9357 62.6361 63.8003 62.9632 64.7964C63.2338 65.6202 63.3572 66.2113 63.4177 66.9743C63.4772 67.7232 63.4772 67.9224 63.418 68.6C63.3213 69.7065 63.0501 70.7287 62.5929 71.709C62.3842 72.1565 62.3483 72.2679 62.3802 72.3681C62.4128 72.4705 62.5736 72.5675 63.4535 73.0158C64.7297 73.666 65.5254 74.1432 66.333 74.7428C67.1661 75.3613 67.3597 75.5279 68.2178 76.3641C69.1864 77.308 69.1612 77.3072 69.7011 76.4099C70.965 74.3097 71.6542 72.2287 71.9976 69.4765C72.0545 69.0207 72.0601 66.47 72.005 66.1365C71.9833 66.0052 71.9416 65.7001 71.9122 65.4584C71.6884 63.615 70.9716 61.4592 69.9764 59.6365C69.4855 58.7373 68.7196 57.625 67.9948 56.7586C66.1985 54.6111 63.477 52.7583 60.7334 51.8149C59.5358 51.4031 58.4432 51.1399 57.3689 51.0043C57.0659 50.9661 56.7335 50.9155 56.6301 50.8918C56.405 50.8403 53.7018 50.8423 53.5127 50.894ZM53.8212 63.11C53.7 63.1297 53.3431 63.179 53.0279 63.2196C52.3716 63.3042 50.6822 63.7107 50.1706 63.9071C49.7341 64.0747 49.558 64.2296 49.3614 64.6187C48.6986 65.931 48.4445 67.5225 48.6868 68.8449C48.8594 69.7875 48.9383 69.9621 49.1911 69.9621C49.267 69.9621 49.6556 69.8529 50.0547 69.7195C51.2012 69.3363 52.4693 69.0534 53.5348 68.9432C54.2367 68.8707 55.891 68.8489 56.3773 68.9058C57.963 69.0914 58.7855 69.2604 59.9277 69.6352C60.4019 69.7909 60.8414 69.9181 60.9044 69.9181C61.1335 69.9181 61.2868 69.6128 61.533 68.6659C61.5707 68.5209 61.6196 68.1837 61.6417 67.9165C61.6638 67.6494 61.696 67.3748 61.7132 67.3063C61.7783 67.0477 61.5657 65.6366 61.3758 65.0665C61.2045 64.5521 61.0404 64.2548 60.8621 64.1354C60.6529 63.9954 59.8268 63.7148 59.0216 63.5104C58.3716 63.3454 57.7645 63.233 56.8621 63.1109C56.4604 63.0565 54.1545 63.0558 53.8212 63.11ZM53.4907 73.4823C51.9481 73.6964 51.5981 73.7641 50.8031 74.0026C48.3771 74.7302 46.2815 75.8655 44.3395 77.5045C43.7366 78.0133 43.4112 78.368 43.3731 78.5579C43.3431 78.7073 43.4593 78.8963 44.0158 79.6036C45.0323 80.8954 46.3091 82.0687 47.7296 83.0164C48.3691 83.4431 48.5423 83.5391 48.672 83.5391C48.8165 83.5391 48.884 83.4873 49.409 82.9736C50.2526 82.1482 50.9642 81.7073 52.068 81.3259C52.6352 81.13 53.0892 81.0414 53.8433 80.9797C55.4211 80.8505 57.0811 81.0159 58.2954 81.4233C59.2899 81.7569 59.8675 82.1115 60.6227 82.8523C61.5619 83.7734 61.994 84.3735 62.5302 85.5015C62.6776 85.8117 62.8944 86.2676 63.0119 86.5146C63.1743 86.856 63.2812 87.0166 63.4579 87.1846L63.6903 87.4057H64.0815C64.3935 87.4057 64.4964 87.3889 64.5897 87.3231C64.6541 87.2777 65.728 86.8498 66.9763 86.3722C68.2246 85.8947 69.3409 85.4566 69.4569 85.3988C69.9294 85.163 70.1907 84.8053 70.1925 84.3919C70.1968 83.4015 69.0028 81.0397 67.6511 79.3649C66.7194 78.2104 66.1902 77.6935 65.0976 76.8707C63.7024 75.82 61.845 74.8396 60.1727 74.2713C58.9841 73.8674 57.8636 73.6179 56.774 73.5147C56.1352 73.4542 53.8552 73.4316 53.4907 73.4823Z" fill="#8DA3B0"/>
<path fill-rule="evenodd" clip-rule="evenodd" d="M97.3333 119.87C96.3405 118.733 94.6133 118.615 93.4755 119.608C92.3376 120.601 92.2201 122.328 93.2129 123.466L95.1584 125.695C95.6958 126.311 96.4485 126.628 97.2063 126.632C96.5258 127.723 96.6032 129.173 97.4923 130.192L113.66 148.721C115.015 150.275 117.373 150.435 118.926 149.08C120.479 147.725 120.64 145.367 119.285 143.814L103.117 125.284C102.296 124.344 101.019 124.039 99.9044 124.411C100.056 123.614 99.8533 122.759 99.2789 122.1L97.3333 119.87Z" fill="#8AA5AF"/>
<circle opacity="0.5" cx="82.8048" cy="107.385" r="18.0109" fill="#ECEFF2"/>
<rect opacity="0.3" x="93.9294" y="94.6711" width="2.11893" height="32.807" transform="rotate(30 93.9294 94.6711)" fill="#FFFEFF"/>
<rect opacity="0.3" x="96.884" y="97.7778" width="3.69976" height="30.4499" transform="rotate(30 96.884 97.7778)" fill="#FFFEFF"/>
<path d="M98.405 107.385C98.405 116 91.4206 122.985 82.8049 122.985C74.1892 122.985 67.2048 116 67.2048 107.385C67.2048 98.7689 74.1892 91.7845 82.8049 91.7845C91.4206 91.7845 98.405 98.7689 98.405 107.385Z" stroke="#C5CED4" stroke-width="8"/>
<defs>
<filter id="filter0_d" x="71.6328" y="29.7245" width="21.7319" height="21.7319" filterUnits="userSpaceOnUse" color-interpolation-filters="sRGB">
<feFlood flood-opacity="0" result="BackgroundImageFix"/>
<feColorMatrix in="SourceAlpha" type="matrix" values="0 0 0 0 0 0 0 0 0 0 0 0 0 0 0 0 0 0 127 0"/>
<feOffset dy="1"/>
<feGaussianBlur stdDeviation="1"/>
<feColorMatrix type="matrix" values="0 0 0 0 0 0 0 0 0 0 0 0 0 0 0 0 0 0 0.25 0"/>
<feBlend mode="normal" in2="BackgroundImageFix" result="effect1_dropShadow"/>
<feBlend mode="normal" in="SourceGraphic" in2="effect1_dropShadow" result="shape"/>
</filter>
</defs>
</svg>
