<svg width="19" height="27" viewBox="0 0 19 27" fill="none" xmlns="http://www.w3.org/2000/svg">
<path d="M9.53202 1C8.62787 1 7.76075 1.35917 7.12142 1.9985C6.4821 2.63783 6.12292 3.50494 6.12292 4.40909V13.5C6.12292 14.4041 6.4821 15.2713 7.12142 15.9106C7.76075 16.5499 8.62787 16.9091 9.53202 16.9091C10.4362 16.9091 11.3033 16.5499 11.9426 15.9106C12.5819 15.2713 12.9411 14.4041 12.9411 13.5V4.40909C12.9411 3.50494 12.5819 2.63783 11.9426 1.9985C11.3033 1.35917 10.4362 1 9.53202 1V1Z" stroke="#5939C6" stroke-width="2" stroke-linecap="round" stroke-linejoin="round"/>
<path d="M17.4866 11.2273V13.5C17.4866 15.6097 16.6485 17.633 15.1568 19.1247C13.665 20.6165 11.6417 21.4546 9.53206 21.4546C7.42238 21.4546 5.39911 20.6165 3.90735 19.1247C2.41558 17.633 1.57751 15.6097 1.57751 13.5V11.2273" stroke="#5939C6" stroke-width="2" stroke-linecap="round" stroke-linejoin="round"/>
<path d="M9.5321 21.4546V26" stroke="#5939C6" stroke-width="2" stroke-linecap="round" stroke-linejoin="round"/>
<path d="M4.98657 26H14.0775" stroke="#5939C6" stroke-width="2" stroke-linecap="round" stroke-linejoin="round"/>
</svg>
