<svg width="25" height="25" viewBox="0 0 25 25" fill="none" xmlns="http://www.w3.org/2000/svg">
<path d="M15.4901 10.3636C15.4901 12.303 14.7098 13.2727 13.1492 13.2727H10.6265V7.68182H13.1492C13.9674 7.68182 14.5583 7.89394 14.922 8.31818C15.3008 8.74242 15.4901 9.42424 15.4901 10.3636Z" fill="white"/>
<path fill-rule="evenodd" clip-rule="evenodd" d="M4.54545 0H20.4545C22.9649 0 25 2.03507 25 4.54545V20.4545C25 22.9649 22.9649 25 20.4545 25H4.54545C2.03507 25 0 22.9649 0 20.4545V4.54545C0 2.03507 2.03507 0 4.54545 0ZM13.172 5H7.49015V20.4545H10.6265V15.9545H13.172C14.975 15.9545 16.3386 15.4773 17.2629 14.5227C18.2023 13.5682 18.672 12.1818 18.672 10.3636C18.672 6.78788 16.8386 5 13.172 5Z" fill="white"/>
</svg>
