<svg width="27" height="27" viewBox="0 0 27 27" fill="none" xmlns="http://www.w3.org/2000/svg">
<path d="M23.2222 1H3.77778C2.24365 1 1 2.24365 1 3.77778V23.2222C1 24.7563 2.24365 26 3.77778 26H23.2222C24.7563 26 26 24.7563 26 23.2222V3.77778C26 2.24365 24.7563 1 23.2222 1Z" stroke="#5939C6" stroke-width="2" stroke-linecap="round" stroke-linejoin="round"/>
<path d="M8.63888 10.7221C9.78947 10.7221 10.7222 9.78935 10.7222 8.63875C10.7222 7.48816 9.78947 6.55542 8.63888 6.55542C7.48828 6.55542 6.55554 7.48816 6.55554 8.63875C6.55554 9.78935 7.48828 10.7221 8.63888 10.7221Z" stroke="#5939C6" stroke-width="2" stroke-linecap="round" stroke-linejoin="round"/>
<path d="M25.9999 17.6666L19.0555 10.7222L3.77771 25.9999" stroke="#5939C6" stroke-width="2" stroke-linecap="round" stroke-linejoin="round"/>
</svg>
