<svg width="28" height="28" viewBox="0 0 28 28" fill="none" xmlns="http://www.w3.org/2000/svg">
<path d="M24 0H4C1.79086 0 0 1.79086 0 4V24C0 26.2091 1.79086 28 4 28H24C26.2091 28 28 26.2091 28 24V4C28 1.79086 26.2091 0 24 0Z" fill="#5939C6"/>
<path d="M9.72203 7.24H14.762C16.2954 7.24 17.4354 7.61333 18.182 8.36C18.9287 9.10667 19.302 10.2467 19.302 11.78C19.302 13.3533 18.9154 14.5467 18.142 15.36C17.382 16.16 16.2554 16.56 14.762 16.56H11.642V21H9.72203V7.24ZM14.742 14.88C16.4754 14.88 17.342 13.8467 17.342 11.78C17.342 10.78 17.1354 10.0533 16.722 9.6C16.3087 9.13333 15.6487 8.9 14.742 8.9H11.642V14.88H14.742Z" fill="white"/>
<path d="M9.72203 7.24V6.24H8.72203V7.24H9.72203ZM18.182 8.36L17.4749 9.06711L18.182 8.36ZM18.142 15.36L17.4173 14.6709L17.417 14.6713L18.142 15.36ZM11.642 16.56V15.56H10.642V16.56H11.642ZM11.642 21V22H12.642V21H11.642ZM9.72203 21H8.72203V22H9.72203V21ZM16.722 9.6L15.9734 10.263L15.9782 10.2684L15.9831 10.2738L16.722 9.6ZM11.642 8.9V7.9H10.642V8.9H11.642ZM11.642 14.88H10.642V15.88H11.642V14.88ZM9.72203 8.24H14.762V6.24H9.72203V8.24ZM14.762 8.24C16.1502 8.24 16.9863 8.57853 17.4749 9.06711L18.8891 7.65289C17.8844 6.64814 16.4406 6.24 14.762 6.24V8.24ZM17.4749 9.06711C17.9635 9.55568 18.302 10.3919 18.302 11.78H20.302C20.302 10.1015 19.8939 8.65765 18.8891 7.65289L17.4749 9.06711ZM18.302 11.78C18.302 13.2006 17.9534 14.1071 17.4173 14.6709L18.8667 16.0491C19.8773 14.9862 20.302 13.5061 20.302 11.78H18.302ZM17.417 14.6713C16.9053 15.2099 16.0816 15.56 14.762 15.56V17.56C16.4291 17.56 17.8588 17.1101 18.867 16.0487L17.417 14.6713ZM14.762 15.56H11.642V17.56H14.762V15.56ZM10.642 16.56V21H12.642V16.56H10.642ZM11.642 20H9.72203V22H11.642V20ZM10.722 21V7.24H8.72203V21H10.722ZM14.742 15.88C15.8135 15.88 16.7834 15.5523 17.4582 14.7476C18.1048 13.9767 18.342 12.9288 18.342 11.78H16.342C16.342 12.6979 16.1459 13.2 15.9258 13.4624C15.734 13.6911 15.4039 13.88 14.742 13.88V15.88ZM18.342 11.78C18.342 10.6787 18.1207 9.64976 17.461 8.92625L15.9831 10.2738C16.1501 10.4569 16.342 10.8813 16.342 11.78H18.342ZM17.4706 8.93696C16.7944 8.17351 15.8023 7.9 14.742 7.9V9.9C15.4951 9.9 15.823 10.0932 15.9734 10.263L17.4706 8.93696ZM14.742 7.9H11.642V9.9H14.742V7.9ZM10.642 8.9V14.88H12.642V8.9H10.642ZM11.642 15.88H14.742V13.88H11.642V15.88Z" fill="white"/>
</svg>
