<svg width="76" height="80" viewBox="0 0 76 80" fill="none" xmlns="http://www.w3.org/2000/svg">
<path fill-rule="evenodd" clip-rule="evenodd" d="M34.4597 0.087186C34.2967 0.13075 33.7187 0.217686 33.1754 0.280291C29.2738 0.729876 24.5554 2.13018 20.8786 3.92967C16.8567 5.89823 12.5343 9.10302 9.852 12.1055C7.72923 14.4816 6.34849 16.3386 4.91826 18.7411C3.08347 21.8231 1.4518 26.0285 0.776444 29.4157C0.161257 32.5014 0.00160704 34.0835 2.63481e-05 37.1091C-0.00115917 39.2823 0.0366787 39.88 0.313794 42.0648C0.680911 44.9594 1.70728 48.6626 2.90811 51.4251C3.94544 53.8115 5.74931 56.8976 6.35837 57.3279C6.56653 57.475 6.66048 57.4879 6.89433 57.4013C7.05032 57.3435 7.93699 56.5709 8.86476 55.6842C9.79253 54.7977 10.8184 53.8551 11.1444 53.5899C13.4069 51.7489 16.9359 49.5672 19.8876 48.1848C20.6212 47.8412 21.3214 47.473 21.4436 47.3667C21.7759 47.0775 21.7233 46.6813 21.2113 45.6147C19.9937 43.0784 19.2949 39.9417 19.2949 37.013C19.2949 35.4796 19.3938 34.5707 19.7555 32.7816C20.5898 28.6545 22.9325 24.6895 26.0351 22.1535C28.4749 20.1592 30.6913 19.0611 33.5936 18.4087C35.4562 17.99 36.419 17.8756 38.0781 17.8756C41.7133 17.8756 45.3459 18.9573 48.442 20.9619C49.5259 21.6636 51.6989 23.6788 52.6321 24.8477C53.9056 26.4428 54.9115 28.3351 55.6448 30.5152C56.2514 32.3182 56.528 33.6121 56.6637 35.2819C56.797 36.9211 56.7971 37.3571 56.6644 38.8401C56.4476 41.2619 55.8396 43.4992 54.8148 45.6448C54.347 46.6242 54.2664 46.8681 54.3379 47.0873C54.411 47.3115 54.7715 47.5239 56.744 48.505C59.6048 49.928 61.3885 50.9725 63.199 52.2849C65.0664 53.6387 65.5006 54.0033 67.4242 55.8335C69.5955 57.8993 69.5389 57.8975 70.7493 55.9337C73.5825 51.3369 75.1275 46.7824 75.8972 40.7585C76.0247 39.7609 76.0374 34.1783 75.9139 33.4484C75.8652 33.161 75.7716 32.4931 75.7058 31.9641C75.2041 27.9294 73.5973 23.2112 71.3664 19.2219C70.2658 17.2537 68.5489 14.8191 66.9243 12.9229C62.8974 8.2228 56.7967 4.16759 50.6463 2.10277C47.9616 1.20139 45.5124 0.625245 43.1041 0.328567C42.4249 0.244901 41.6796 0.134116 41.4479 0.0823776C40.9432 -0.0303311 34.8835 -0.0260997 34.4597 0.087186ZM35.1512 26.8243C34.8795 26.8673 34.0793 26.9753 33.3729 27.0642C31.9015 27.2493 28.1145 28.1389 26.9676 28.5688C25.9892 28.9356 25.5942 29.2747 25.1537 30.1263C23.6678 32.9985 23.0982 36.4819 23.6413 39.3763C24.0284 41.4392 24.2051 41.8214 24.7719 41.8214C24.9419 41.8214 25.8131 41.5825 26.7077 41.2905C29.278 40.4517 32.1207 39.8326 34.5091 39.5914C36.0826 39.4325 39.791 39.3848 40.8812 39.5095C44.4358 39.9157 46.2796 40.2856 48.8402 41.106C49.9032 41.4466 50.8883 41.7252 51.0296 41.7252C51.5432 41.7252 51.8869 41.0568 52.4388 38.9844C52.5233 38.667 52.6329 37.929 52.6824 37.3443C52.7319 36.7596 52.804 36.1585 52.8427 36.0086C52.9886 35.4427 52.5121 32.3543 52.0864 31.1065C51.7023 29.9805 51.3346 29.3298 50.9349 29.0686C50.4658 28.762 48.6139 28.148 46.8089 27.7005C45.3518 27.3394 43.991 27.0935 41.968 26.8262C41.0674 26.7071 35.8984 26.7057 35.1512 26.8243ZM34.4103 49.5259C30.9523 49.9946 30.1677 50.1429 28.3856 50.6648C22.9472 52.2572 18.2493 54.7422 13.8961 58.3293C12.5444 59.4431 11.815 60.2193 11.7297 60.6349C11.6624 60.9619 11.9228 61.3756 13.1705 62.9237C15.4491 65.7511 18.3112 68.3191 21.4957 70.3933C22.9293 71.3271 23.3175 71.5372 23.6083 71.5372C23.932 71.5372 24.0834 71.4238 25.2604 70.2995C27.1515 68.493 28.7466 67.5281 31.2211 66.6933C32.4925 66.2644 33.5103 66.0706 35.2006 65.9354C38.7377 65.6527 42.4589 66.0147 45.1809 66.9064C47.4104 67.6367 48.7052 68.4128 50.3982 70.034C52.5036 72.0501 53.4721 73.3635 54.6742 75.8325C55.0047 76.5114 55.4906 77.5092 55.7539 78.0497C56.1181 78.797 56.3576 79.1485 56.7538 79.5163L57.2747 80H58.1517C58.8511 80 59.0819 79.9634 59.291 79.8193C59.4352 79.7199 61.8427 78.7834 64.6411 77.7381C67.4394 76.693 69.9417 75.7342 70.2018 75.6075C71.2609 75.0916 71.8468 74.3087 71.8508 73.4038C71.8604 71.2361 69.1838 66.0668 66.1538 62.4013C64.0651 59.8745 62.8787 58.7431 60.4295 56.9422C57.302 54.6425 53.1381 52.4968 49.3894 51.253C46.7249 50.3688 44.2131 49.8229 41.7704 49.5969C40.3386 49.4645 35.2275 49.4152 34.4103 49.5259Z" fill="#5939C6"/>
</svg>
