<svg width="25" height="25" viewBox="0 0 25 25" fill="none" xmlns="http://www.w3.org/2000/svg">
<path fill-rule="evenodd" clip-rule="evenodd" d="M16.7222 1.81042H2.78703C2.04786 1.81042 1.33897 2.04531 0.816302 2.46342C0.293633 2.88152 0 3.4486 0 4.03989V21.8756C0 22.4669 0.293633 23.034 0.816302 23.4521C1.33897 23.8702 2.04786 24.1051 2.78703 24.1051H19.5092C20.2484 24.1051 20.9573 23.8702 21.4799 23.4521C22.0026 23.034 22.2963 22.4669 22.2963 21.8756V6.26935L16.7222 1.81042ZM9.90539 6.52109C9.87519 6.5294 9.7681 6.54597 9.66743 6.55791C8.94452 6.64364 8.07026 6.91064 7.389 7.25376C6.64378 7.62912 5.84291 8.24021 5.3459 8.81271C4.95258 9.26578 4.69674 9.61987 4.43174 10.078C4.09178 10.6657 3.78945 11.4675 3.66431 12.1134C3.55033 12.7018 3.52075 13.0034 3.52045 13.5803C3.52023 13.9947 3.52725 14.1087 3.57859 14.5253C3.64661 15.0772 3.83679 15.7833 4.05929 16.3101C4.25149 16.7651 4.58572 17.3536 4.69858 17.4356C4.73714 17.4637 4.75455 17.4661 4.79788 17.4496C4.82679 17.4386 4.99107 17.2913 5.16298 17.1222C5.33488 16.9532 5.52496 16.7734 5.58537 16.7229C6.00458 16.3718 6.65846 15.9558 7.20538 15.6922C7.34129 15.6267 7.47104 15.5565 7.49368 15.5362C7.55525 15.4811 7.54551 15.4055 7.45063 15.2022C7.22504 14.7185 7.09555 14.1204 7.09555 13.562C7.09555 13.2696 7.11387 13.0963 7.18089 12.7552C7.33547 11.9682 7.76954 11.2122 8.34442 10.7286C8.79648 10.3484 9.20716 10.139 9.74491 10.0146C10.09 9.93475 10.2684 9.91293 10.5758 9.91293C11.2494 9.91293 11.9225 10.1192 12.4961 10.5014C12.697 10.6352 13.0996 11.0195 13.2725 11.2424C13.5085 11.5465 13.6949 11.9073 13.8307 12.323C13.9431 12.6668 13.9944 12.9135 14.0195 13.2319C14.0442 13.5445 14.0442 13.6276 14.0196 13.9104C13.9795 14.3722 13.8668 14.7988 13.6769 15.2079C13.5903 15.3947 13.5753 15.4412 13.5886 15.483C13.6021 15.5257 13.6689 15.5662 14.0344 15.7533C14.5645 16.0246 14.895 16.2238 15.2304 16.474C15.5764 16.7322 15.6569 16.8017 16.0133 17.1507L16.0328 17.1698C16.2357 17.3685 16.3291 17.46 16.405 17.4472C16.4699 17.4363 16.5219 17.3493 16.6185 17.188C16.6221 17.182 16.6257 17.1759 16.6294 17.1698C17.1544 16.2933 17.4406 15.4248 17.5832 14.2762C17.6069 14.086 17.6092 13.0215 17.5863 12.8823C17.5773 12.8275 17.56 12.7002 17.5478 12.5993C17.4548 11.83 17.1571 10.9303 16.7437 10.1697C16.5398 9.79437 16.2217 9.33014 15.9207 8.96857C15.1745 8.07237 14.0442 7.29913 12.9046 6.90542C12.4071 6.73354 11.9533 6.62368 11.5071 6.56711C11.3812 6.55116 11.2432 6.53004 11.2002 6.52017C11.1067 6.49868 9.98392 6.49949 9.90539 6.52109ZM10.0335 11.6193C9.98319 11.6275 9.83492 11.6481 9.70403 11.665C9.4314 11.7003 8.72971 11.8699 8.5172 11.9519C8.33592 12.0218 8.26274 12.0865 8.18112 12.2489C7.90579 12.7965 7.80026 13.4608 7.90088 14.0126C7.9726 14.406 8.00535 14.4789 8.11037 14.4789C8.14187 14.4789 8.30329 14.4333 8.46906 14.3776C8.94529 14.2177 9.47202 14.0997 9.91455 14.0537C10.2061 14.0234 10.8932 14.0143 11.0952 14.038C11.7538 14.1155 12.0955 14.186 12.5699 14.3425C12.7669 14.4074 12.9494 14.4605 12.9756 14.4605C13.0708 14.4605 13.1344 14.3331 13.2367 13.9379C13.2523 13.8774 13.2727 13.7367 13.2818 13.6252C13.291 13.5137 13.3044 13.3991 13.3115 13.3705C13.3386 13.2626 13.2503 12.6737 13.1714 12.4358C13.1002 12.2211 13.0321 12.097 12.958 12.0472C12.8711 11.9887 12.528 11.8717 12.1935 11.7863C11.9236 11.7175 11.6714 11.6706 11.2966 11.6196C11.1297 11.5969 10.172 11.5966 10.0335 11.6193ZM9.89624 15.948C9.25552 16.0373 9.11014 16.0656 8.77993 16.1651C7.77227 16.4687 6.90182 16.9426 6.09522 17.6266C5.84477 17.8389 5.70963 17.9869 5.69381 18.0662C5.68134 18.1285 5.7296 18.2074 5.96077 18.5026C6.38298 19.0417 6.91328 19.5314 7.50333 19.9269C7.76896 20.105 7.84088 20.145 7.89477 20.145C7.95476 20.145 7.9828 20.1234 8.20089 19.909C8.55128 19.5646 8.84684 19.3806 9.30533 19.2214C9.5409 19.1396 9.72948 19.1026 10.0427 19.0769C10.6981 19.023 11.3875 19.092 11.8919 19.262C12.305 19.4013 12.5449 19.5493 12.8586 19.8584C13.2487 20.2428 13.4282 20.4932 13.6509 20.964L13.8509 21.3868C13.9184 21.5293 13.9628 21.5963 14.0362 21.6664L14.1327 21.7587H14.2952C14.4248 21.7587 14.4676 21.7517 14.5063 21.7242C14.5331 21.7053 14.9791 21.5267 15.4976 21.3274C16.0161 21.1281 16.4798 20.9453 16.5279 20.9211C16.7242 20.8228 16.8327 20.6735 16.8335 20.5009C16.8353 20.0876 16.3393 19.1019 15.7779 18.403C15.3909 17.9212 15.1711 17.7055 14.7173 17.3621C14.1378 16.9236 13.3663 16.5144 12.6717 16.2773C12.178 16.1087 11.7126 16.0046 11.26 15.9615C10.9947 15.9362 10.0477 15.9268 9.89624 15.948ZM15.7292 7.31621V3.12175L20.9723 7.31621H15.7292Z" fill="#511285"/>
<path fill-rule="evenodd" clip-rule="evenodd" d="M5.73087 0C4.93152 0 4.15074 0.26463 3.56299 0.755881C3.21325 1.0482 2.94643 1.40969 2.78702 1.8104C2.78703 1.8104 2.78705 1.8104 2.78707 1.8104H3.92743C4.00514 1.7089 4.09746 1.61247 4.2043 1.52316C4.59638 1.19546 5.14453 1 5.73087 1H18.6112L23.5174 5.10067V20.1512C23.5174 20.5658 23.321 20.986 22.9316 21.3115C22.7495 21.4636 22.5338 21.5873 22.2963 21.6761V21.8756C22.2963 22.1883 22.2142 22.4942 22.0595 22.7749C22.621 22.6712 23.1475 22.4343 23.5729 22.0788C24.1633 21.5853 24.5174 20.8948 24.5174 20.1512V4.86693C24.5174 4.7188 24.4517 4.57829 24.338 4.48329L19.1133 0.116359C19.0234 0.0411846 18.9099 0 18.7927 0H5.73087Z" fill="#511285"/>
</svg>
