<svg width="78" height="77" viewBox="0 0 78 77" fill="none" xmlns="http://www.w3.org/2000/svg">
<path fill-rule="evenodd" clip-rule="evenodd" d="M53.6122 5.20093H8.9373C6.5676 5.20093 4.29495 5.95396 2.61932 7.29437C0.943681 8.63478 0.00231934 10.4528 0.00231934 12.3484V69.5281C0.00231934 71.4238 0.943681 73.2417 2.61932 74.5821C4.29495 75.9226 6.5676 76.6756 8.9373 76.6756H62.5472C64.9169 76.6756 67.1896 75.9226 68.8652 74.5821C70.5408 73.2417 71.4822 71.4238 71.4822 69.5281V19.4959L53.6122 5.20093ZM31.7582 20.3028C31.6613 20.3294 31.318 20.3825 30.9953 20.4208C28.6777 20.6956 25.8749 21.5516 23.6908 22.6517C21.3017 23.855 18.7342 25.8141 17.1408 27.6495C15.8799 29.102 15.0597 30.2372 14.2101 31.7058C13.1202 33.5899 12.151 36.1606 11.7498 38.2312C11.3844 40.1175 11.2895 41.0846 11.2886 42.9341C11.2879 44.2626 11.3104 44.628 11.475 45.9635C11.693 47.733 12.3027 49.9968 13.016 51.6854C13.6322 53.1442 14.7038 55.0308 15.0655 55.2938C15.1892 55.3837 15.245 55.3916 15.3839 55.3387C15.4766 55.3034 16.0033 54.8311 16.5544 54.289C17.1055 53.7471 17.7149 53.1709 17.9085 53.0088C19.2525 51.8834 21.3488 50.5497 23.1021 49.7047C23.5379 49.4946 23.9538 49.2696 24.0264 49.2046C24.2238 49.0278 24.1926 48.7856 23.8884 48.1336C23.1652 46.5831 22.75 44.6657 22.75 42.8754C22.75 41.938 22.8088 41.3824 23.0236 40.2887C23.5192 37.7659 24.9108 35.3421 26.7538 33.7918C28.2031 32.5727 29.5197 31.9015 31.2437 31.5026C32.3501 31.2467 32.9221 31.1767 33.9075 31.1767C36.0669 31.1767 38.2248 31.838 40.0639 33.0634C40.7077 33.4924 41.9985 34.7242 42.5529 35.4388C43.3093 36.4138 43.9069 37.5706 44.3425 38.9033C44.7028 40.0055 44.8671 40.7964 44.9477 41.8172C45.0269 42.8192 45.0269 43.0858 44.9481 43.9923C44.8193 45.4727 44.4581 46.8404 43.8494 48.152C43.5715 48.7507 43.5236 48.8998 43.5661 49.0338C43.6096 49.1708 43.8237 49.3007 44.9954 49.9004C46.6947 50.7703 47.7543 51.4088 48.8298 52.211C49.939 53.0386 50.1969 53.2615 51.3396 54.3803L51.4022 54.4416C52.0524 55.0785 52.352 55.3719 52.5954 55.331C52.8033 55.2961 52.9702 55.0172 53.2798 54.4999L53.3147 54.4415C54.9977 51.6315 55.9155 48.8474 56.3727 45.165C56.4484 44.5551 56.456 41.1426 56.3826 40.6964C56.3537 40.5206 56.2981 40.1124 56.259 39.789C55.961 37.3226 55.0065 34.4384 53.6813 31.9998C53.0275 30.7966 52.0077 29.3084 51.0426 28.1492C48.6506 25.276 45.0267 22.7971 41.3733 21.5349C39.7785 20.9839 38.3236 20.6317 36.8931 20.4503C36.4896 20.3992 36.0469 20.3315 35.9093 20.2998C35.6095 20.2309 32.0099 20.2335 31.7582 20.3028ZM32.1689 36.647C32.0076 36.6734 31.5322 36.7394 31.1126 36.7937C30.2386 36.9069 27.989 37.4507 27.3077 37.7135C26.7266 37.9377 26.492 38.145 26.2303 38.6656C25.3476 40.4214 25.0093 42.5507 25.3319 44.3201C25.5618 45.5811 25.6668 45.8147 26.0035 45.8147C26.1045 45.8147 26.6219 45.6687 27.1534 45.4902C28.6801 44.9775 30.3688 44.599 31.7875 44.4516C32.7222 44.3544 34.925 44.3253 35.5727 44.4015C37.6842 44.6498 38.7794 44.8759 40.3004 45.3774C40.9318 45.5856 41.517 45.7559 41.601 45.7559C41.9061 45.7559 42.1102 45.3474 42.438 44.0805C42.4882 43.8865 42.5533 43.4353 42.5827 43.0779C42.6121 42.7205 42.655 42.353 42.6779 42.2614C42.7646 41.9155 42.4816 40.0275 42.2287 39.2648C42.0005 38.5764 41.7821 38.1787 41.5447 38.019C41.266 37.8316 40.166 37.4562 39.0938 37.1827C38.2283 36.962 37.4199 36.8116 36.2182 36.6482C35.6832 36.5754 32.6128 36.5746 32.1689 36.647ZM31.7288 50.5245C29.6747 50.811 29.2087 50.9016 28.15 51.2207C24.9196 52.1941 22.129 53.7132 19.5431 55.906C18.7402 56.5868 18.3069 57.0613 18.2562 57.3153C18.2162 57.5153 18.3709 57.7681 19.112 58.7145C20.4656 60.4429 22.1657 62.0127 24.0574 63.2806C24.9089 63.8515 25.1395 63.9799 25.3123 63.9799C25.5046 63.9799 25.5945 63.9106 26.2937 63.2233C27.417 62.119 28.3645 61.5291 29.8344 61.0188C30.5896 60.7567 31.1942 60.6382 32.1983 60.5556C34.2994 60.3827 36.5098 60.604 38.1268 61.1491C39.4511 61.5955 40.2202 62.07 41.2259 63.061C42.4765 64.2934 43.0518 65.0963 43.7659 66.6056L44.4073 67.961C44.6236 68.4178 44.7659 68.6327 45.0012 68.8575L45.3107 69.1532H45.8316C46.247 69.1532 46.3841 69.1308 46.5084 69.0427C46.594 68.9819 48.0241 68.4095 49.6864 67.7705C51.3486 67.1316 52.835 66.5455 52.9895 66.4681C53.6187 66.1527 53.9667 65.6741 53.9691 65.121C53.9748 63.7959 52.3848 60.6359 50.585 58.3951C49.3442 56.8505 48.6395 56.1589 47.1846 55.058C45.3269 53.6523 42.8534 52.3405 40.6267 51.5803C39.0439 51.0398 37.5518 50.706 36.1008 50.5679C35.2503 50.4869 32.2143 50.4568 31.7288 50.5245ZM50.4289 22.8519V9.40485L67.2377 22.8519H50.4289Z" fill="#5939C6"/>
<path fill-rule="evenodd" clip-rule="evenodd" d="M18.375 0C15.9408 0 13.578 0.806671 11.8117 2.28297C10.8284 3.10483 10.0704 4.10233 9.59058 5.20101H11.8556C12.1799 4.70243 12.5941 4.23562 13.0943 3.81753C14.4692 2.66832 16.3668 2 18.375 2H59.8871L76 15.4675V64C76 65.5275 75.2754 67.0377 73.9057 68.1825C73.213 68.7614 72.3876 69.2184 71.4823 69.5293C71.4822 70.2831 71.3331 71.0247 71.0483 71.7289C72.5882 71.3783 74.019 70.6944 75.1883 69.717C76.9599 68.2363 78 66.1855 78 64V15C78 14.7037 77.8686 14.4227 77.6413 14.2327L60.8913 0.232718C60.7114 0.0823693 60.4844 0 60.25 0H18.375Z" fill="#5939C6"/>
</svg>
