<svg width="325" height="118" viewBox="0 0 325 118" fill="none" xmlns="http://www.w3.org/2000/svg">
<path d="M74.6147 107.337C74.6147 107.337 73.205 114.5 50.1697 117.291C31.8378 119.512 20.2426 110.258 0 113.5L28.6642 90.4205L2.5 57.5C2.5 57.5 24.0045 69.0442 43.1973 65.3922C55.7609 63.0015 70.5919 58.9057 71.5074 61.0254C72.4229 63.156 78.7777 96.6738 74.6147 107.337Z" fill="#CB9834"/>
<path d="M74.6147 105.337C74.6147 105.337 73.205 112.5 50.1697 115.291C31.8378 117.512 20.2426 110.429 0 113.671L28.6642 88.4205L2.52414 57.6122C2.52414 57.6122 24.0045 67.0442 43.1973 63.3922C55.7609 61.0015 70.5919 56.9057 71.5074 59.0254C72.4229 61.156 78.7777 94.6738 74.6147 105.337Z" fill="#DCA436"/>
<path d="M38.5946 83.1676C38.5946 83.1676 23.3709 102.369 44.983 102.845C66.6001 103.32 74.4259 100.638 75.3372 103.3C76.2519 105.955 77.7002 77.2054 77.7002 77.2054C77.7002 77.2054 47.3628 69.8361 38.5946 83.1676Z" fill="#6E5128"/>
<path d="M249.638 103.728C249.638 103.728 250.914 110.921 273.893 114.202C292.18 116.811 303.821 107.827 324 111.5L295.893 87.7948L322.5 55.5C322.5 55.5 300.948 66.5225 281.826 62.4619C269.31 59.8035 254.557 55.393 253.602 57.4925C252.648 59.6038 245.673 92.979 249.638 103.728Z" fill="#CB9834"/>
<path d="M249.638 101.728C249.638 101.728 250.914 108.921 273.893 112.202C292.18 114.811 303.904 107.977 324.083 111.65L295.893 85.7948L322.598 55.5496C322.598 55.5496 300.948 64.5225 281.826 60.4619C269.31 57.8035 254.557 53.393 253.602 55.4925C252.648 57.6038 245.673 90.979 249.638 101.728Z" fill="#DCA436"/>
<path d="M286.115 80.6349C286.115 80.6349 300.98 100.157 279.363 100.172C257.742 100.188 249.967 97.338 249.007 99.9804C248.042 102.615 247.127 73.8403 247.127 73.8403C247.127 73.8403 277.595 67.1197 286.115 80.6349Z" fill="#6E5128"/>
<path d="M33.6833 32.6079C33.6833 32.6079 42.8064 64.5179 34.4838 82.6417C26.1646 100.76 35.3574 101.801 35.3574 101.801C35.3574 101.801 17.925 82.6786 75.8677 86.7921C133.805 90.8971 177.04 89.7199 218.447 83.2283C259.854 76.7316 290.513 78.0759 290.463 98.3009C290.463 98.3009 292.948 85.1616 292.099 56.4202C291.247 27.6779 294.954 17.0192 294.954 17.0192C294.954 17.0192 297.758 -2.15184 258.191 4.34311C218.622 10.8272 190.57 25.7286 107.819 12.106C25.067 -1.5225 33.7126 20.8884 33.6833 32.6079Z" fill="#DBA232"/>
<path d="M34.1204 30.482C34.1204 30.482 43.2435 62.3921 34.9209 80.5158C26.6017 98.6337 35.7945 99.6751 35.7945 99.6751C35.7945 99.6751 18.3622 80.5527 76.3049 84.6662C134.243 88.7713 177.478 87.594 218.884 81.1024C260.292 74.6058 290.95 75.9501 290.9 96.175C290.9 96.175 293.385 83.0358 292.536 54.2943C291.685 25.5521 295.391 14.8933 295.391 14.8933C295.391 14.8933 298.196 -4.27769 258.628 2.21726C219.06 8.7013 191.007 23.6027 108.256 9.98013C25.5041 -3.64836 34.1498 18.7626 34.1204 30.482Z" fill="#FFBD3D"/>
<g filter="url(#filter0_i)">
<path d="M170 34.4802V44.4802H154V34.4802" stroke="#DCA436" stroke-width="2" stroke-linecap="round" stroke-linejoin="round"/>
<path d="M172 29.4803H152V34.4803H172V29.4803Z" stroke="#DCA436" stroke-width="2" stroke-linecap="round" stroke-linejoin="round"/>
<path d="M162 44.4803V29.4803" stroke="#DCA436" stroke-width="2" stroke-linecap="round" stroke-linejoin="round"/>
<path d="M162 29.4803H157.5C156.837 29.4803 156.201 29.2169 155.732 28.7481C155.263 28.2792 155 27.6433 155 26.9803C155 26.3172 155.263 25.6814 155.732 25.2125C156.201 24.7437 156.837 24.4803 157.5 24.4803C161 24.4803 162 29.4803 162 29.4803Z" stroke="#DCA436" stroke-width="2" stroke-linecap="round" stroke-linejoin="round"/>
<path d="M162 29.4803H166.5C167.163 29.4803 167.799 29.2169 168.268 28.7481C168.737 28.2792 169 27.6433 169 26.9803C169 26.3172 168.737 25.6814 168.268 25.2125C167.799 24.7437 167.163 24.4803 166.5 24.4803C163 24.4803 162 29.4803 162 29.4803Z" stroke="#DCA436" stroke-width="2" stroke-linecap="round" stroke-linejoin="round"/>
</g>
<g filter="url(#filter1_i)">
<path d="M123.952 56.5125H129.232C132.432 56.5125 134.032 58.0059 134.032 60.9925C134.032 62.7659 133.365 64.0725 132.032 64.9125L133.972 70.1125H130.952L129.372 65.5525H126.712V70.1125H123.952V56.5125ZM129.272 63.1925C129.898 63.1925 130.378 62.9992 130.712 62.6125C131.045 62.2125 131.212 61.6792 131.212 61.0125C131.212 60.3459 131.038 59.8259 130.692 59.4525C130.345 59.0659 129.858 58.8725 129.232 58.8725H126.712V63.1925H129.272ZM139.114 58.9125V62.0925H143.954V64.4525H139.114V67.7125H145.154V70.1125H136.354V56.5125H145.154V58.9125H139.114ZM146.328 56.5125H149.228L150.908 67.7525H151.208L153.648 56.5125H156.848L159.288 67.7525H159.588L161.268 56.5125H164.168L161.568 70.1125H157.388L155.248 59.7725L153.108 70.1125H148.928L146.328 56.5125ZM172.571 67.6525H167.811L167.271 70.1125H164.511L167.571 56.5125H172.811L175.871 70.1125H173.111L172.571 67.6525ZM170.671 58.7925H169.711L168.331 65.2525H172.051L170.671 58.7925ZM177.682 56.5125H182.962C186.162 56.5125 187.762 58.0059 187.762 60.9925C187.762 62.7659 187.096 64.0725 185.762 64.9125L187.702 70.1125H184.682L183.102 65.5525H180.442V70.1125H177.682V56.5125ZM183.002 63.1925C183.629 63.1925 184.109 62.9992 184.442 62.6125C184.776 62.2125 184.942 61.6792 184.942 61.0125C184.942 60.3459 184.769 59.8259 184.422 59.4525C184.076 59.0659 183.589 58.8725 182.962 58.8725H180.442V63.1925H183.002ZM194.665 56.5125C196.211 56.5125 197.398 56.7325 198.225 57.1725C199.051 57.5992 199.625 58.2792 199.945 59.2125C200.278 60.1459 200.445 61.4392 200.445 63.0925C200.445 64.8125 200.285 66.1725 199.965 67.1725C199.645 68.1725 199.065 68.9125 198.225 69.3925C197.398 69.8725 196.211 70.1125 194.665 70.1125H190.085V56.5125H194.665ZM194.665 67.7125C195.531 67.7125 196.171 67.5392 196.585 67.1925C197.011 66.8459 197.285 66.3525 197.405 65.7125C197.538 65.0592 197.605 64.1325 197.605 62.9325C197.605 61.8659 197.538 61.0592 197.405 60.5125C197.271 59.9659 196.998 59.5659 196.585 59.3125C196.171 59.0459 195.531 58.9125 194.665 58.9125H192.845V67.7125H194.665Z" fill="#DCA436"/>
</g>
<path fill-rule="evenodd" clip-rule="evenodd" d="M268 78.2756V1.07703C297.73 -1.09529 295.391 14.8933 295.391 14.8933C295.391 14.8933 291.685 25.5521 292.536 54.2943C293.385 83.0358 290.9 96.175 290.9 96.175C290.927 85.4375 282.298 80.0217 268 78.2756Z" fill="white" fill-opacity="0.15"/>
<path fill-rule="evenodd" clip-rule="evenodd" d="M57 84.1572V6.06597C64.606 5.41089 74.6778 5.6452 88 7.13525V85.4349C84.1678 85.2034 80.2708 84.9471 76.3049 84.6661C68.6144 84.1202 62.2518 83.9835 57 84.1572Z" fill="white" fill-opacity="0.15"/>
<defs>
<filter id="filter0_i" x="151" y="23.4803" width="22" height="26" filterUnits="userSpaceOnUse" color-interpolation-filters="sRGB">
<feFlood flood-opacity="0" result="BackgroundImageFix"/>
<feBlend mode="normal" in="SourceGraphic" in2="BackgroundImageFix" result="shape"/>
<feColorMatrix in="SourceAlpha" type="matrix" values="0 0 0 0 0 0 0 0 0 0 0 0 0 0 0 0 0 0 127 0" result="hardAlpha"/>
<feOffset dy="4"/>
<feGaussianBlur stdDeviation="2"/>
<feComposite in2="hardAlpha" operator="arithmetic" k2="-1" k3="1"/>
<feColorMatrix type="matrix" values="0 0 0 0 0 0 0 0 0 0 0 0 0 0 0 0 0 0 0.25 0"/>
<feBlend mode="normal" in2="shape" result="effect1_innerShadow"/>
</filter>
<filter id="filter1_i" x="123.952" y="56.5126" width="76.4928" height="17.6" filterUnits="userSpaceOnUse" color-interpolation-filters="sRGB">
<feFlood flood-opacity="0" result="BackgroundImageFix"/>
<feBlend mode="normal" in="SourceGraphic" in2="BackgroundImageFix" result="shape"/>
<feColorMatrix in="SourceAlpha" type="matrix" values="0 0 0 0 0 0 0 0 0 0 0 0 0 0 0 0 0 0 127 0" result="hardAlpha"/>
<feOffset dy="4"/>
<feGaussianBlur stdDeviation="2"/>
<feComposite in2="hardAlpha" operator="arithmetic" k2="-1" k3="1"/>
<feColorMatrix type="matrix" values="0 0 0 0 0 0 0 0 0 0 0 0 0 0 0 0 0 0 0.25 0"/>
<feBlend mode="normal" in2="shape" result="effect1_innerShadow"/>
</filter>
</defs>
</svg>
