<svg width="145" height="37" viewBox="0 0 145 37" fill="none" xmlns="http://www.w3.org/2000/svg">
<path d="M0 13.4077C0 7.8849 4.47715 3.40775 10 3.40775H134.521C140.044 3.40775 144.521 7.8849 144.521 13.4077V27C144.521 32.5228 140.044 37 134.521 37H10C4.47716 37 0 32.5228 0 27V13.4077Z" fill="#DCA436"/>
<path d="M0 10.0486C0 4.52571 4.47715 0.0485535 10 0.0485535H134.521C140.044 0.0485535 144.521 4.52571 144.521 10.0486V23.6408C144.521 29.1636 140.044 33.6408 134.521 33.6408H10C4.47716 33.6408 0 29.1636 0 23.6408V10.0486Z" fill="#FFBD3D"/>
<g filter="url(#filter0_i)">
<path d="M54.8806 10.8086C56.2726 10.8086 57.3406 11.0066 58.0846 11.4026C58.8286 11.7866 59.3446 12.3986 59.6326 13.2386C59.9326 14.0786 60.0826 15.2426 60.0826 16.7306C60.0826 18.2786 59.9386 19.5026 59.6506 20.4026C59.3626 21.3026 58.8406 21.9686 58.0846 22.4006C57.3406 22.8326 56.2726 23.0486 54.8806 23.0486H50.7586V10.8086H54.8806ZM54.8806 20.8886C55.6606 20.8886 56.2366 20.7326 56.6086 20.4206C56.9926 20.1086 57.2386 19.6646 57.3466 19.0886C57.4666 18.5006 57.5266 17.6666 57.5266 16.5866C57.5266 15.6266 57.4666 14.9006 57.3466 14.4086C57.2266 13.9166 56.9806 13.5566 56.6086 13.3286C56.2366 13.0886 55.6606 12.9686 54.8806 12.9686H53.2426V20.8886H54.8806ZM66.7731 23.2646C65.5371 23.2646 64.5471 23.0426 63.8031 22.5986C63.0591 22.1546 62.5191 21.4766 62.1831 20.5646C61.8591 19.6406 61.6971 18.4466 61.6971 16.9826C61.6971 15.5066 61.8591 14.3066 62.1831 13.3826C62.5191 12.4466 63.0591 11.7506 63.8031 11.2946C64.5471 10.8266 65.5371 10.5926 66.7731 10.5926C68.0091 10.5926 68.9991 10.8266 69.7431 11.2946C70.4871 11.7506 71.0211 12.4466 71.3451 13.3826C71.6811 14.3066 71.8491 15.5066 71.8491 16.9826C71.8491 18.4226 71.6871 19.5986 71.3631 20.5106C71.0511 21.4226 70.5231 22.1126 69.7791 22.5806C69.0351 23.0366 68.0331 23.2646 66.7731 23.2646ZM66.7731 21.1046C67.4211 21.1046 67.9251 20.9726 68.2851 20.7086C68.6571 20.4326 68.9151 20.0006 69.0591 19.4126C69.2151 18.8126 69.2931 18.0026 69.2931 16.9826C69.2931 15.9626 69.2151 15.1526 69.0591 14.5526C68.9031 13.9406 68.6391 13.4906 68.2671 13.2026C67.9071 12.9026 67.4091 12.7526 66.7731 12.7526C66.1371 12.7526 65.6331 12.9026 65.2611 13.2026C64.9011 13.4906 64.6431 13.9406 64.4871 14.5526C64.3311 15.1526 64.2531 15.9626 64.2531 16.9826C64.2531 17.9306 64.3191 18.6986 64.4511 19.2866C64.5831 19.8746 64.8291 20.3246 65.1891 20.6366C65.5611 20.9486 66.0891 21.1046 66.7731 21.1046ZM83.7893 10.8086V23.0486H79.7033L76.6433 12.9686H76.4633V23.0486H73.9793V10.8086H78.1733L81.1253 20.8886H81.3053V10.8086H83.7893ZM88.9438 12.9686V15.8306H93.2998V17.9546H88.9438V20.8886H94.3798V23.0486H86.4598V10.8086H94.3798V12.9686H88.9438Z" fill="#DCA436"/>
</g>
<defs>
<filter id="filter0_i" x="50.7585" y="10.5926" width="43.6212" height="16.672" filterUnits="userSpaceOnUse" color-interpolation-filters="sRGB">
<feFlood flood-opacity="0" result="BackgroundImageFix"/>
<feBlend mode="normal" in="SourceGraphic" in2="BackgroundImageFix" result="shape"/>
<feColorMatrix in="SourceAlpha" type="matrix" values="0 0 0 0 0 0 0 0 0 0 0 0 0 0 0 0 0 0 127 0" result="hardAlpha"/>
<feOffset dy="4"/>
<feGaussianBlur stdDeviation="2"/>
<feComposite in2="hardAlpha" operator="arithmetic" k2="-1" k3="1"/>
<feColorMatrix type="matrix" values="0 0 0 0 0 0 0 0 0 0 0 0 0 0 0 0 0 0 0.25 0"/>
<feBlend mode="normal" in2="shape" result="effect1_innerShadow"/>
</filter>
</defs>
</svg>
