<svg width="185" height="14" viewBox="0 0 185 14" fill="none" xmlns="http://www.w3.org/2000/svg">
<g filter="url(#filter0_i)">
<path d="M3.82927 3.73H0.931266V0.903999H9.93127V3.73H7.06927V13H3.82927V3.73ZM21.1879 0.903999V13H17.9479V8.302H14.5819V13H11.3779V0.903999H14.5819V5.53H17.9479V0.903999H21.1879ZM23.5771 0.903999H26.7811V13H23.5771V0.903999ZM32.8917 13.252C31.8597 13.252 30.6837 13.078 29.3637 12.73L28.7157 12.586L29.0397 10.138C30.6237 10.354 31.8477 10.462 32.7117 10.462C33.6477 10.462 34.1157 10.138 34.1157 9.49C34.1157 9.262 34.0077 9.082 33.7917 8.95C33.5877 8.818 33.2817 8.674 32.8737 8.518C32.6097 8.422 32.4177 8.344 32.2977 8.284C30.9417 7.828 29.9757 7.306 29.3997 6.718C28.8357 6.13 28.5537 5.392 28.5537 4.504C28.5537 3.244 28.9377 2.29 29.7057 1.642C30.4737 0.993999 31.5177 0.669999 32.8377 0.669999C33.3777 0.669999 33.8877 0.705999 34.3677 0.778C34.8597 0.849999 35.7537 1.006 37.0497 1.246L36.7977 3.73C35.2377 3.55 34.0377 3.46 33.1977 3.46C32.2137 3.46 31.7217 3.73 31.7217 4.27C31.7217 4.45 31.8417 4.606 32.0817 4.738C32.3217 4.858 32.6997 5.014 33.2157 5.206C33.7437 5.398 34.0857 5.53 34.2417 5.602C35.0337 5.926 35.6457 6.244 36.0777 6.556C36.5097 6.856 36.8217 7.222 37.0137 7.654C37.2057 8.086 37.3017 8.632 37.3017 9.292C37.3017 10.132 37.1037 10.852 36.7077 11.452C36.3237 12.04 35.7957 12.49 35.1237 12.802C34.4637 13.102 33.7197 13.252 32.8917 13.252ZM42.9833 0.903999H46.1873V13H42.9833V0.903999ZM52.2979 13.252C51.2659 13.252 50.0899 13.078 48.7699 12.73L48.1219 12.586L48.4459 10.138C50.0299 10.354 51.2539 10.462 52.1179 10.462C53.0539 10.462 53.5219 10.138 53.5219 9.49C53.5219 9.262 53.4139 9.082 53.1979 8.95C52.9939 8.818 52.6879 8.674 52.2799 8.518C52.0159 8.422 51.8239 8.344 51.7039 8.284C50.3479 7.828 49.3819 7.306 48.8059 6.718C48.2419 6.13 47.9599 5.392 47.9599 4.504C47.9599 3.244 48.3439 2.29 49.1119 1.642C49.8799 0.993999 50.9239 0.669999 52.2439 0.669999C52.7839 0.669999 53.2939 0.705999 53.7739 0.778C54.2659 0.849999 55.1599 1.006 56.4559 1.246L56.2039 3.73C54.6439 3.55 53.4439 3.46 52.6039 3.46C51.6199 3.46 51.1279 3.73 51.1279 4.27C51.1279 4.45 51.2479 4.606 51.4879 4.738C51.7279 4.858 52.1059 5.014 52.6219 5.206C53.1499 5.398 53.4919 5.53 53.6479 5.602C54.4399 5.926 55.0519 6.244 55.4839 6.556C55.9159 6.856 56.2279 7.222 56.4199 7.654C56.6119 8.086 56.7079 8.632 56.7079 9.292C56.7079 10.132 56.5099 10.852 56.1139 11.452C55.7299 12.04 55.2019 12.49 54.5299 12.802C53.8699 13.102 53.1259 13.252 52.2979 13.252ZM64.7116 8.248L61.0576 0.903999H64.6036L66.2956 5.152L67.9876 0.903999H71.5336L67.9336 8.248V13H64.7116V8.248ZM76.7535 13.234C74.9175 13.234 73.5915 12.736 72.7755 11.74C71.9715 10.744 71.5695 9.166 71.5695 7.006C71.5695 4.822 71.9715 3.22 72.7755 2.2C73.5795 1.18 74.9055 0.669999 76.7535 0.669999C78.6015 0.669999 79.9275 1.18 80.7315 2.2C81.5355 3.22 81.9375 4.816 81.9375 6.988C81.9375 9.064 81.5415 10.624 80.7495 11.668C79.9575 12.712 78.6255 13.234 76.7535 13.234ZM76.7535 10.462C77.2215 10.462 77.5875 10.348 77.8515 10.12C78.1275 9.88 78.3255 9.514 78.4455 9.022C78.5655 8.518 78.6255 7.84 78.6255 6.988C78.6255 5.716 78.4875 4.81 78.2115 4.27C77.9355 3.718 77.4495 3.442 76.7535 3.442C76.0695 3.442 75.5835 3.718 75.2955 4.27C75.0195 4.822 74.8815 5.734 74.8815 7.006C74.8815 8.134 75.0015 8.992 75.2415 9.58C75.4815 10.168 75.9855 10.462 76.7535 10.462ZM88.5518 13.234C86.9078 13.234 85.6838 12.862 84.8798 12.118C84.0758 11.362 83.6738 10.198 83.6738 8.626V0.903999H86.8958V8.68C86.8958 9.868 87.4538 10.462 88.5698 10.462C89.1098 10.462 89.5118 10.312 89.7758 10.012C90.0398 9.7 90.1718 9.256 90.1718 8.68V0.903999H93.4118V8.626C93.4118 10.198 93.0098 11.362 92.2058 12.118C91.4138 12.862 90.1958 13.234 88.5518 13.234ZM95.7001 0.903999H100.542C102.054 0.903999 103.188 1.258 103.944 1.966C104.712 2.674 105.096 3.718 105.096 5.098C105.096 6.478 104.604 7.636 103.62 8.572L104.934 13H101.424L100.542 9.346H98.9041V13H95.7001V0.903999ZM100.596 6.61C100.98 6.61 101.274 6.466 101.478 6.178C101.694 5.878 101.802 5.518 101.802 5.098C101.802 4.69 101.682 4.342 101.442 4.054C101.214 3.766 100.914 3.622 100.542 3.622H98.9041V6.61H100.596ZM114.825 0.903999H119.667C121.179 0.903999 122.313 1.258 123.069 1.966C123.837 2.674 124.221 3.718 124.221 5.098C124.221 6.478 123.729 7.636 122.745 8.572L124.059 13H120.549L119.667 9.346H118.029V13H114.825V0.903999ZM119.721 6.61C120.105 6.61 120.399 6.466 120.603 6.178C120.819 5.878 120.927 5.518 120.927 5.098C120.927 4.69 120.807 4.342 120.567 4.054C120.339 3.766 120.039 3.622 119.667 3.622H118.029V6.61H119.721ZM129.244 3.694V5.584H133.096V8.32H129.244V10.21H134.176V13H126.04V0.903999H134.176V3.694H129.244ZM135.034 0.903999H138.418L139.516 10.282H139.624L141.586 0.831999H145.312L147.274 10.282H147.382L148.48 0.903999H151.882L149.668 13H145.096L143.458 4.576L141.82 13H137.23L135.034 0.903999ZM158.999 11.452H155.471L155.237 13H151.997L154.319 0.903999H160.151L162.473 13H159.233L158.999 11.452ZM157.631 3.532H156.839L156.011 8.68H158.459L157.631 3.532ZM163.903 0.903999H168.745C170.257 0.903999 171.391 1.258 172.147 1.966C172.915 2.674 173.299 3.718 173.299 5.098C173.299 6.478 172.807 7.636 171.823 8.572L173.137 13H169.627L168.745 9.346H167.107V13H163.903V0.903999ZM168.799 6.61C169.183 6.61 169.477 6.466 169.681 6.178C169.897 5.878 170.005 5.518 170.005 5.098C170.005 4.69 169.885 4.342 169.645 4.054C169.417 3.766 169.117 3.622 168.745 3.622H167.107V6.61H168.799ZM179.024 0.903999C180.56 0.903999 181.706 1.042 182.462 1.318C183.23 1.594 183.782 2.152 184.118 2.992C184.454 3.82 184.622 5.098 184.622 6.826C184.622 8.386 184.49 9.592 184.226 10.444C183.974 11.296 183.446 11.938 182.642 12.37C181.85 12.79 180.644 13 179.024 13H175.118V0.903999H179.024ZM179.006 10.21C179.69 10.21 180.194 10.078 180.518 9.814C180.842 9.538 181.052 9.148 181.148 8.644C181.244 8.14 181.292 7.426 181.292 6.502C181.292 5.758 181.238 5.194 181.13 4.81C181.022 4.414 180.806 4.132 180.482 3.964C180.158 3.784 179.666 3.694 179.006 3.694H178.322V10.21H179.006Z" fill="#F6921E"/>
</g>
<defs>
<filter id="filter0_i" x="0.931274" y="0.670013" width="183.691" height="16.582" filterUnits="userSpaceOnUse" color-interpolation-filters="sRGB">
<feFlood flood-opacity="0" result="BackgroundImageFix"/>
<feBlend mode="normal" in="SourceGraphic" in2="BackgroundImageFix" result="shape"/>
<feColorMatrix in="SourceAlpha" type="matrix" values="0 0 0 0 0 0 0 0 0 0 0 0 0 0 0 0 0 0 127 0" result="hardAlpha"/>
<feOffset dy="4"/>
<feGaussianBlur stdDeviation="2"/>
<feComposite in2="hardAlpha" operator="arithmetic" k2="-1" k3="1"/>
<feColorMatrix type="matrix" values="0 0 0 0 0 0 0 0 0 0 0 0 0 0 0 0 0 0 0.25 0"/>
<feBlend mode="normal" in2="shape" result="effect1_innerShadow"/>
</filter>
</defs>
</svg>
