<svg xmlns="http://www.w3.org/2000/svg" width="48" height="48" viewBox="0 0 48 48">
  <path id="share_exam" d="M261,48a24,24,0,1,0-24-24A24,24,0,0,0,261,48Zm10.5-32.25a3.75,3.75,0,0,1-6.375,2.678,1.022,1.022,0,0,1-.108.073l-8.525,4.975a1.14,1.14,0,0,1-.117.059,3.79,3.79,0,0,1,0,1.931,1.047,1.047,0,0,1,.116.058l8.537,4.975a1.1,1.1,0,0,1,.1.068,3.74,3.74,0,1,1-1,1.713.94.94,0,0,1-.105-.053l-8.538-4.975a1.023,1.023,0,0,1-.109-.073,3.75,3.75,0,1,1,0-5.356,1.022,1.022,0,0,1,.108-.073l8.525-4.975a1.138,1.138,0,0,1,.117-.058A3.793,3.793,0,0,1,264,15.75a3.75,3.75,0,0,1,7.5,0Z" transform="translate(-237)" fill="#fff" fill-rule="evenodd"/>
</svg>
