<svg xmlns="http://www.w3.org/2000/svg" width="18" height="17.214" viewBox="0 0 18 17.214">
  <g id="star_blank" transform="translate(0 -1.047)" fill="none">
    <path d="M9.87,1.587,11.9,5.7a.969.969,0,0,0,.73.53l4.54.66a.969.969,0,0,1,.537,1.653l-3.285,3.2a.969.969,0,0,0-.279.858l.775,4.521a.97.97,0,0,1-1.407,1.022l-4.06-2.135a.97.97,0,0,0-.9,0l-4.06,2.135a.969.969,0,0,1-1.407-1.022L3.858,12.6a.969.969,0,0,0-.279-.858L.294,8.544A.969.969,0,0,1,.832,6.891l4.54-.66A.969.969,0,0,0,6.1,5.7l2.03-4.114A.969.969,0,0,1,9.87,1.587Z" stroke="none"/>
    <path d="M 9.00056266784668 2.085948944091797 L 6.998176574707031 6.14332103729248 C 6.711246490478516 6.724781036376953 6.156816482543945 7.127511024475098 5.515286445617676 7.2205810546875 L 1.037113189697266 7.871397972106934 L 4.277576446533203 11.03000068664551 C 4.741846084594727 11.48280143737793 4.95340633392334 12.13454055786133 4.843576431274414 12.77286148071289 L 4.078770637512207 17.2332649230957 L 8.084446907043457 15.12745094299316 C 8.365826606750488 14.97964096069336 8.682636260986328 14.90151119232178 9.000606536865234 14.90151119232178 C 9.318576812744141 14.90151119232178 9.63538646697998 14.97964096069336 9.91706657409668 15.12760162353516 L 13.92251396179199 17.23321533203125 L 13.1577262878418 12.77340126037598 C 13.04780673980713 12.13454055786133 13.25936698913574 11.48280143737793 13.72383689880371 11.02980136871338 L 16.96405792236328 7.871316909790039 L 12.48615646362305 7.220611572265625 C 11.84439659118652 7.127511024475098 11.28996658325195 6.724781036376953 11.00306701660156 6.14337158203125 L 9.00056266784668 2.085948944091797 M 9.000468254089355 1.0467529296875 C 9.346136093139648 1.0467529296875 9.691851615905762 1.226886749267578 9.869636535644531 1.587150573730469 L 11.89980697631836 5.700811386108398 C 12.04098701477051 5.986921310424805 12.31394672393799 6.185161590576172 12.62972640991211 6.230971336364746 L 17.16954612731934 6.890670776367188 C 17.96478652954102 7.006320953369141 18.28206634521484 7.983290672302246 17.70683670043945 8.54387092590332 L 14.42184638977051 11.74589157104492 C 14.1935567855835 11.96854114532471 14.08917617797852 12.28957176208496 14.1432466506958 12.60384178161621 L 14.9185962677002 17.1252613067627 C 15.02614402770996 17.7518367767334 14.52806377410889 18.26067352294922 13.96316432952881 18.26067352294922 C 13.8141393661499 18.26067352294922 13.66052055358887 18.22528457641602 13.51207637786865 18.14730072021484 L 9.451736450195313 16.01274108886719 C 9.310556411743164 15.93858623504639 9.155581474304199 15.90150833129883 9.000606536865234 15.90150833129883 C 8.84563159942627 15.90150833129883 8.690656661987305 15.93858623504639 8.549476623535156 16.01274108886719 L 4.489136695861816 18.14730072021484 C 4.340693473815918 18.22536087036133 4.186929702758789 18.26081848144531 4.037904739379883 18.26081848144531 C 3.473005294799805 18.26081848144531 2.975068092346191 17.7518367767334 3.082616806030273 17.1252613067627 L 3.857966423034668 12.60384178161621 C 3.912036895751953 12.28957176208496 3.807656288146973 11.96854114532471 3.579366683959961 11.74589157104492 L 0.2943668365478516 8.54387092590332 C -0.280853271484375 7.98292064666748 0.03642654418945313 7.005941390991211 0.8316669464111328 6.890670776367188 L 5.371486663818359 6.230971336364746 C 5.687256813049316 6.185161590576172 5.960227012634277 5.986921310424805 6.101406097412109 5.700811386108398 L 8.131576538085938 1.587150573730469 C 8.309176445007324 1.226886749267578 8.654799461364746 1.0467529296875 9.000468254089355 1.0467529296875 Z" stroke="none" fill="#efa30b"/>
  </g>
</svg>
