<svg xmlns="http://www.w3.org/2000/svg" xmlns:xlink="http://www.w3.org/1999/xlink" width="173.346" height="166.556" viewBox="0 0 173.346 166.556">
  <defs>
    <linearGradient id="linear-gradient" x1="0.5" y1="0.043" x2="0.5" y2="0.867" gradientUnits="objectBoundingBox">
      <stop offset="0" stop-color="#fff"/>
      <stop offset="1" stop-color="#fff9e5"/>
    </linearGradient>
    <filter id="Path_3" x="0" y="0" width="173.346" height="166.556" filterUnits="userSpaceOnUse">
      <feOffset dy="3" input="SourceAlpha"/>
      <feGaussianBlur stdDeviation="3" result="blur"/>
      <feFlood flood-opacity="0.161"/>
      <feComposite operator="in" in2="blur"/>
      <feComposite in="SourceGraphic"/>
    </filter>
  </defs>
  <g id="star_b" transform="translate(-88.474 -70.398)">
    <path id="Path_1" data-name="Path 1" d="M348.96,193.091a11.475,11.475,0,0,1-5.13-1.507l-37.681-19.811-37.68,19.809a11.455,11.455,0,0,1-5.132,1.509,4.172,4.172,0,0,1-3.362-1.413c-1.214-1.441-1.59-3.938-1.058-7.033l7.2-41.959-30.488-29.72c-2.626-2.561-3.755-5.189-3.1-7.21s3.116-3.485,6.746-4.014L281.4,95.62l18.84-38.174c1.626-3.294,3.778-5.182,5.9-5.182s4.279,1.887,5.9,5.181L330.893,95.62l42.134,6.122c3.63.529,6.089,1.992,6.745,4.014s-.473,4.649-3.1,7.21l-30.489,29.72,7.2,41.961c.531,3.1.156,5.592-1.057,7.033a4.181,4.181,0,0,1-3.363,1.411Z" transform="translate(-131.001 28)" opacity="0.2" fill="url(#linear-gradient)"/>
    <path id="Path_2" data-name="Path 2" d="M306.148,53.552c1.594,0,3.37,1.67,4.749,4.463l18.541,37.568.6,1.214,1.34.195,41.463,6.025c3.081.449,5.214,1.622,5.706,3.137s-.544,3.716-2.773,5.889l-30,29.248-.969.946.229,1.333,7.082,41.293c.459,2.679.177,4.859-.773,5.986a2.918,2.918,0,0,1-2.379.954,10.218,10.218,0,0,1-4.531-1.36l-37.08-19.5-1.2-.631-1.2.631-37.081,19.495a10.21,10.21,0,0,1-4.532,1.36,2.92,2.92,0,0,1-2.379-.955c-.949-1.128-1.231-3.309-.772-5.986l7.082-41.292.228-1.334-.97-.945-30-29.247c-2.229-2.174-3.265-4.375-2.773-5.89s2.625-2.688,5.706-3.137l41.464-6.025,1.34-.195.6-1.214L301.4,58.016c1.38-2.794,3.155-4.464,4.748-4.464m0-2.575c-2.558,0-5.116,1.965-7.058,5.9L280.549,94.443l-41.464,6.025c-8.672,1.264-10.633,7.3-4.36,13.421l30,29.246-7.081,41.291c-1.075,6.266,1.33,9.952,5.69,9.952a12.6,12.6,0,0,0,5.732-1.654l37.08-19.5,37.081,19.5a12.592,12.592,0,0,0,5.73,1.654c4.361,0,6.765-3.685,5.69-9.949l-7.081-41.294,30-29.246c6.274-6.119,4.312-12.157-4.36-13.421l-41.463-6.025L313.207,56.875c-1.941-3.932-4.5-5.9-7.059-5.9Z" transform="translate(-131.001 28)" fill="#fff"/>
    <g id="Group_1" data-name="Group 1" transform="translate(-131.001 28)">
      <g transform="matrix(1, 0, 0, 1, 219.48, 42.4)" filter="url(#Path_3)">
        <path id="Path_3-2" data-name="Path 3" d="M306.149,50.977c2.558,0,5.117,1.966,7.058,5.9l18.542,37.568,41.463,6.025c8.672,1.264,10.634,7.3,4.36,13.421l-30,29.246,7.081,41.294c1.075,6.264-1.329,9.949-5.69,9.949a12.592,12.592,0,0,1-5.73-1.654l-37.081-19.5-37.08,19.5a12.6,12.6,0,0,1-5.732,1.654c-4.36,0-6.765-3.686-5.69-9.952l7.081-41.291-30-29.246c-6.273-6.119-4.312-12.157,4.36-13.421l41.464-6.025,18.535-37.57c1.943-3.933,4.5-5.9,7.059-5.9m0-2.577c-2.146,0-6.218.953-9.368,7.335L278.839,92.088l-40.125,5.831c-7.039,1.025-9.2,4.6-9.864,6.644s-1.015,6.2,4.076,11.169l29.035,28.3-6.853,39.954c-.932,5.433.526,8.533,1.911,10.177a7.973,7.973,0,0,0,6.318,2.787,15.063,15.063,0,0,0,6.931-1.95l35.881-18.864L342.031,195a15.059,15.059,0,0,0,6.929,1.95,7.972,7.972,0,0,0,6.318-2.786c1.386-1.643,2.843-4.743,1.912-10.174l-6.854-39.958,29.034-28.3c5.091-4.965,4.74-9.13,4.077-11.17s-2.824-5.619-9.862-6.644l-40.126-5.831L315.517,55.734c-3.151-6.381-7.217-7.334-9.368-7.334Z" transform="translate(-219.48 -42.4)" fill="#ffc71c"/>
      </g>
    </g>
    <g id="Group_2" data-name="Group 2" transform="translate(-131.001 28)" opacity="0">
      <path id="Path_4" data-name="Path 4" d="M373.585,97.632,333.459,91.8,315.517,55.448c-3.151-6.381-7.222-7.334-9.368-7.334s-6.218.953-9.368,7.335L278.839,91.8l-40.125,5.829c-7.039,1.027-9.2,4.6-9.864,6.644-.047.146-.093.306-.134.473,21.626,13.1,48.417,20.854,77.433,20.854s55.807-7.753,77.433-20.853c-.043-.168-.088-.328-.135-.474C382.785,102.234,380.623,98.659,373.585,97.632Z" fill="#fff9e8"/>
    </g>
  </g>
</svg>
