<svg xmlns="http://www.w3.org/2000/svg" width="49.935" height="47.845" viewBox="0 0 49.935 47.845">
  <g id="star_y2" transform="translate(-0.002 -1.048)">
    <g id="Path_1" data-name="Path 1" fill="none">
      <path d="M48.856,22.73a3.582,3.582,0,0,0-1.986-6.109L34.778,14.864A1.579,1.579,0,0,1,33.588,14L28.182,3.043a3.582,3.582,0,0,0-6.423,0L16.352,14a1.581,1.581,0,0,1-1.191.865L3.069,16.622a3.582,3.582,0,0,0-1.986,6.109l8.749,8.528a1.583,1.583,0,0,1,.456,1.4L8.224,44.7A3.506,3.506,0,0,0,9,47.6a3.619,3.619,0,0,0,4.415.871L24.234,42.79a1.619,1.619,0,0,1,1.472,0l10.815,5.686a3.544,3.544,0,0,0,1.666.417A3.591,3.591,0,0,0,40.935,47.6a3.5,3.5,0,0,0,.781-2.9L39.651,32.659a1.582,1.582,0,0,1,.456-1.4Z" stroke="none"/>
      <path d="M 24.970458984375 5.574146270751953 L 19.93899726867676 15.77013397216797 C 19.12553787231445 17.41852569580078 17.55382919311523 18.56002426147461 15.73616790771484 18.82342529296875 L 4.482372283935547 20.45863723754883 L 12.62287902832031 28.39351463317871 C 13.93850708007813 29.67489433288574 14.53971862792969 31.5207347869873 14.23049926757813 33.33480453491211 L 12.31054306030273 44.53546142578125 L 22.37372779846191 39.24890518188477 L 22.39457702636719 39.23795318603516 L 22.41554832458496 39.22724533081055 C 23.20280838012695 38.82542419433594 24.08612823486328 38.61303329467773 24.96999740600586 38.61303329467773 C 25.85386848449707 38.61303329467773 26.7371883392334 38.82542419433594 27.52444839477539 39.22724533081055 L 27.54599761962891 39.23824310302734 L 27.56741714477539 39.24950408935547 L 37.63016510009766 44.54000854492188 L 35.70808792114258 33.33239364624023 C 35.39872741699219 31.5209846496582 36.00020599365234 29.67434501647949 37.3148078918457 28.39479446411133 L 45.45669174194336 20.4576416015625 L 34.20549774169922 18.82282447814941 C 32.38619995117188 18.55972480773926 30.81440734863281 17.41850280761719 30.00085830688477 15.76983261108398 L 24.970458984375 5.574146270751953 M 24.97049713134766 1.047504425048828 C 26.33346748352051 1.047504425048828 27.57832717895508 1.821002960205078 28.18199729919434 3.042995452880859 L 33.58800506591797 13.99999618530273 C 33.81816864013672 14.46641540527344 34.26324844360352 14.78956604003906 34.77799987792969 14.86400604248047 L 46.86999893188477 16.62099456787109 C 48.21907806396484 16.81703567504883 49.33993911743164 17.76187515258789 49.76140594482422 19.05833435058594 C 50.18288803100586 20.35480499267578 49.8318977355957 21.77812385559082 48.85599899291992 22.72999382019043 L 40.10699844360352 31.25900459289551 C 39.73386764526367 31.62218475341797 39.56333923339844 32.14572525024414 39.65099716186523 32.65900421142578 L 41.71599578857422 44.69999313354492 C 41.90471649169922 45.73491287231445 41.61792755126953 46.79982376098633 40.93499755859375 47.59999465942383 C 40.25529861450195 48.41619491577148 39.24913787841797 48.88960266113281 38.18699645996094 48.89299392700195 C 37.60587692260742 48.89269256591797 37.03374862670898 48.74948501586914 36.52099609375 48.47600555419922 L 25.70599746704102 42.79000473022461 C 25.4748477935791 42.67202377319336 25.2224235534668 42.61303329467773 24.96999740600586 42.61303329467773 C 24.71757316589355 42.61303329467773 24.46514701843262 42.67202377319336 24.2339973449707 42.79000473022461 L 13.41999816894531 48.47099304199219 C 12.89332962036133 48.74262619018555 12.32536697387695 48.87377548217773 11.76267242431641 48.87377548217773 C 10.72785949707031 48.87377548217773 9.711269378662109 48.42994689941406 9.004997253417969 47.60000610351563 C 8.322849273681641 46.79942321777344 8.036159515380859 45.73488616943359 8.2239990234375 44.70000457763672 L 10.28799819946289 32.65900421142578 C 10.37548828125 32.14574432373047 10.20498657226563 31.62227439880371 9.831996917724609 31.25899505615234 L 1.082996368408203 22.73099517822266 C 0.107086181640625 21.77912521362305 -0.2438926696777344 20.35580444335938 0.1775779724121094 19.05933380126953 C 0.5990562438964844 17.76286315917969 1.719905853271484 16.81803512573242 3.068996429443359 16.62199401855469 L 15.1609992980957 14.86499404907227 C 15.67619705200195 14.79033279418945 16.12161636352539 14.46683502197266 16.35199737548828 13.99999618530273 L 21.75899696350098 3.042995452880859 C 22.36266708374023 1.821002960205078 23.6075382232666 1.047504425048828 24.97049713134766 1.047504425048828 Z" stroke="none" fill="#f9d050"/>
    </g>
  </g>
</svg>
