<svg xmlns="http://www.w3.org/2000/svg" width="49.935" height="47.845" viewBox="0 0 49.935 47.845">
  <g id="star_wh2" transform="translate(-0.002 -1.048)">
    <g id="Path_1" data-name="Path 1" fill="#fff">
      <path d="M 38.18551254272461 47.39299011230469 C 37.85233306884766 47.39244842529297 37.52091217041016 47.30931091308594 37.2269287109375 47.15250396728516 L 37.22298812866211 47.15039443969727 L 37.21902847290039 47.1483154296875 L 26.40402793884277 41.46231460571289 L 26.39599800109863 41.45809555053711 L 26.38791847229004 41.45397567749023 C 25.950927734375 41.23092269897461 25.46061706542969 41.11303329467773 24.96999740600586 41.11303329467773 C 24.47937774658203 41.11303329467773 23.98906707763672 41.23092269897461 23.55207824707031 41.45397567749023 L 23.54421806335449 41.45798492431641 L 23.53639793395996 41.46209335327148 L 12.72803115844727 47.1401252746582 C 12.42575645446777 47.29516983032227 12.10098838806152 47.37377548217773 11.76266765594482 47.37377548217773 C 11.13949775695801 47.37377548217773 10.55073738098145 47.10190582275391 10.14735794067383 46.62788391113281 C 9.754837989807129 46.1672248840332 9.591967582702637 45.56244277954102 9.699887275695801 44.9678955078125 L 9.701197624206543 44.96066284179688 L 9.702437400817871 44.95343399047852 L 11.76643753051758 32.91243362426758 C 11.93707752227783 31.91133499145508 11.60508728027344 30.89203453063965 10.87857723236084 30.18444442749023 L 2.130007743835449 21.6568546295166 C 1.558977723121643 21.09989356994629 1.357327699661255 20.28214454650879 1.604097723960876 19.52309417724609 C 1.850867629051208 18.76402473449707 2.494827747344971 18.22118377685547 3.284687757492065 18.10641479492188 L 15.37668800354004 16.34940528869629 C 16.3803768157959 16.20395469665527 17.248046875 15.57380485534668 17.69711685180664 14.6638240814209 L 23.10412788391113 3.706794500350952 C 23.45727729797363 2.991934537887573 24.17252731323242 2.547504425048828 24.97049713134766 2.547504425048828 C 25.76846694946289 2.547504425048828 26.48371696472168 2.991934537887573 26.8371467590332 3.707364559173584 L 32.24282836914063 14.66369438171387 C 32.69180679321289 15.5735445022583 33.55925750732422 16.20336532592773 34.56330871582031 16.34856414794922 L 46.6543083190918 18.10541534423828 C 47.44416809082031 18.22018432617188 48.08813858032227 18.76302528381348 48.33490753173828 19.52208518981934 C 48.58166885375977 20.2811450958252 48.3800163269043 21.0988941192627 47.80863952636719 21.65620422363281 L 39.0599365234375 30.1849250793457 C 38.33370590209961 30.89177513122559 38.0015983581543 31.91137504577637 38.17240905761719 32.91152572631836 L 40.23757934570313 44.95353317260742 L 40.23891830444336 44.96132278442383 L 40.24032592773438 44.96908569335938 C 40.34863662719727 45.56301498413086 40.18596649169922 46.16702270507813 39.79404830932617 46.62623596191406 L 39.78815841674805 46.63313293457031 L 39.7823486328125 46.64011383056641 C 39.38623046875 47.11577224731445 38.80436325073242 47.39005279541016 38.18551254272461 47.39299011230469 Z" stroke="none"/>
      <path d="M 24.97049713134766 4.047504425048828 C 24.74743843078613 4.047504425048828 24.54748725891113 4.171733856201172 24.44926834106445 4.370574951171875 L 19.0422477722168 15.32760620117188 C 18.37454795837402 16.68063354492188 17.08444595336914 17.61759567260742 15.59237670898438 17.83381271362305 L 3.500408172607422 19.5908145904541 C 3.279598236083984 19.62289428710938 3.099578857421875 19.77465438842773 3.030609130859375 19.98682403564453 C 2.961616516113281 20.19901466369629 3.017986297607422 20.42760467529297 3.177009582519531 20.58271408081055 L 11.9251594543457 29.10988426208496 C 13.0051383972168 30.1617546081543 13.4986686706543 31.67697525024414 13.24486923217773 33.16585540771484 L 11.18086624145508 45.20685577392578 L 11.17838668823242 45.2213249206543 L 11.17576599121094 45.23577499389648 C 11.1485481262207 45.3857536315918 11.18962860107422 45.53830337524414 11.28969955444336 45.65574645996094 C 11.45715713500977 45.85253524780273 11.67624664306641 45.87377548217773 11.76266860961914 45.87377548217773 C 11.8587532043457 45.87377548217773 11.95154571533203 45.85162734985352 12.03856658935547 45.80792999267578 L 22.83879852294922 40.13417434692383 L 22.85442733764648 40.1259651184082 L 22.87015724182129 40.11793518066406 C 23.5173168182373 39.78762435913086 24.24342727661133 39.61303329467773 24.96999740600586 39.61303329467773 C 25.69656753540039 39.61303329467773 26.42267799377441 39.78762435913086 27.06983757019043 40.11793518066406 L 27.08599853515625 40.12618255615234 L 27.1020679473877 40.13463592529297 L 37.91706848144531 45.82063293457031 L 37.92494964599609 45.82478332519531 L 37.93281555175781 45.82897567749023 C 38.00973510742188 45.87000274658203 38.09625625610352 45.8920783996582 38.18337249755859 45.89296722412109 C 38.35641479492188 45.89069366455078 38.51880264282227 45.81337356567383 38.62968826293945 45.68021392822266 L 38.64130783081055 45.66626358032227 L 38.65310668945313 45.65244293212891 C 38.75107574462891 45.53764343261719 38.7917366027832 45.38665390014648 38.76466751098633 45.23817443847656 L 38.76183700561523 45.2226448059082 L 38.7591667175293 45.20708465576172 L 36.69381713867188 33.16404724121094 C 36.43987655639648 31.67714500427246 36.93360900878906 30.16132545471191 38.01285552978516 29.11084365844727 L 46.76128768920898 20.58239364624023 C 46.92099761962891 20.42661476135254 46.97736740112305 20.19802474975586 46.90838623046875 19.9858341217041 C 46.83939743041992 19.77364540100098 46.65938568115234 19.62189483642578 46.43861770629883 19.58981513977051 L 34.34861755371094 17.83311462402344 C 32.85541534423828 17.61718368530273 31.56536674499512 16.68051528930664 30.89764785766602 15.32737350463867 L 25.4922981262207 4.371723175048828 C 25.39350700378418 4.171733856201172 25.19355773925781 4.047504425048828 24.97049713134766 4.047504425048828 M 24.97049713134766 1.047504425048828 C 26.33346748352051 1.047504425048828 27.57832717895508 1.821002960205078 28.18199729919434 3.042995452880859 L 33.58800506591797 13.99999618530273 C 33.81816864013672 14.46641540527344 34.26324844360352 14.78956604003906 34.77799987792969 14.86400604248047 L 46.86999893188477 16.62099456787109 C 48.21907806396484 16.81703567504883 49.33993911743164 17.76187515258789 49.76140594482422 19.05833435058594 C 50.18288803100586 20.35480499267578 49.8318977355957 21.77812385559082 48.85599899291992 22.72999382019043 L 40.10699844360352 31.25900459289551 C 39.73386764526367 31.62218475341797 39.56333923339844 32.14572525024414 39.65099716186523 32.65900421142578 L 41.71599578857422 44.69999313354492 C 41.90471649169922 45.73491287231445 41.61792755126953 46.79982376098633 40.93499755859375 47.59999465942383 C 40.25529861450195 48.41619491577148 39.24913787841797 48.88960266113281 38.18699645996094 48.89299392700195 C 37.60587692260742 48.89269256591797 37.03374862670898 48.74948501586914 36.52099609375 48.47600555419922 L 25.70599746704102 42.79000473022461 C 25.4748477935791 42.67202377319336 25.2224235534668 42.61303329467773 24.96999740600586 42.61303329467773 C 24.71757316589355 42.61303329467773 24.46514701843262 42.67202377319336 24.2339973449707 42.79000473022461 L 13.41999816894531 48.47099304199219 C 12.89332962036133 48.74262619018555 12.32536697387695 48.87377548217773 11.76267242431641 48.87377548217773 C 10.72785949707031 48.87377548217773 9.711269378662109 48.42994689941406 9.004997253417969 47.60000610351563 C 8.322849273681641 46.79942321777344 8.036159515380859 45.73488616943359 8.2239990234375 44.70000457763672 L 10.28799819946289 32.65900421142578 C 10.37548828125 32.14574432373047 10.20498657226563 31.62227439880371 9.831996917724609 31.25899505615234 L 1.082996368408203 22.73099517822266 C 0.107086181640625 21.77912521362305 -0.2438926696777344 20.35580444335938 0.1775779724121094 19.05933380126953 C 0.5990562438964844 17.76286315917969 1.719905853271484 16.81803512573242 3.068996429443359 16.62199401855469 L 15.1609992980957 14.86499404907227 C 15.67619705200195 14.79033279418945 16.12161636352539 14.46683502197266 16.35199737548828 13.99999618530273 L 21.75899696350098 3.042995452880859 C 22.36266708374023 1.821002960205078 23.6075382232666 1.047504425048828 24.97049713134766 1.047504425048828 Z" stroke="none" fill="#f9d050"/>
    </g>
  </g>
</svg>
