<svg width="55" height="11" viewBox="0 0 55 11" fill="none" xmlns="http://www.w3.org/2000/svg">
<path fill-rule="evenodd" clip-rule="evenodd" d="M37.0436 7.19107C37.0392 8.62139 37.0335 8.7556 37.0003 8.90317C36.9214 9.25419 36.8242 9.47032 36.6238 9.74037C36.3242 10.144 35.9458 10.4157 35.3565 10.6502C35.0051 10.79 34.4402 10.9122 33.9349 10.9576C33.8821 10.9624 33.8274 10.9673 33.7882 10.971C33.7655 10.9731 33.748 10.9748 33.739 10.9757C33.5952 10.9903 33.3126 11 33.0314 11C32.4807 11 32.0934 10.968 31.5934 10.8813C31.1787 10.8094 30.8577 10.7142 30.52 10.5627C30.1895 10.4145 29.9935 10.2917 29.7592 10.086C29.3844 9.75685 29.1287 9.31862 29.0517 8.8734C29.0436 8.82661 29.0316 8.76265 29.025 8.73132C29.0191 8.70311 29.0149 8.15685 29.0135 7.29862L29.0131 7.29801L29.0134 7.18591L29.0131 6.68244C29.0131 5.51131 29.014 5.01767 29.0196 4.80887C29.024 3.37861 29.0296 3.2444 29.0628 3.09683C29.1417 2.74581 29.2389 2.52968 29.4394 2.25963C29.739 1.85592 30.1173 1.58431 30.7067 1.34973C31.058 1.20996 31.6229 1.08782 32.1282 1.04239C32.2116 1.03486 32.2998 1.02672 32.3241 1.02428C32.4679 1.0097 32.7505 1 33.0317 1C33.5824 1 33.9698 1.03194 34.4698 1.11861C34.8845 1.19057 35.2054 1.28585 35.5431 1.43728C35.8736 1.58546 36.0697 1.70835 36.304 1.91404C36.6788 2.24315 36.9345 2.68138 37.0114 3.1266C37.0195 3.17339 37.0315 3.23735 37.0381 3.26868C37.044 3.29689 37.0483 3.84309 37.0496 4.70138L37.0501 4.70199L37.0498 4.81409L37.0501 5.31749C37.0501 6.48862 37.0492 6.98226 37.0436 7.19107ZM31.4698 7.32202C31.4745 8.07689 31.4805 8.52116 31.4868 8.55853C31.5221 8.76794 31.6212 8.96522 31.764 9.11001C31.8396 9.18678 31.9908 9.29407 32.09 9.34147C32.3356 9.45886 32.668 9.52431 33.0178 9.52431C33.3023 9.52431 33.5213 9.48809 33.7832 9.39783C33.9063 9.35537 33.9393 9.33876 34.0717 9.25236C34.2398 9.14263 34.3332 9.05576 34.4074 8.94C34.4709 8.84098 34.5044 8.7714 34.538 8.66866L34.5657 8.58409L34.5793 4.69534L34.5933 4.67798C34.5886 3.92311 34.5826 3.47884 34.5763 3.44147C34.541 3.23206 34.4419 3.03471 34.2991 2.88999C34.2235 2.81322 34.0724 2.70593 33.9731 2.65853C33.7275 2.54114 33.3951 2.47563 33.0453 2.47563C32.7608 2.47569 32.5418 2.51184 32.2799 2.60217C32.1568 2.64463 32.1239 2.66124 31.9914 2.74764C31.8233 2.85737 31.73 2.94417 31.6557 3.06C31.5923 3.15895 31.5588 3.2286 31.5251 3.33134L31.4974 3.41591L31.4838 7.30459L31.4698 7.32202Z" fill="#F232A4"/>
<path d="M15.7017 1.27513C15.6724 1.28097 15.5976 1.28598 15.5355 1.28632C15.1971 1.28815 14.5962 1.40419 14.2029 1.54362C13.9488 1.63368 13.891 1.65891 13.696 1.76463C13.3718 1.94042 13.059 2.19297 12.8726 2.42938C12.5737 2.80861 12.417 3.26813 12.4176 3.7634C12.4184 4.29732 12.5582 4.7266 12.8647 5.13567C13.2743 5.68241 13.9446 6.11312 14.9969 6.50578C15.21 6.58533 15.6432 6.73215 15.8081 6.78078C16.1211 6.87314 16.4741 7.01691 16.6591 7.12752C16.7681 7.1927 16.9355 7.33274 16.9796 7.39581C17.0968 7.56318 17.0914 7.81213 16.9653 8.04902C16.8802 8.20893 16.6903 8.34063 16.4397 8.41347C16.2107 8.47999 15.828 8.49661 15.5544 8.45185C15.2795 8.40696 14.9544 8.28611 14.6303 8.10849C14.498 8.036 14.2333 7.85811 14.1208 7.76622C14.0834 7.73564 13.9906 7.66314 13.9146 7.60523C13.5756 7.34678 13.5053 7.33952 13.2442 7.53598C13.0972 7.64666 12.7524 7.94261 12.3107 8.33738C12.0274 8.59054 11.9915 8.63604 12.0014 8.72963C12.0121 8.83047 12.0757 8.90575 12.3972 9.19838C12.4503 9.24673 12.496 9.2879 12.5368 9.32404C12.5828 9.36467 12.6226 9.39884 12.6598 9.4295C12.7449 9.49969 12.8165 9.55136 12.9178 9.61932C13.4383 9.96851 14.11 10.2713 14.6844 10.4156C15.1144 10.5236 15.4231 10.561 15.8812 10.5608C16.6011 10.5603 17.2145 10.4486 17.8211 10.2074C18.2767 10.0263 18.7531 9.71229 19.0316 9.40956C19.4654 8.93796 19.6531 8.53798 19.7378 7.90464C19.756 7.76873 19.7491 7.40008 19.7254 7.23745C19.7081 7.11925 19.6461 6.88026 19.6036 6.76796C19.4887 6.46482 19.1821 6.06592 18.9067 5.86104C18.3384 5.43834 17.764 5.19271 16.2934 4.74335C15.7943 4.59083 15.7304 4.56832 15.5175 4.46958C15.3619 4.39749 15.3144 4.36846 15.2213 4.28878C15.1388 4.21825 15.0993 4.17349 15.0669 4.11415C15.0249 4.03691 15.0235 4.02958 15.0235 3.88357C15.0235 3.73797 15.025 3.73017 15.0665 3.65388C15.1948 3.41835 15.5491 3.28217 16.0323 3.28278C16.2599 3.28312 16.3708 3.30062 16.5962 3.37203C16.7887 3.433 16.8594 3.4629 17.0283 3.55493C17.1934 3.64486 17.3709 3.76293 17.5482 3.9008C17.8046 4.10025 17.9071 4.1347 18.0554 4.07129C18.1325 4.0384 18.2253 3.9577 18.5673 3.62621C18.621 3.57426 18.6834 3.51404 18.7454 3.45443C18.8399 3.36369 18.9334 3.27437 18.993 3.21795C19.3618 2.86944 19.4154 2.7709 19.3272 2.60339C19.2347 2.42734 18.9712 2.21772 18.456 1.91037C18.099 1.69736 17.7135 1.53887 17.2908 1.43145C16.9801 1.35251 16.6847 1.3047 16.3865 1.2851C16.1371 1.26869 15.7619 1.26326 15.7017 1.27513Z" fill="#F232A4"/>
<path d="M20.4181 1.47255C20.3233 1.49567 20.2501 1.54769 20.2066 1.62283L20.1691 1.68773L20.1728 2.50614C20.1765 3.31954 20.1767 3.32496 20.2056 3.38166C20.239 3.44697 20.2891 3.49363 20.356 3.52157C20.3974 3.53886 20.5307 3.54164 21.5558 3.547L22.709 3.55303L22.7393 3.58043L22.7695 3.60776L22.7763 6.89817C22.7816 9.46286 22.7867 10.1979 22.7995 10.2307C22.8246 10.295 22.8624 10.345 22.9123 10.3793L22.9196 10.3844C22.9303 10.3918 22.9398 10.3984 22.9499 10.4042C23.0241 10.4472 23.1291 10.4472 24.013 10.4471H24.1896C25.0637 10.4472 25.1756 10.4472 25.2449 10.3984C25.2539 10.392 25.2622 10.3848 25.2714 10.3767L25.2832 10.3662C25.2957 10.3553 25.3064 10.3508 25.3157 10.3446C25.3765 10.3039 25.3767 10.1902 25.381 7.75944L25.3892 3.60776L25.4195 3.58043L25.4498 3.55303L26.8847 3.54571C27.7063 3.54184 27.8159 3.54137 27.8746 3.492C27.8842 3.484 27.8924 3.47464 27.9021 3.46379C27.9075 3.45775 27.9134 3.45124 27.9202 3.44425C27.9375 3.42649 27.9517 3.41272 27.9633 3.39739C28.0166 3.32727 28.0161 3.22419 28.0129 2.55294L28.0125 2.47603C28.0089 1.6842 28.0086 1.67735 27.9802 1.62968C27.9418 1.56539 27.8897 1.52253 27.8094 1.4891L27.7429 1.46136L24.1126 1.45912C21.1677 1.45729 20.4702 1.45987 20.4181 1.47255Z" fill="#F232A4"/>
<path d="M47.6287 1.54545C47.6028 1.55379 47.5806 1.56315 47.5614 1.57421C47.5436 1.58431 47.5283 1.59591 47.5146 1.60947C47.5014 1.62249 47.4898 1.63734 47.479 1.65457C47.4241 1.74232 47.4194 1.81807 47.4245 2.54324C47.4288 3.15169 47.4319 3.23531 47.4521 3.2899C47.4813 3.3683 47.5168 3.40872 47.586 3.44215L47.6413 3.46887L51.1767 3.47199C53.6568 3.47416 54.7279 3.47125 54.765 3.46216C54.8359 3.44493 54.925 3.36816 54.9635 3.29126L54.9949 3.22846V1.72584L54.9617 1.6722C54.9228 1.60947 54.864 1.57034 54.771 1.54538C54.6732 1.51914 47.7102 1.51921 47.6287 1.54545Z" fill="#F232A4"/>
<path d="M47.6287 5.03144C47.5467 5.05796 47.5114 5.08719 47.4684 5.16436L47.4285 5.23598V7.71231C47.4285 10.0817 47.4296 10.1917 47.453 10.2602C47.4823 10.3462 47.5512 10.4143 47.6283 10.4337C47.702 10.4522 54.6933 10.4526 54.7669 10.4341C54.8367 10.4166 54.9255 10.3395 54.9635 10.2635L54.9949 10.2006L54.999 9.47941C55.0019 8.96631 54.9987 8.74421 54.9879 8.71003C54.9628 8.63028 54.9121 8.57514 54.8303 8.53886L54.7556 8.5057L50.0954 8.49363L50.0349 8.4389V7.02173L50.0954 6.967L52.4322 6.96096C54.5795 6.95547 54.7721 6.9533 54.8088 6.93492C54.869 6.90474 54.9302 6.84168 54.9643 6.77467L54.9949 6.71452L54.999 5.99329C55.0019 5.48018 54.9987 5.25815 54.9879 5.2239C54.9628 5.14415 54.9121 5.08908 54.8303 5.0528L54.7556 5.01957L51.2184 5.01706C48.2053 5.01489 47.6734 5.01706 47.6287 5.03144Z" fill="#F232A4"/>
<path fill-rule="evenodd" clip-rule="evenodd" d="M40.1252 1.40771L40.9459 1.409C43.3285 1.41267 43.5115 1.4149 43.7151 1.44244C44.1517 1.50151 44.4206 1.57434 44.7566 1.72442C45.2587 1.94876 45.5967 2.2321 45.8884 2.67345C46.0623 2.93651 46.2143 3.35955 46.2708 3.73797C46.2801 3.80043 46.2902 3.86648 46.2933 3.88466C46.3114 3.99235 46.3235 4.20394 46.3235 4.41458C46.3235 4.82697 46.2837 5.11702 46.1759 5.49144C46.0865 5.80198 45.9679 6.04239 45.7795 6.29527C45.5952 6.54274 45.4423 6.68956 45.1864 6.865C44.9692 7.01393 44.7137 7.13776 44.439 7.22986C44.8029 8.36145 45.1565 9.46822 45.3937 10.2212C45.4271 10.3275 45.3382 10.433 45.2153 10.433H43.1667C43.0842 10.433 43.0117 10.3842 42.9887 10.3129C42.8283 9.81673 42.6245 9.18332 42.373 8.39916L42.0594 7.423C41.7335 7.42348 41.3614 7.42375 40.9526 7.42375H40.6324C40.6296 9.01866 40.6221 10.3273 40.6099 10.3641C40.5798 10.4547 40.5326 10.5119 40.457 10.5498L40.3924 10.5822H38.5809L38.5052 10.5515C38.4124 10.5141 38.3199 10.4274 38.2991 10.3582C38.2882 10.3222 38.2847 9.27949 38.2873 6.86507L38.2902 2.84611C38.2889 2.73855 38.2881 2.58454 38.2872 2.36169C38.2856 1.98572 38.2868 1.75846 38.291 1.65674L38.2911 1.61774L38.2937 1.6134C38.2943 1.60621 38.2951 1.60099 38.2958 1.59767C38.3127 1.5249 38.3629 1.46373 38.4318 1.43172L38.4889 1.40521L39.4206 1.40663C39.7579 1.40473 39.9771 1.40432 40.1252 1.40771ZM40.6289 3.25993C40.6316 3.93396 40.6332 4.75088 40.6335 5.58727L40.8253 5.58679C42.3195 5.58306 43.2262 5.57737 43.2864 5.57126C43.5469 5.54481 43.7923 5.47055 43.9724 5.36367C44.0679 5.30705 44.2013 5.19386 44.2603 5.11953C44.4063 4.93561 44.4878 4.68673 44.4878 4.42475C44.4878 4.21167 44.4427 4.04776 44.3304 3.85156C44.2776 3.7594 44.2569 3.73471 44.1494 3.63557C44.013 3.50963 43.905 3.43978 43.7609 3.38417C43.6378 3.33663 43.5512 3.31154 43.4234 3.28638L43.3181 3.26562L40.6289 3.25993Z" fill="#F232A4"/>
<path fill-rule="evenodd" clip-rule="evenodd" d="M4.98758 0.0119881C4.96399 0.0179781 4.88034 0.0299318 4.8017 0.03854C4.237 0.100358 3.55408 0.292899 3.02191 0.54033C2.43978 0.811006 1.81418 1.25167 1.42595 1.6645C1.1187 1.99122 0.918861 2.24656 0.711854 2.5769C0.446291 3.00068 0.210128 3.57891 0.11238 4.04466C0.0233399 4.46895 0.000232598 4.68648 3.81355e-06 5.10251C-0.000167775 5.40132 0.00530876 5.4835 0.0454176 5.7839C0.0985529 6.18192 0.247106 6.69111 0.420911 7.07095C0.571051 7.39908 0.832137 7.82342 0.920291 7.88259C0.950419 7.90281 0.964017 7.90458 0.997863 7.89268C1.02044 7.88473 1.14878 7.7785 1.28306 7.65658C1.41734 7.53468 1.56582 7.40508 1.61301 7.36861C1.94047 7.11547 2.45125 6.81549 2.87847 6.62541C2.98464 6.57816 3.086 6.52754 3.10368 6.51292C3.15177 6.47316 3.14417 6.41868 3.07005 6.27202C2.89383 5.92327 2.79268 5.49198 2.79268 5.08928C2.79268 4.87844 2.80699 4.75347 2.85934 4.50747C2.9801 3.94 3.31917 3.39481 3.76823 3.0461C4.12136 2.7719 4.44216 2.6209 4.86222 2.5312C5.13182 2.47362 5.27118 2.45789 5.5113 2.45789C6.03745 2.45789 6.56323 2.60663 7.01134 2.88226C7.16822 2.97875 7.48274 3.25584 7.61781 3.41656C7.80212 3.63588 7.94772 3.89607 8.05386 4.19584C8.14165 4.44376 8.18168 4.62166 8.20132 4.85127C8.22061 5.07665 8.22063 5.13661 8.20142 5.34052C8.17005 5.67352 8.08204 5.98114 7.93372 6.27616C7.86601 6.41082 7.85434 6.44437 7.8647 6.47451C7.87528 6.50533 7.92745 6.53454 8.21295 6.66944C8.62701 6.8651 8.88518 7.00872 9.14722 7.18917C9.4175 7.37531 9.48035 7.42546 9.75876 7.67711C10.073 7.96115 10.0648 7.96091 10.24 7.69088C10.6501 7.05882 10.8737 6.43257 10.9851 5.60429C11.0036 5.46712 11.0054 4.69952 10.9875 4.59915C10.9805 4.55963 10.9669 4.4678 10.9574 4.39507C10.8848 3.8403 10.6522 3.19154 10.3294 2.64301C10.17 2.37239 9.92156 2.03763 9.68641 1.7769C9.10357 1.13063 8.22057 0.573044 7.33038 0.289131C6.94181 0.165191 6.58732 0.0859712 6.23875 0.045178C6.14045 0.0336739 6.03257 0.0184409 5.99904 0.0113269C5.92599 -0.00417053 5.04893 -0.00358871 4.98758 0.0119881ZM5.08768 3.68834C5.04836 3.69426 4.93253 3.70911 4.83029 3.72133C4.61732 3.74678 4.0692 3.8691 3.9032 3.92822C3.7616 3.97865 3.70443 4.02527 3.64067 4.14236C3.4256 4.5373 3.34316 5.01626 3.42177 5.41424C3.47779 5.69789 3.50337 5.75044 3.58541 5.75044C3.61001 5.75044 3.7361 5.71759 3.8656 5.67744C4.2376 5.56211 4.64905 5.47698 4.99473 5.44382C5.22249 5.42197 5.75922 5.41542 5.91702 5.43255C6.4315 5.48841 6.69837 5.53926 7.06898 5.65207C7.22283 5.69891 7.36542 5.73721 7.38586 5.73721C7.46021 5.73721 7.50995 5.64531 7.58983 5.36035C7.60205 5.31672 7.61792 5.21523 7.62509 5.13484C7.63225 5.05444 7.64269 4.97179 7.64828 4.95118C7.6694 4.87337 7.60044 4.44872 7.53882 4.27715C7.48323 4.12232 7.43 4.03285 7.37215 3.99694C7.30426 3.95478 7.03622 3.87035 6.77497 3.80882C6.56408 3.75917 6.36711 3.72536 6.07431 3.6886C5.94396 3.67223 5.19582 3.67203 5.08768 3.68834ZM4.98043 6.80982C4.47994 6.87425 4.36638 6.89464 4.10844 6.9664C3.3213 7.18537 2.64135 7.52705 2.01128 8.02028C1.81564 8.17342 1.71007 8.28016 1.69772 8.33729C1.68798 8.38227 1.72567 8.43914 1.90625 8.652C2.23606 9.04078 2.6503 9.39387 3.11122 9.67908C3.31871 9.80748 3.37489 9.83637 3.41699 9.83637C3.46385 9.83637 3.48575 9.82078 3.65611 9.66619C3.92983 9.41779 4.1607 9.28511 4.51885 9.17032C4.70286 9.11136 4.85017 9.0847 5.09483 9.06612C5.60678 9.02725 6.14536 9.07702 6.53935 9.19962C6.86203 9.30004 7.04944 9.40676 7.29448 9.62968C7.59921 9.90689 7.73938 10.0875 7.91337 10.427C7.9612 10.5203 8.03154 10.6575 8.06964 10.7318C8.12235 10.8346 8.15703 10.8829 8.21437 10.9335L8.28976 11H8.4167C8.51792 11 8.55132 10.995 8.58159 10.9752C8.60247 10.9615 8.95092 10.8327 9.35594 10.689C9.76096 10.5453 10.1231 10.4135 10.1608 10.396C10.3141 10.3251 10.3989 10.2174 10.3995 10.093C10.4008 9.79497 10.0134 9.08419 9.57489 8.58018C9.27258 8.23274 9.10086 8.07717 8.74638 7.82955C8.29371 7.51335 7.69103 7.2183 7.14847 7.04729C6.76281 6.92572 6.39926 6.85065 6.04571 6.81958C5.83848 6.80137 5.09872 6.79458 4.98043 6.80982Z" fill="#511285"/>
</svg>
