<svg xmlns="http://www.w3.org/2000/svg" xmlns:xlink="http://www.w3.org/1999/xlink" width="239.083" height="185.744" viewBox="0 0 239.083 185.744">
  <defs>
    <linearGradient id="linear-gradient" x1="0.5" x2="0.5" y2="1" gradientUnits="objectBoundingBox">
      <stop offset="0" stop-color="#f232a4"/>
      <stop offset="1" stop-color="#f232a4" stop-opacity="0"/>
    </linearGradient>
  </defs>
  <g id="tr_1" transform="translate(-67.374 -117.429)">
    <path id="Path_1" data-name="Path 1" d="M16.613,83.7,72.049,42.924s6.98-.986,9.974,1.172c3.311,2.386,2.345,9.051,2.345,9.051L79.6,61.192s.359,6.411,3.809,8.542c3.4,2.1,10.723.62,10.723.62L121.1,50.517s9.4-3.756,13.685-.991c4.331,2.791,2.208,11.421,2.208,11.421l-25.03,23.515s-.553,4.043,1.087,6.007c2.593,3.1,11.369,1.847,11.369,1.847l38.818-26.283s8.675-2.045,12.152.7c3.705,2.928.813,10.746.813,10.746L148.415,99.053s-1.933,8.16,1.458,11.972c3.084,3.466,11.913,4.85,11.913,4.85l22.611-18.9s7.872-2.8,11.506-.523c4.306,2.7.778,11.339.778,11.339L167.328,131.65s-1.291,6.368,1.63,9.01c2.735,2.473,9.905,2.356,9.905,2.356l26.9-18.652s9.293-2.257,12.867.745c3.971,3.335-.686,11.848-.686,11.848l-51.758,39.205s-8.443,1.826-12.153-.7c-3.867-2.636-2.991-10.277-2.991-10.277l3.848-4.532s.485-6.009-2.379-8.459c-3.172-2.713-11.369-1.847-11.369-1.847L105.15,177.384s-7.982,1.756-11.437-.662c-3.211-2.245-3.094-8.5-3.094-8.5l6.914-7.921L95.324,148.88l-11.335-2.439-36.707,27s-8.921.623-12.05-2.48c-3.1-3.078-.847-10.154-.847-10.154l45.663-33.02s9.812-9.094,5.827-13.927c-3.252-3.943-14.16-3.2-14.16-3.2L44.134,128.681s-8.977.661-12.05-2.481c-3.381-3.457.651-11.255.651-11.255L67.23,89.006s4.839-6.735,2.013-9.988c-2.526-2.907-10.62-2.4-10.62-2.4L32.575,92.944s-9.644,3.4-13.651.4C15.465,90.753,16.613,83.7,16.613,83.7Zm222.844,35.514a8.11,8.11,0,1,1-8.11-8.11A8.11,8.11,0,0,1,239.457,119.213ZM27.446,134.274a6.951,6.951,0,1,1-6.951-6.951A6.951,6.951,0,0,1,27.446,134.274Z" transform="translate(67 117)" fill-rule="evenodd" opacity="0.5" fill="url(#linear-gradient)"/>
    <path id="Path_2" data-name="Path 2" d="M142,115l-7,13" transform="translate(67 117)" fill="none" stroke="#fafaf0" stroke-linecap="round" stroke-width="4.25"/>
    <path id="Path_3" data-name="Path 3" d="M127.628,161.409c-3.061-9.752-4.895-16.933-4.97-34.371h-7.433c-.087,17.455-1.942,24.611-5.011,34.371Z" transform="translate(67 117)" fill="#f6921e"/>
    <path id="Path_4" data-name="Path 4" d="M181.477,70.484A26.656,26.656,0,0,0,160.156,60H77.786A26.855,26.855,0,0,0,56.48,70.5a26.578,26.578,0,0,0,.672,33.151,27,27,0,0,0,8.822,6.974L87.652,121.27a6.25,6.25,0,0,1-5.554,11.2,3.524,3.524,0,0,0-4.327,1.756,3.482,3.482,0,0,0,1.251,4.476,13.3,13.3,0,0,0,17.617-6.074,13.148,13.148,0,0,0-5.9-17.583L69.062,104.4A19.934,19.934,0,0,1,58.68,91.858a19.609,19.609,0,0,1,3.338-17.18,19.862,19.862,0,0,1,15.774-7.765h82.365a19.863,19.863,0,0,1,15.767,7.775A19.611,19.611,0,0,1,179.25,91.87a19.934,19.934,0,0,1-10.382,12.545l-21.678,10.64a13.2,13.2,0,0,0,11.718,23.658,3.487,3.487,0,0,0-.59-6.1,3.537,3.537,0,0,0-2.451-.119,6.284,6.284,0,0,1-8.407-2.86,6.232,6.232,0,0,1,2.853-8.34l21.678-10.647a26.883,26.883,0,0,0,14.02-16.889,26.314,26.314,0,0,0-4.534-23.273Z" transform="translate(67 117)" fill="#ffb533"/>
    <path id="Path_5" data-name="Path 5" d="M147.459,115.126a13.319,13.319,0,0,0-5,4.195,12.958,12.958,0,0,0-1.516,12.441A13.155,13.155,0,0,0,144.793,137c1.182-2.1,2.364-4.254,3.434-6.474a5.878,5.878,0,0,1-.526-.866,6.141,6.141,0,0,1-.306-4.744,6.274,6.274,0,0,1,3.185-3.578l2.145-1.04Q154.5,115.754,156,111Z" transform="translate(67 117)" fill="#f6921e"/>
    <path id="Path_6" data-name="Path 6" d="M90.539,115.15,82,111q1.5,4.777,3.276,9.3l2.141,1.041a6.271,6.271,0,0,1,3.186,3.578,6.139,6.139,0,0,1-.306,4.745,5.911,5.911,0,0,1-.526.867q1.641,3.33,3.442,6.469a13.161,13.161,0,0,0,3.849-5.239,12.961,12.961,0,0,0-1.52-12.439,13.309,13.309,0,0,0-5-4.195Z" transform="translate(67 117)" fill="#f6921e"/>
    <path id="Path_7" data-name="Path 7" d="M159.733,66.773a20.778,20.778,0,0,1,3.044.227q.176-3.4.223-6.807A28.28,28.28,0,0,0,159.733,60H77.261A28.185,28.185,0,0,0,74,60.193q.053,3.4.223,6.807a20.786,20.786,0,0,1,3.045-.227Z" transform="translate(67 117)" fill="#f6921e"/>
    <path id="Path_8" data-name="Path 8" d="M136,142.114c14.069-20.4,23-50.969,23-85.114H79c0,34.133,8.94,64.675,23.01,85.114a20.523,20.523,0,0,0,7.386,6.528,20.747,20.747,0,0,0,19.213,0A20.526,20.526,0,0,0,136,142.114Z" transform="translate(67 117)" fill="#ffb533"/>
    <path id="Path_9" data-name="Path 9" d="M87,57c0,28.452,6.264,54.845,17.857,74.823a4.36,4.36,0,1,0,7.559-4.347C101.576,108.8,95.715,83.939,95.727,57Z" transform="translate(67 117)" fill="#f1e6f4"/>
    <path id="Path_10" data-name="Path 10" d="M129.615,161.409H108.231a5.082,5.082,0,0,0-5.061,5.081h31.547a5.082,5.082,0,0,0-5.1-5.081Z" transform="translate(67 117)" fill="#ffb533"/>
    <path id="Path_11" data-name="Path 11" d="M139.26,166.49H98.607v19.683H139.26Z" transform="translate(67 117)" fill="#1e193d"/>
    <path id="Path_12" data-name="Path 12" d="M134.282,166.49h-15.7L98.9,186.169h15.7Z" transform="translate(67 117)" fill="#36364a"/>
    <path id="Path_13" data-name="Path 13" d="M111.328,166.49,98.607,179.212v4.783l17.5-17.5Z" transform="translate(67 117)" fill="#36364a"/>
    <path id="Path_14" data-name="Path 14" d="M139.26,170.085l-16.084,16.084h6.92l9.164-9.164Z" transform="translate(67 117)" fill="#36364a"/>
    <path id="Path_15" data-name="Path 15" d="M112,161.409h-3.772a5.082,5.082,0,0,0-5.061,5.081h31.547a5.08,5.08,0,0,0-5.081-5.081Z" transform="translate(67 117)" fill="#ffb533"/>
    <path id="Path_16" data-name="Path 16" d="M117.6,83.035c-.065.017-.293.052-.507.078a15.822,15.822,0,0,0-4.854,1.466,15.359,15.359,0,0,0-4.353,3.285,16.055,16.055,0,0,0-1.948,2.666,15.007,15.007,0,0,0-1.635,4.289A13.588,13.588,0,0,0,104,97.91a12.135,12.135,0,0,0,.124,1.991,15.345,15.345,0,0,0,1.024,3.761,9.753,9.753,0,0,0,1.362,2.372.178.178,0,0,0,.211.029,6.818,6.818,0,0,0,.778-.69c.366-.356.771-.735.9-.841a18.431,18.431,0,0,1,3.451-2.172,5.012,5.012,0,0,0,.615-.329c.131-.116.11-.275-.092-.7a8.377,8.377,0,0,1-.757-3.456,7.43,7.43,0,0,1,.182-1.7,7.625,7.625,0,0,1,2.479-4.27,7.442,7.442,0,0,1,4.754-1.719,7.472,7.472,0,0,1,4.091,1.24,9.765,9.765,0,0,1,1.654,1.561,8.277,8.277,0,0,1,1.591,4.192,6.5,6.5,0,0,1,0,1.43,7.986,7.986,0,0,1-.731,2.734c-.184.394-.216.492-.188.58s.171.175.95.57a16.723,16.723,0,0,1,2.548,1.518,12.322,12.322,0,0,1,1.668,1.426c.857.83.835.829,1.312.04a14.575,14.575,0,0,0,2.032-6.1,28.829,28.829,0,0,0,.007-2.937c-.019-.116-.056-.384-.082-.6a14.977,14.977,0,0,0-1.713-5.12,16.966,16.966,0,0,0-1.754-2.531,15.142,15.142,0,0,0-6.425-4.347,14.84,14.84,0,0,0-2.977-.713c-.268-.034-.563-.078-.654-.1C120.162,82.988,117.77,82.99,117.6,83.035Zm.272,10.743c-.107.017-.423.061-.7.1a17.972,17.972,0,0,0-2.529.6,1.106,1.106,0,0,0-.716.626,6.114,6.114,0,0,0-.6,3.716c.153.829.223.982.446.982a5.367,5.367,0,0,0,.765-.213,15.165,15.165,0,0,1,3.079-.683,18.891,18.891,0,0,1,2.515-.033,14.153,14.153,0,0,1,3.142.642,7.858,7.858,0,0,0,.864.249c.2,0,.339-.269.557-1.1a5.147,5.147,0,0,0,.1-.659c.019-.235.048-.476.063-.537a7.2,7.2,0,0,0-.3-1.969,1.612,1.612,0,0,0-.454-.819,8.14,8.14,0,0,0-1.629-.55,16.127,16.127,0,0,0-1.911-.351A25.292,25.292,0,0,0,117.875,93.778Zm-.292,9.121a12.919,12.919,0,0,0-2.378.457,15.661,15.661,0,0,0-5.72,3.08c-.533.447-.821.759-.855.926-.026.132.076.3.569.92a14.277,14.277,0,0,0,3.286,3c.566.375.719.46.834.46s.188-.046.652-.5a5.718,5.718,0,0,1,2.353-1.449,5.8,5.8,0,0,1,1.571-.3,10.489,10.489,0,0,1,3.94.39,4.731,4.731,0,0,1,2.059,1.257,7.053,7.053,0,0,1,1.688,2.329c.13.273.322.674.426.891a1.742,1.742,0,0,0,.395.59l.205.194h.347c.276,0,.367-.015.449-.073.057-.04,1.008-.416,2.112-.836s2.093-.805,2.195-.856a1.014,1.014,0,0,0,.651-.885c0-.871-1.053-2.948-2.249-4.421a10.741,10.741,0,0,0-2.259-2.193,16.561,16.561,0,0,0-4.358-2.286,13.216,13.216,0,0,0-3.008-.666C119.923,102.874,117.906,102.854,117.583,102.9Z" transform="translate(67 117)" fill="#f6921e" fill-rule="evenodd"/>
    <path id="Path_17" data-name="Path 17" d="M82,71h73" transform="translate(67 117)" fill="none" stroke="#f6921e" stroke-linecap="round" stroke-width="5.3"/>
    <path id="Path_18" data-name="Path 18" d="M83,78h71" transform="translate(67 117)" fill="none" stroke="#f6921e" stroke-linecap="round" stroke-width="5.3"/>
    <path id="Path_19" data-name="Path 19" d="M85,71H98" transform="translate(67 117)" fill="none" stroke="#ffb533" stroke-linecap="round" stroke-width="5.3"/>
    <path id="Path_20" data-name="Path 20" d="M86,78H99" transform="translate(67 117)" fill="none" stroke="#ffb533" stroke-linecap="round" stroke-width="5.3"/>
    <path id="Path_21" data-name="Path 21" d="M131.218,173.3H106.611v9.657h24.607Z" transform="translate(67 117)" fill="#1e193d"/>
    <path id="Path_22" data-name="Path 22" d="M131.218,171.5H106.611v9.657h24.607Z" transform="translate(67 117)" fill="#ffb533"/>
    <path id="Path_23" data-name="Path 23" d="M107.361,165.265a2.629,2.629,0,0,1,2.63-2.63h4.141a2.629,2.629,0,0,1,2.629,2.63Z" transform="translate(67 117)" fill="#f1e6f4"/>
    <path id="Path_24" data-name="Path 24" d="M155.079,31.916,148,44.658" transform="translate(67 117)" fill="none" stroke="#fafaf0" stroke-linecap="round" stroke-width="4.25"/>
    <path id="Path_25" data-name="Path 25" d="M167.079,10.916,160,23.658" transform="translate(67 117)" fill="none" stroke="#fafaf0" stroke-linecap="round" stroke-width="4.25"/>
    <path id="Path_26" data-name="Path 26" d="M82,13.852l9.119,20.6" transform="translate(67 117)" fill="none" stroke="#fafaf0" stroke-linecap="round" stroke-width="4.25"/>
    <path id="Path_27" data-name="Path 27" d="M112,30.41a4.421,4.421,0,1,0,1.295-3.115A4.415,4.415,0,0,0,112,30.41Z" transform="translate(67 117)" fill="none" stroke="#f7fcef" stroke-linecap="round" stroke-linejoin="round" stroke-width="2.3"/>
    <path id="Path_28" data-name="Path 28" d="M28,32.41a4.42,4.42,0,1,0,1.295-3.115A4.41,4.41,0,0,0,28,32.41Z" transform="translate(67 117)" fill="none" stroke="#f7fcef" stroke-linecap="round" stroke-linejoin="round" stroke-width="2.3"/>
    <path id="Path_29" data-name="Path 29" d="M224,11.41a4.421,4.421,0,1,0,1.295-3.115A4.415,4.415,0,0,0,224,11.41Z" transform="translate(67 117)" fill="none" stroke="#f7fcef" stroke-linecap="round" stroke-linejoin="round" stroke-width="2.3"/>
    <path id="Path_30" data-name="Path 30" d="M207.329,32.693l3.96-.368a6.613,6.613,0,0,0,4.765-2.751l2.3-3.246.377,3.963a6.608,6.608,0,0,0,2.751,4.764l3.236,2.3-3.95.37A6.613,6.613,0,0,0,216,40.473l-2.308,3.243-.367-3.96a6.608,6.608,0,0,0-2.751-4.764Z" transform="translate(67 117)" fill="none" stroke="#f7fcef" stroke-linecap="round" stroke-linejoin="round" stroke-width="1.93"/>
    <path id="Path_31" data-name="Path 31" d="M42.06,2l3,5.2" transform="translate(67 117)" fill="none" stroke="#f7fcef" stroke-linecap="round" stroke-linejoin="round" stroke-width="2.3"/>
    <path id="Path_32" data-name="Path 32" d="M49.17,14.31l3,5.21" transform="translate(67 117)" fill="none" stroke="#f7fcef" stroke-linecap="round" stroke-linejoin="round" stroke-width="2.3"/>
    <path id="Path_33" data-name="Path 33" d="M37,10.76h6.01" transform="translate(67 117)" fill="none" stroke="#f7fcef" stroke-linecap="round" stroke-linejoin="round" stroke-width="2.3"/>
    <path id="Path_34" data-name="Path 34" d="M51.22,10.76h6.01" transform="translate(67 117)" fill="none" stroke="#f7fcef" stroke-linecap="round" stroke-linejoin="round" stroke-width="2.3"/>
    <path id="Path_35" data-name="Path 35" d="M42.06,19.52l3-5.21" transform="translate(67 117)" fill="none" stroke="#f7fcef" stroke-linecap="round" stroke-linejoin="round" stroke-width="2.3"/>
    <path id="Path_36" data-name="Path 36" d="M49.17,7.2l3-5.2" transform="translate(67 117)" fill="none" stroke="#f7fcef" stroke-linecap="round" stroke-linejoin="round" stroke-width="2.3"/>
    <path id="Path_37" data-name="Path 37" d="M51,39l1.38,3.72a6.61,6.61,0,0,0,3.89,3.89L60,48l-3.73,1.38a6.61,6.61,0,0,0-3.89,3.89L51,57l-1.38-3.73a6.61,6.61,0,0,0-3.89-3.89L42,48l3.73-1.39a6.61,6.61,0,0,0,3.89-3.89Z" transform="translate(67 117)" fill="none" stroke="#f7fcef" stroke-linecap="round" stroke-linejoin="round" stroke-width="1.93"/>
    <path id="Path_38" data-name="Path 38" d="M180.58,16l-1.935,7.225" transform="translate(67 117)" fill="none" stroke="#f7fcef" stroke-linecap="round" stroke-linejoin="round" stroke-width="2.3"/>
    <path id="Path_39" data-name="Path 39" d="M176,18.645l7.225,1.936" transform="translate(67 117)" fill="none" stroke="#f7fcef" stroke-linecap="round" stroke-linejoin="round" stroke-width="2.3"/>
    <path id="Path_40" data-name="Path 40" d="M186.321,50l1.979,3.419" transform="translate(67 117)" fill="none" stroke="#f7fcef" stroke-linecap="round" stroke-linejoin="round" stroke-width="1.5"/>
    <path id="Path_41" data-name="Path 41" d="M191,58.094l1.979,3.426" transform="translate(67 117)" fill="none" stroke="#f7fcef" stroke-linecap="round" stroke-linejoin="round" stroke-width="1.5"/>
    <path id="Path_42" data-name="Path 42" d="M183,55.76h3.952" transform="translate(67 117)" fill="none" stroke="#f7fcef" stroke-linecap="round" stroke-linejoin="round" stroke-width="1.5"/>
    <path id="Path_43" data-name="Path 43" d="M192.344,55.76h3.951" transform="translate(67 117)" fill="none" stroke="#f7fcef" stroke-linecap="round" stroke-linejoin="round" stroke-width="1.5"/>
    <path id="Path_44" data-name="Path 44" d="M186.321,61.52l1.979-3.426" transform="translate(67 117)" fill="none" stroke="#f7fcef" stroke-linecap="round" stroke-linejoin="round" stroke-width="1.5"/>
    <path id="Path_45" data-name="Path 45" d="M191,53.419,192.975,50" transform="translate(67 117)" fill="none" stroke="#f7fcef" stroke-linecap="round" stroke-linejoin="round" stroke-width="1.5"/>
    <path id="Path_46" data-name="Path 46" d="M133.29,11.29,128,6" transform="translate(67 117)" fill="none" stroke="#f7fcef" stroke-linecap="round" stroke-linejoin="round" stroke-width="2.3"/>
    <path id="Path_47" data-name="Path 47" d="M133.29,6,128,11.29" transform="translate(67 117)" fill="none" stroke="#f7fcef" stroke-linecap="round" stroke-linejoin="round" stroke-width="2.3"/>
    <path id="Path_48" data-name="Path 48" d="M7.29,16.29,2,11" transform="translate(67 117)" fill="none" stroke="#f7fcef" stroke-linecap="round" stroke-linejoin="round" stroke-width="2.3"/>
    <path id="Path_49" data-name="Path 49" d="M7.29,11,2,16.29" transform="translate(67 117)" fill="none" stroke="#f7fcef" stroke-linecap="round" stroke-linejoin="round" stroke-width="2.3"/>
    <path id="Path_50" data-name="Path 50" d="M124,51.9l2.9-6.9" transform="translate(67 117)" fill="none" stroke="#f7fcef" stroke-linecap="round" stroke-linejoin="round" stroke-width="2.3"/>
    <path id="Path_51" data-name="Path 51" d="M128.9,49.9,122,47" transform="translate(67 117)" fill="none" stroke="#f7fcef" stroke-linecap="round" stroke-linejoin="round" stroke-width="2.3"/>
  </g>
</svg>
