<svg xmlns="http://www.w3.org/2000/svg" xmlns:xlink="http://www.w3.org/1999/xlink" width="227.79" height="139.301" viewBox="0 0 227.79 139.301">
  <defs>
    <linearGradient id="linear-gradient" x1="0.5" x2="0.5" y2="1" gradientUnits="objectBoundingBox">
      <stop offset="0" stop-color="#f232a4"/>
      <stop offset="1" stop-color="#66b8d9" stop-opacity="0"/>
    </linearGradient>
  </defs>
  <g id="tr_2" transform="translate(-78.219 -392)">
    <path id="Path_69" data-name="Path 69" d="M230.29,117.29,225,112" transform="translate(68.552 391.301)" fill="none" stroke="#f7fcef" stroke-linecap="round" stroke-linejoin="round" stroke-width="2.3"/>
    <path id="Path_70" data-name="Path 70" d="M230.29,112,225,117.29" transform="translate(68.552 391.301)" fill="none" stroke="#f7fcef" stroke-linecap="round" stroke-linejoin="round" stroke-width="2.3"/>
    <path id="Path_53" data-name="Path 53" d="M14.613,41.7,70.049.924s6.98-.986,9.974,1.172c3.311,2.386,2.345,9.051,2.345,9.051L77.6,19.192s.359,6.411,3.809,8.542c3.4,2.1,10.723.621,10.723.621L119.1,8.517s9.4-3.756,13.685-.991c4.331,2.791,2.208,11.421,2.208,11.421l-25.03,23.515s-.553,4.043,1.087,6.007c2.593,3.1,11.369,1.847,11.369,1.847l38.818-26.283s8.675-2.045,12.152.7c3.705,2.928.813,10.746.813,10.746L146.415,57.054s-1.933,8.16,1.458,11.972c3.084,3.466,11.913,4.85,11.913,4.85l22.611-18.9s7.872-2.8,11.506-.523c4.306,2.7.778,11.338.778,11.338L165.328,89.65s-1.291,6.368,1.63,9.01c2.735,2.473,9.905,2.356,9.905,2.356l26.9-18.652s9.293-2.257,12.867.745c3.971,3.335-.686,11.848-.686,11.848l-51.758,39.205s-8.443,1.826-12.153-.7c-3.867-2.637-2.991-10.278-2.991-10.278l3.848-4.532s.485-6.009-2.379-8.459c-3.172-2.713-11.369-1.847-11.369-1.847L103.15,135.384s-7.982,1.756-11.437-.661c-3.211-2.246-3.094-8.5-3.094-8.5l6.914-7.921L93.324,106.88l-11.335-2.439-36.707,27s-8.921.623-12.05-2.48c-3.1-3.078-.847-10.154-.847-10.154l45.663-33.02s9.812-9.095,5.827-13.928c-3.252-3.943-14.16-3.2-14.16-3.2L42.134,86.681s-8.977.661-12.05-2.48c-3.382-3.458.651-11.255.651-11.255L65.23,47.006s4.839-6.735,2.013-9.988c-2.526-2.907-10.62-2.4-10.62-2.4L30.575,50.944s-9.644,3.4-13.651.4C13.465,48.753,14.613,41.7,14.613,41.7ZM237.457,77.213a8.11,8.11,0,1,1-8.11-8.11A8.11,8.11,0,0,1,237.457,77.213ZM25.446,92.274a6.951,6.951,0,1,1-6.951-6.951A6.951,6.951,0,0,1,25.446,92.274Z" transform="translate(68.552 391.301)" fill-rule="evenodd" opacity="0.5" fill="url(#linear-gradient)"/>
    <path id="Path_54" data-name="Path 54" d="M211,89.41a4.421,4.421,0,1,0,1.295-3.115A4.415,4.415,0,0,0,211,89.41Z" transform="translate(68.552 391.301)" fill="none" stroke="#f7fcef" stroke-linecap="round" stroke-linejoin="round" stroke-width="2.3"/>
    <path id="Path_55" data-name="Path 55" d="M12.309,129.533a4.42,4.42,0,1,0-1.482-3.031A4.409,4.409,0,0,0,12.309,129.533Z" transform="translate(68.552 391.301)" fill="none" stroke="#f7fcef" stroke-linecap="round" stroke-linejoin="round" stroke-width="2.3"/>
    <path id="Path_56" data-name="Path 56" d="M20.06,77l3,5.2" transform="translate(68.552 391.301)" fill="none" stroke="#f7fcef" stroke-linecap="round" stroke-linejoin="round" stroke-width="2.3"/>
    <path id="Path_57" data-name="Path 57" d="M27.17,89.31l3,5.21" transform="translate(68.552 391.301)" fill="none" stroke="#f7fcef" stroke-linecap="round" stroke-linejoin="round" stroke-width="2.3"/>
    <path id="Path_58" data-name="Path 58" d="M15,85.76h6.01" transform="translate(68.552 391.301)" fill="none" stroke="#f7fcef" stroke-linecap="round" stroke-linejoin="round" stroke-width="2.3"/>
    <path id="Path_59" data-name="Path 59" d="M29.22,85.76h6.01" transform="translate(68.552 391.301)" fill="none" stroke="#f7fcef" stroke-linecap="round" stroke-linejoin="round" stroke-width="2.3"/>
    <path id="Path_60" data-name="Path 60" d="M20.06,94.52l3-5.21" transform="translate(68.552 391.301)" fill="none" stroke="#f7fcef" stroke-linecap="round" stroke-linejoin="round" stroke-width="2.3"/>
    <path id="Path_61" data-name="Path 61" d="M27.17,82.2l3-5.2" transform="translate(68.552 391.301)" fill="none" stroke="#f7fcef" stroke-linecap="round" stroke-linejoin="round" stroke-width="2.3"/>
    <path id="Path_62" data-name="Path 62" d="M36.638,108.056l3.7,1.424a6.618,6.618,0,0,0,5.49-.347l3.509-1.88-1.431,3.711a6.609,6.609,0,0,0,.347,5.49l1.886,3.5-3.711-1.431a6.608,6.608,0,0,0-5.49.347l-3.5,1.886,1.423-3.717a6.612,6.612,0,0,0-.347-5.491Z" transform="translate(68.552 391.301)" fill="none" stroke="#f7fcef" stroke-linecap="round" stroke-linejoin="round" stroke-width="1.93"/>
    <path id="Path_63" data-name="Path 63" d="M199.575,104.841l-1.9,3.463" transform="translate(68.552 391.301)" fill="none" stroke="#f7fcef" stroke-linecap="round" stroke-linejoin="round" stroke-width="1.5"/>
    <path id="Path_64" data-name="Path 64" d="M195.07,113.031l-1.907,3.467" transform="translate(68.552 391.301)" fill="none" stroke="#f7fcef" stroke-linecap="round" stroke-linejoin="round" stroke-width="1.5"/>
    <path id="Path_65" data-name="Path 65" d="M192.928,104.982l2.046,3.381" transform="translate(68.552 391.301)" fill="none" stroke="#f7fcef" stroke-linecap="round" stroke-linejoin="round" stroke-width="1.5"/>
    <path id="Path_66" data-name="Path 66" d="M197.765,112.976l2.045,3.381" transform="translate(68.552 391.301)" fill="none" stroke="#f7fcef" stroke-linecap="round" stroke-linejoin="round" stroke-width="1.5"/>
    <path id="Path_67" data-name="Path 67" d="M189.719,110.8l3.955-.08" transform="translate(68.552 391.301)" fill="none" stroke="#f7fcef" stroke-linecap="round" stroke-linejoin="round" stroke-width="1.5"/>
    <path id="Path_68" data-name="Path 68" d="M199.07,110.611l3.95-.077" transform="translate(68.552 391.301)" fill="none" stroke="#f7fcef" stroke-linecap="round" stroke-linejoin="round" stroke-width="1.5"/>
    <path id="Path_71" data-name="Path 71" d="M117,140A55,55,0,1,0,62,85,55,55,0,0,0,117,140Z" transform="translate(68.552 391.301)" fill="#ffb533"/>
    <path id="Path_72" data-name="Path 72" d="M139.871,113.658c-.138-.547-3.569-13.38-22.871-13.38s-22.733,12.833-22.871,13.38a1.523,1.523,0,0,0,.724,1.693,1.545,1.545,0,0,0,1.833-.235c.058-.058,5.97-5.672,20.313-5.672s20.258,5.614,20.313,5.669a1.527,1.527,0,0,0,2.558-1.455Z" transform="translate(68.552 391.301)" fill="#664500"/>
    <path id="Path_73" data-name="Path 73" d="M98.667,81.944c4.219,0,7.639-4.788,7.639-10.694s-3.42-10.694-7.639-10.694-7.639,4.788-7.639,10.694S94.448,81.944,98.667,81.944Z" transform="translate(68.552 391.301)" fill="#664500"/>
    <path id="Path_74" data-name="Path 74" d="M135.333,81.944c4.219,0,7.639-4.788,7.639-10.694s-3.42-10.694-7.639-10.694-7.639,4.788-7.639,10.694S131.115,81.944,135.333,81.944Z" transform="translate(68.552 391.301)" fill="#664500"/>
  </g>
</svg>
