<svg width="60" height="60" viewBox="0 0 60 60" fill="none" xmlns="http://www.w3.org/2000/svg">
<mask id="mask0" mask-type="alpha" maskUnits="userSpaceOnUse" x="8" y="14" width="45" height="45">
<path d="M52.25 58.5002V53.0002C52.25 50.0829 51.0911 47.285 49.0282 45.2221C46.9653 43.1592 44.1674 42.0002 41.25 42.0002H19.25C16.3326 42.0002 13.5347 43.1592 11.4718 45.2221C9.40892 47.285 8.25 50.0829 8.25 53.0002V58.5002" fill="#511285"/>
<path d="M30.25 36.25C36.3251 36.25 41.25 31.3251 41.25 25.25C41.25 19.1749 36.3251 14.25 30.25 14.25C24.1749 14.25 19.25 19.1749 19.25 25.25C19.25 31.3251 24.1749 36.25 30.25 36.25Z" fill="#511285"/>
</mask>
<g mask="url(#mask0)">
<circle cx="30.0834" cy="30" r="30" fill="#511285"/>
</g>
<circle cx="30" cy="30" r="28.5" stroke="#511285" stroke-width="3"/>
</svg>
