<svg width="20" height="15" viewBox="0 0 20 15" fill="none" xmlns="http://www.w3.org/2000/svg">
<path d="M18.6232 2.9799C18.526 2.59162 18.3281 2.23586 18.0494 1.94856C17.7707 1.66125 17.4211 1.45258 17.036 1.34362C15.6288 1 10 1 10 1C10 1 4.3712 1 2.964 1.37634C2.57886 1.48531 2.22929 1.69398 1.95061 1.98128C1.67193 2.26858 1.474 2.62434 1.37681 3.01262C1.11927 4.44073 0.993297 5.88945 1.00047 7.34058C0.991288 8.80263 1.11727 10.2624 1.37681 11.7013C1.48395 12.0775 1.68632 12.4197 1.96435 12.6949C2.24239 12.97 2.58669 13.1689 2.964 13.2721C4.3712 13.6484 10 13.6484 10 13.6484C10 13.6484 15.6288 13.6484 17.036 13.2721C17.4211 13.1631 17.7707 12.9545 18.0494 12.6672C18.3281 12.3799 18.526 12.0241 18.6232 11.6358C18.8787 10.2185 19.0047 8.78078 18.9995 7.34058C19.0087 5.87853 18.8827 4.41876 18.6232 2.9799V2.9799Z" stroke="white" stroke-linecap="round" stroke-linejoin="round"/>
<path d="M8.15912 10.0159L12.8634 7.34054L8.15912 4.66522V10.0159Z" stroke="white" stroke-linecap="round" stroke-linejoin="round"/>
</svg>
