<svg xmlns="http://www.w3.org/2000/svg" width="28" height="31.328" viewBox="0 0 28 31.328">
  <g id="word_game" transform="translate(0 -4)">
    <path id="Path_1" data-name="Path 1" d="M2,5h9.208a1,1,0,0,1,1,1V16.872a1,1,0,0,1-1,1H2a1,1,0,0,1-1-1V6A1,1,0,0,1,2,5Z" fill="none" stroke="#66b8d9" stroke-linecap="round" stroke-linejoin="round" stroke-width="2"/>
    <path id="Path_2" data-name="Path 2" d="M26,4H16.792a2,2,0,0,0-2,2V16.872a2,2,0,0,0,2,2H26a2,2,0,0,0,2-2V6A2,2,0,0,0,26,4Z" fill="#66b8d9"/>
    <path id="Path_3" data-name="Path 3" d="M26,20.456H16.792a2,2,0,0,0-2,2V33.328a2,2,0,0,0,2,2H26a2,2,0,0,0,2-2V22.456A2,2,0,0,0,26,20.456Z" fill="#5939c6"/>
    <path id="Path_4" data-name="Path 4" d="M11.208,20.456H2a2,2,0,0,0-2,2V33.328a2,2,0,0,0,2,2h9.208a2,2,0,0,0,2-2V22.456A2,2,0,0,0,11.208,20.456Z" fill="#5939c6"/>
    <path id="Path_5" data-name="Path 5" d="M21.337,7.8a10.09,10.09,0,0,1,1.23.08,9.735,9.735,0,0,1,1.09.17v4.07a8.5,8.5,0,0,1-.13,1.53,2.568,2.568,0,0,1-.59,1.27,1.694,1.694,0,0,1-1.39.56,12.589,12.589,0,0,1-1.74-.19V14.08a13.482,13.482,0,0,0,1.62.18.959.959,0,0,0,.5-.11.631.631,0,0,0,.26-.38,2.553,2.553,0,0,0,.09-.77h-1.16q-2.07,0-2.07-2.34a4.882,4.882,0,0,1,.26-1.81,1.5,1.5,0,0,1,.75-.83A3.154,3.154,0,0,1,21.337,7.8Zm-.95,2.78a1.586,1.586,0,0,0,.22.86.976.976,0,0,0,.88.34h.83V9.07a5.6,5.6,0,0,0-.73-.05,1.565,1.565,0,0,0-.67.12.783.783,0,0,0-.39.45A2.666,2.666,0,0,0,20.387,10.58Z" fill="#fff"/>
    <path id="Path_6" data-name="Path 6" d="M10.633,26.369q.088.512.152,1.04a6.416,6.416,0,0,1,.072.744v2.224H9.209a1.519,1.519,0,0,1-.512-.088,1.416,1.416,0,0,1-.392-.208,1.133,1.133,0,0,1-.8.3H6.769v.32a1.391,1.391,0,0,1-.248.776,1.751,1.751,0,0,1-.76.632,2.943,2.943,0,0,1-1.3.256,2.658,2.658,0,0,1-1.376-.3,1.676,1.676,0,0,1-.7-.728,2.023,2.023,0,0,1-.192-.84,16.116,16.116,0,0,1,.352-2.344l1.016.056a17.138,17.138,0,0,0-.328,2.128,1.065,1.065,0,0,0,.12.48.972.972,0,0,0,.392.4,1.366,1.366,0,0,0,.712.168,1.525,1.525,0,0,0,.672-.136.993.993,0,0,0,.424-.368.872.872,0,0,0,.144-.48V26.777H6.769V29.4h.368a.523.523,0,0,0,.464-.24,1.1,1.1,0,0,0,.168-.632V26.777H8.841v1.752a3.011,3.011,0,0,1-.08.728.834.834,0,0,0,.184.1.754.754,0,0,0,.24.04h.6v-1.1q0-.512-.016-.864T9.7,26.409Zm-2.7-2.8h.768v.9H7.937Zm-.64,1.1h.824v.96H7.3Zm1.216,0h.824v.96H8.513Z" fill="#fff"/>
  </g>
</svg>
