<svg xmlns="http://www.w3.org/2000/svg" width="369.823" height="104.294" viewBox="0 0 369.823 104.294">
  <g id="Group_72" data-name="Group 72" transform="translate(-68.463 -360.263)">
    <text id="كويستانيا_فضاءُ_التحديات_" data-name="كويستانيا فضاءُ التحديات " transform="translate(128.533 456.557)" fill="#110050" font-size="28" font-family="SegoeUI-Bold, Segoe UI" font-weight="700"><tspan x="0" y="0">كويستانيا فضاءُ التحديات</tspan><tspan y="0"> </tspan></text>
    <g id="Group_47" data-name="Group 47" transform="translate(68.463 360.263)">
      <g id="Group_57" data-name="Group 57" transform="translate(0)">
        <g id="Group_51" data-name="Group 51" transform="translate(0 0)">
          <path id="Path_993" data-name="Path 993" d="M1776.987,7177.534a9.476,9.476,0,0,0,1.156,3.457,6.817,6.817,0,0,0,1.943,2.133,6.076,6.076,0,0,0,2.476,1,8.82,8.82,0,0,0,2.753.022,7.777,7.777,0,0,0,2.676-.9,6.525,6.525,0,0,0,2.062-1.8,7.126,7.126,0,0,0,1.209-2.642,9.105,9.105,0,0,0,.112-3.4l-3.327-24.061a1.2,1.2,0,0,1,.257-.932,1.393,1.393,0,0,1,.963-.507c3.537-.484,5.306-.716,8.846-1.159a1.509,1.509,0,0,1,1.139.247,1.193,1.193,0,0,1,.5.815q1.48,11.972,2.96,23.942a20.861,20.861,0,0,1-.464,8.537,14.725,14.725,0,0,1-3.313,5.95,15.816,15.816,0,0,1-5.4,3.729,27.331,27.331,0,0,1-6.771,1.88,26.822,26.822,0,0,1-7.046.131,15.942,15.942,0,0,1-6.279-2.062,15.023,15.023,0,0,1-4.9-4.753,20.5,20.5,0,0,1-2.9-7.938q-2.041-11.887-4.084-23.775a1.263,1.263,0,0,1,.2-.92,1.121,1.121,0,0,1,.792-.526c3.61-.615,5.417-.912,9.032-1.485a1.662,1.662,0,0,1,1,.2,1.069,1.069,0,0,1,.637.812Q1775.1,7165.539,1776.987,7177.534Z" transform="translate(-1712.655 -7142.187)" fill="#110050"/>
          <g id="Group_47-2" data-name="Group 47" transform="translate(95.904 2.617)">
            <path id="Path_994" data-name="Path 994" d="M1938.081,7136.726a1.471,1.471,0,0,1,.965.246,1.137,1.137,0,0,1,.462.915c.182,2.583.272,3.874.455,6.459a1.564,1.564,0,0,1-.3.938,1.143,1.143,0,0,1-.928.554q-15.671,1.167-31.288,2.863-1.321.149-1.477-1.245c-.29-2.574-.435-3.86-.725-6.433q-.141-1.251,1.194-1.4Q1922.239,7137.906,1938.081,7136.726Z" transform="translate(-1905.234 -7136.721)" fill="#110050"/>
          </g>
          <g id="Group_48" data-name="Group 48" transform="translate(97.759 19.091)">
            <path id="Path_995" data-name="Path 995" d="M1910.906,7197.069a2.337,2.337,0,0,1,.235-.79,2.19,2.19,0,0,1,.781-.455Z" transform="translate(-1910.905 -7192.957)" fill="#110050"/>
            <path id="Path_996" data-name="Path 996" d="M1923.171,7197.934c.289,2.936.433,4.405.721,7.343q10.18-.974,20.375-1.735a1.382,1.382,0,0,1,.927.253,1.158,1.158,0,0,1,.447.913l.455,6.461a1.606,1.606,0,0,1-.282.935,1.085,1.085,0,0,1-.89.553q-15.033,1.122-30.014,2.747-1.269.139-1.424-1.251-1.287-11.421-2.575-22.846a.8.8,0,0,1-.007-.128,1.256,1.256,0,0,1,.234-.79,1.16,1.16,0,0,1,.782-.455.843.843,0,0,1,.159-.024q15.48-1.683,31-2.839a1.433,1.433,0,0,1,.946.248,1.147,1.147,0,0,1,.455.915c.182,2.583.273,3.874.454,6.457a1.578,1.578,0,0,1-.289.939,1.122,1.122,0,0,1-.91.554Q1933.443,7196.947,1923.171,7197.934Z" transform="translate(-1910.903 -7187.065)" fill="#110050"/>
          </g>
          <path id="Path_997" data-name="Path 997" d="M2036.647,7158.861c.343.249.794.581,1.336,1a17.227,17.227,0,0,0,1.844,1.236,15.382,15.382,0,0,0,3.032,1.368,8.9,8.9,0,0,0,3.1.4,8.348,8.348,0,0,0,2.486-.435,4.281,4.281,0,0,0,1.561-.935,3.089,3.089,0,0,0,.788-1.289,4.584,4.584,0,0,0,.193-1.523,2.2,2.2,0,0,0-.751-1.56,7.14,7.14,0,0,0-1.743-1.177,14.7,14.7,0,0,0-2.134-.842q-1.109-.34-1.918-.56a46.6,46.6,0,0,1-6.341-2.28,19.8,19.8,0,0,1-4.625-2.835,11.7,11.7,0,0,1-2.907-3.577,11.253,11.253,0,0,1-1.183-4.5,10.242,10.242,0,0,1,.83-4.894,10.62,10.62,0,0,1,3.021-3.9,15.629,15.629,0,0,1,4.964-2.662,23.856,23.856,0,0,1,6.636-1.157,23.026,23.026,0,0,1,5.345.373,20.417,20.417,0,0,1,5.073,1.705q1.051.541,2,1.129t1.656,1.142a7.454,7.454,0,0,1,1.134,1.06,1.534,1.534,0,0,1,.431.877,1.266,1.266,0,0,1-.18.691,4.373,4.373,0,0,1-.571.73c-1.8,1.912-2.7,2.871-4.478,4.792a1.5,1.5,0,0,1-1.005.52,1.363,1.363,0,0,1-.773-.2c-.235-.146-.5-.327-.785-.547l-.278-.219q-.618-.466-1.374-.955a12.132,12.132,0,0,0-1.615-.87,10.764,10.764,0,0,0-1.8-.615,6.685,6.685,0,0,0-1.911-.193,10.546,10.546,0,0,0-1.863.239,5.417,5.417,0,0,0-1.514.569,2.874,2.874,0,0,0-1.011.951,2.529,2.529,0,0,0,.162,2.743,4.131,4.131,0,0,0,1.31,1.026,12.118,12.118,0,0,0,2.123.849q1.26.388,2.926.838,3.208.872,5.913,1.886a19.286,19.286,0,0,1,4.678,2.465,10.7,10.7,0,0,1,3.1,3.513,10.878,10.878,0,0,1,1.193,5.039,12.355,12.355,0,0,1-1.187,5.737,13.337,13.337,0,0,1-3.48,4.457,17.142,17.142,0,0,1-5.256,2.959,21.992,21.992,0,0,1-6.549,1.248,19.376,19.376,0,0,1-6.586-.861,26.181,26.181,0,0,1-6.172-2.816,15.847,15.847,0,0,1-2.061-1.513q-.85-.751-1.347-1.209c-.037-.031-.055-.047-.092-.08a.165.165,0,0,0-.063-.067.163.163,0,0,1-.061-.039.287.287,0,0,0-.063-.069.17.17,0,0,1-.061-.039,1.986,1.986,0,0,1-.745-1.1,1.614,1.614,0,0,1,.6-1.131c1.9-2.014,2.856-3.019,4.781-5.023a1.94,1.94,0,0,1,.975-.485,1.1,1.1,0,0,1,.568.14A5.812,5.812,0,0,1,2036.647,7158.861Z" transform="translate(-1892.588 -7128.724)" fill="#110050"/>
          <path id="Path_998" data-name="Path 998" d="M2144.839,7130.655a1.131,1.131,0,0,1,.4-.921,1.54,1.54,0,0,1,1.016-.358q16.407-.2,32.806.174a1.609,1.609,0,0,1,.966.34,1.254,1.254,0,0,1,.462.954c-.077,2.842-.116,4.263-.192,7.1a1.563,1.563,0,0,1-.4.975,1.289,1.289,0,0,1-1.082.442q-5.2-.133-10.392-.2l-.391,31.331a1.362,1.362,0,0,1-.386.927,1.27,1.27,0,0,1-.986.4c-3.391-.037-5.087-.046-8.479-.045a1.368,1.368,0,0,1-.924-.387,1.235,1.235,0,0,1-.434-.959q-.029-15.668-.059-31.333-5.181.006-10.363.086a1.45,1.45,0,0,1-1.015-.355,1.4,1.4,0,0,1-.424-1.078C2144.91,7134.916,2144.886,7133.5,2144.839,7130.655Z" transform="translate(-1970.53 -7129.116)" fill="#110050"/>
          <path id="Path_999" data-name="Path 999" d="M2658.375,7227.535a.7.7,0,0,1-.481.551,1.118,1.118,0,0,1-.154.031,1.17,1.17,0,0,1-.146.007,1.609,1.609,0,0,1-.2-.014c-.079-.011-.162-.025-.249-.045q-4.557-1.093-9.129-2.121a1.511,1.511,0,0,1-1.239-1.392q-1.514-13.7-3.277-27.366-1.884,2.938-3.644,5.887T2636.38,7209q-.825,1.438-1.658,2.874c1.846.271,3.707.565,5.56.894a1.581,1.581,0,0,1,1.385,1.378c.652,3.56.971,5.34,1.593,8.9a1.36,1.36,0,0,1-.084.954.834.834,0,0,1-.6.376,1.069,1.069,0,0,1-.321.021l-.085.016q-7.152-1.428-14.322-2.757l-.019,0c-.284-.054-.426-.079-.71-.131-3.39-.669-5.087-.993-8.483-1.625a1.446,1.446,0,0,1-.887-.411.766.766,0,0,1-.165-.4,1.024,1.024,0,0,1,.014-.278,1.253,1.253,0,0,1,.084-.3c.006-.035.009-.052.015-.083q10.933-17.583,22.427-34.794c.153-.244.335-.507.537-.8.1-.145.208-.281.316-.412a0,0,0,0,1,0,0c.108-.128.22-.253.336-.368a3.142,3.142,0,0,1,.566-.445c.07-.041.138-.077.206-.115a1.326,1.326,0,0,1,.35-.115,1.18,1.18,0,0,1,.187-.023h.122a1.7,1.7,0,0,1,.208.03c2.964.613,4.446.929,7.407,1.569a2.4,2.4,0,0,1,.417.128s0,0,0,0a1.222,1.222,0,0,1,.55.428.917.917,0,0,1,.132.3,7.851,7.851,0,0,1,.284.865c.026.1.05.2.071.294.045.2.094.4.136.592s.084.4.121.605q3.483,20.4,6.321,40.888a.7.7,0,0,0-.017.258A.622.622,0,0,1,2658.375,7227.535Z" transform="translate(-2288.581 -7164.126)" fill="#110050"/>
          <path id="Path_1000" data-name="Path 1000" d="M2675.024,7253.672l3.475-5.929Z" transform="translate(-2327.225 -7208.797)" fill="#110050"/>
          <path id="Path_1001" data-name="Path 1001" d="M2702.124,7182.941a3.922,3.922,0,0,1,.413.131s-.263-.095-.417-.128c-2.961-.641-4.443-.956-7.407-1.569a1.691,1.691,0,0,0-.209-.03,1.344,1.344,0,0,1,.213.027C2697.681,7181.985,2699.163,7182.3,2702.124,7182.941Z" transform="translate(-2340.33 -7164.126)" fill="#110050"/>
          <path id="Path_1002" data-name="Path 1002" d="M2719.063,7186.625l.549.426Z" transform="translate(-2356.854 -7167.678)" fill="#110050"/>
          <path id="Path_1003" data-name="Path 1003" d="M2722.219,7192.381s-.091-.4-.135-.592c-.022-.1-.072-.294-.072-.294s.051.2.075.3C2722.135,7191.982,2722.219,7192.381,2722.219,7192.381Z" transform="translate(-2358.838 -7170.955)" fill="#110050"/>
          <path id="Path_1004" data-name="Path 1004" d="M2388.281,7139.479a1.218,1.218,0,0,1,1.443-1.142q4.972.42,9.938.91a2.217,2.217,0,0,1,.862.284,1.9,1.9,0,0,1,.721.763q3.223,6.132,6.39,12.291,3.155,6.142,6.2,12.342,1.351-11.379,2.7-22.762a1.372,1.372,0,0,1,.58-.736,1.332,1.332,0,0,1,.883-.183c3.457.415,5.185.633,8.638,1.085a1.71,1.71,0,0,1,1.017.466,1.106,1.106,0,0,1,.3.979q-2.644,19.887-5.29,39.771a1.008,1.008,0,0,1-.456.79,1.512,1.512,0,0,1-.984.145q-4.58-.6-9.169-1.147a.978.978,0,0,1-.631-.335,4.608,4.608,0,0,1-.525-.754q-3.08-6.636-6.244-13.229c-2.13-4.416-4.315-8.8-6.522-13.183q-1.2,12.23-2.392,24.464a1.354,1.354,0,0,1-.38.912,1.393,1.393,0,0,1-1.068.213c-3.273-.313-4.91-.463-8.186-.743a1.206,1.206,0,0,1-.936-.438,1.3,1.3,0,0,1-.23-.895Q2386.611,7159.412,2388.281,7139.479Z" transform="translate(-2132.062 -7135.186)" fill="#110050"/>
          <path id="Path_1005" data-name="Path 1005" d="M2552.286,7172.291q4.8-6.712,9.7-13.353a3.909,3.909,0,0,1,.388-.44.907.907,0,0,1,.281-.183.673.673,0,0,1,.271-.039,1.566,1.566,0,0,0,.329-.014q5.8,1.025,11.593,2.136a.492.492,0,0,1,.322.191.4.4,0,0,1,.078.321,1.091,1.091,0,0,1-.555.623q-9.321,10.4-18.359,21.052-1.366,7.882-2.734,15.762a1.183,1.183,0,0,1-1.541,1.1c-3.423-.589-5.136-.872-8.563-1.421a1.138,1.138,0,0,1-.83-.5,1.427,1.427,0,0,1-.159-1.024q1.257-7.928,2.515-15.855-5.1-12.968-10.528-25.795a1.026,1.026,0,0,1-.294-.763.422.422,0,0,1,.162-.28.441.441,0,0,1,.352-.08q5.827.819,11.643,1.723a2.439,2.439,0,0,0,.321.122.637.637,0,0,1,.228.123.9.9,0,0,1,.207.264q.1.174.254.547Q2549.885,7164.383,2552.286,7172.291Z" transform="translate(-2232.477 -7145.545)" fill="#110050"/>
          <path id="Path_1006" data-name="Path 1006" d="M2627.617,7298.018c.072.014.144.025.211.031l-.71-.131Zm-9.937-3.123a1.122,1.122,0,0,0-.086.3.922.922,0,0,0-.011.281,1.068,1.068,0,0,1,.014-.28A1.3,1.3,0,0,1,2617.681,7294.9Z" transform="translate(-2288.577 -7240.52)" fill="#110050"/>
          <g id="Group_50" data-name="Group 50" transform="translate(0 15.039)">
            <g id="Group_49" data-name="Group 49">
              <path id="Path_1007" data-name="Path 1007" d="M1655.685,7186.689a21.7,21.7,0,0,0-3.232-4.73,21.224,21.224,0,0,0-4.385-3.709,22.459,22.459,0,0,0-5.3-2.464,24.127,24.127,0,0,0-5.932-1.067,24.415,24.415,0,0,0-12.222,2.568,24.255,24.255,0,0,0-4.994,3.362,22.007,22.007,0,0,0-6.384,9.549,20.85,20.85,0,0,0-1.061,5.634,20.6,20.6,0,0,0,.568,5.854,21,21,0,0,0,2.14,5.477,21.31,21.31,0,0,0,3.426,4.538c.351.354.713.7,1.088,1.027l.34-.588a21.456,21.456,0,0,1,1.453-2.177,24.218,24.218,0,0,1,4.184-4.234c.059-.047.124-.1.19-.146l.161-.134c.393-.313.8-.613,1.2-.9a11.449,11.449,0,0,1-1.111-1.373,11.759,11.759,0,0,1-1.787-4.146,11.6,11.6,0,0,1-.147-4.5,10.82,10.82,0,0,1,4.534-7.191,12.2,12.2,0,0,1,9.019-1.9,10.795,10.795,0,0,1,7.056,4.757,11.633,11.633,0,0,1,1.675,4.178,11.763,11.763,0,0,1,.047,4.425c0,.03-.01.06-.014.09a11.219,11.219,0,0,1-.474,1.725c.388.073.775.16,1.163.256.07.02.146.036.219.055s.146.037.218.055c.294.075.593.152.882.236a23.94,23.94,0,0,1,4.673,1.869,21.275,21.275,0,0,1,3.017,1.958c.2-.446.391-.9.566-1.366a21.877,21.877,0,0,0,1.007-3.551c.126-.647.226-1.31.3-1.98a20.669,20.669,0,0,0-.23-5.878A20.272,20.272,0,0,0,1655.685,7186.689Z" transform="translate(-1612.152 -7174.682)" fill="#110050"/>
            </g>
            <path id="Path_1008" data-name="Path 1008" d="M1680.49,7273.395a1.322,1.322,0,0,1-.369.614,3.806,3.806,0,0,1-.339.277c-.117.085-.252.177-.4.27-.452.274-.678.411-1.129.687-1.76,1.071-2.637,1.61-4.387,2.693a1.438,1.438,0,0,1-1.077.225,1.246,1.246,0,0,1-.654-.4c-.175-.2-.366-.451-.565-.738l-.194-.288c-.221-.312-.469-.644-.738-.979q-.123-.155-.25-.308a11.018,11.018,0,0,0-1.235-1.274c-.009-.008-.014-.015-.022-.021a16.392,16.392,0,0,0-2.46-1.545,9.024,9.024,0,0,0-2.947-.641,13.2,13.2,0,0,0-3.166.243,17.29,17.29,0,0,0-2.942.752,9.2,9.2,0,0,0-1.9,1.011,8.76,8.76,0,0,0-2.23,2.165,9.512,9.512,0,0,0-.787,1.362,22.635,22.635,0,0,1-8.525-4.8,17.313,17.313,0,0,1,1.229-1.836,21.043,21.043,0,0,1,3.618-3.65c.056-.046.116-.093.176-.138s.118-.1.174-.143a19.722,19.722,0,0,1,2.613-1.787c.587-.343,1.185-.659,1.8-.939a19.373,19.373,0,0,1,5.023-1.513c.132-.021.268-.038.4-.051a18.94,18.94,0,0,1,3.222-.278,21.461,21.461,0,0,1,5.139.644c.072.018.146.037.218.057s.148.033.219.052c.254.064.508.13.756.2a21.045,21.045,0,0,1,4.05,1.615,17.973,17.973,0,0,1,4.144,3.017c.433.422.836.871,1.214,1.3.093.105.189.213.279.321a18.888,18.888,0,0,1,1.18,1.547,7.193,7.193,0,0,1,.73,1.324A1.569,1.569,0,0,1,1680.49,7273.395Z" transform="translate(-1633.694 -7233.667)" fill="#110050"/>
          </g>
          <path id="Path_1009" data-name="Path 1009" d="M2280.8,7174.809c-.054.521-.451.771-1.1.724q-4.644-.35-9.294-.635a1.5,1.5,0,0,1-1.437-1.176q-3.652-13.282-7.547-26.491-1.385,3.195-2.648,6.391t-2.476,6.408c-.389,1.032-1.09,2.877-1.09,2.877,2.421.089,3.632.139,6.052.245a1.572,1.572,0,0,1,1.577,1.139c1.021,3.512,1.527,5.269,2.522,8.783a1.373,1.373,0,0,1,.069.958.841.841,0,0,1-.526.466.863.863,0,0,1-.258.063q-11.921-.623-23.85-.939a1.435,1.435,0,0,1-.933-.265.84.84,0,0,1-.257-.591,16.214,16.214,0,0,1,.9-3.026l.833-1.994q.417-.993.836-1.987l.657-1.555.3-.7q2.554-6.015,5.176-12,2.53-5.779,5.123-11.529c1.011-2.239,1.52-3.359,2.543-5.6.112-.264.247-.553.4-.871a6.118,6.118,0,0,1,.525-.881,2.91,2.91,0,0,1,.667-.673,1.325,1.325,0,0,1,.838-.251c3.01.134,4.515.207,7.524.368a1.261,1.261,0,0,1,1.213.67,9.081,9.081,0,0,1,.536,1.09c.151.368.3.754.438,1.144.11.314.217.636.326.954q.445,1.308.887,2.615.658,1.948,1.31,3.9.8,2.4,1.592,4.8.877,2.66,1.74,5.325.886,2.735,1.758,5.471.833,2.619,1.654,5.238.725,2.31,1.438,4.623.56,1.811,1.114,3.624a22.106,22.106,0,0,1,.856,2.908A1.438,1.438,0,0,1,2280.8,7174.809Z" transform="translate(-2034.288 -7130.727)" fill="#110050"/>
          <path id="Path_1010" data-name="Path 1010" d="M2658.5,7227.469c-.136.5-.571.687-1.208.535q-4.556-1.091-9.127-2.118a1.513,1.513,0,0,1-1.24-1.394q-1.515-13.7-3.28-27.363-1.882,2.931-3.643,5.884t-3.475,5.931c-.55.957-1.538,2.666-1.538,2.666,2.387.476,3.58.718,5.965,1.212a1.58,1.58,0,0,1,1.384,1.376c.456,3.631.677,5.447,1.107,9.076a1.363,1.363,0,0,1-.084.956.838.838,0,0,1-.6.376.811.811,0,0,1-.266.022q-11.725-2.525-23.508-4.748a1.427,1.427,0,0,1-.883-.409.837.837,0,0,1-.161-.623,16.191,16.191,0,0,1,1.369-2.845q.571-.918,1.144-1.836l1.144-1.828.9-1.431c.133-.212.267-.423.4-.641q3.489-5.531,7.041-11.02,3.427-5.3,6.914-10.563c1.358-2.05,2.041-3.074,3.412-5.119.153-.242.333-.507.536-.8a6.126,6.126,0,0,1,.662-.787,2.9,2.9,0,0,1,.769-.556,1.328,1.328,0,0,1,.872-.114c2.965.613,4.447.929,7.408,1.569a1.273,1.273,0,0,1,1.1.854,9.361,9.361,0,0,1,.358,1.164c.091.387.179.792.253,1.2.06.329.115.664.172,1q.234,1.361.465,2.724.344,2.03.68,4.057.415,2.5.817,5,.447,2.769.881,5.537.446,2.84.876,5.685.412,2.719.811,5.438.352,2.4.694,4.795.269,1.879.529,3.759a22.042,22.042,0,0,1,.39,3.008A1.5,1.5,0,0,1,2658.5,7227.469Z" transform="translate(-2288.824 -7164.084)" fill="#110050"/>
          <path id="Path_1011" data-name="Path 1011" d="M1658.257,7218.854c1.591-3.494,5.777-4.511,9.285-4.039C1663.78,7214.848,1661.109,7216.679,1658.257,7218.854Z" transform="translate(-1643.17 -7186.571)" fill="#110050"/>
          <path id="Path_1012" data-name="Path 1012" d="M1672.646,7229.985c-.032.006-.049.008-.081.016-5.708-.477-10.608.164-15.566,3.253-.033.1-.066.2-.1.3l-.02,0c-.1-.145-.2-.295-.3-.447a7.868,7.868,0,0,1-.527-1.037,8.35,8.35,0,0,1-.563-2.04,8.52,8.52,0,0,1-.057-1.963v0a9.653,9.653,0,0,1,.252-1.509c.073-.294.156-.58.254-.858,4.824-2.977,9.581-3.582,15.119-3.1a7.494,7.494,0,0,1,.755,1.085c.114.2.22.405.314.609a8.371,8.371,0,0,1,.708,2.512,8.658,8.658,0,0,1,.052,1.425A9.363,9.363,0,0,1,1672.646,7229.985Z" transform="translate(-1641.254 -7191.781)" fill="#110050"/>
        </g>
        <g id="Group_56" data-name="Group 56" transform="translate(0 0)">
          <path id="Path_1013" data-name="Path 1013" d="M1776.987,7177.534a9.476,9.476,0,0,0,1.156,3.457,6.817,6.817,0,0,0,1.943,2.133,6.076,6.076,0,0,0,2.476,1,8.82,8.82,0,0,0,2.753.022,7.777,7.777,0,0,0,2.676-.9,6.525,6.525,0,0,0,2.062-1.8,7.126,7.126,0,0,0,1.209-2.642,9.105,9.105,0,0,0,.112-3.4l-3.327-24.061a1.2,1.2,0,0,1,.257-.932,1.393,1.393,0,0,1,.963-.507c3.537-.484,5.306-.716,8.846-1.159a1.509,1.509,0,0,1,1.139.247,1.193,1.193,0,0,1,.5.815q1.48,11.972,2.96,23.942a20.861,20.861,0,0,1-.464,8.537,14.725,14.725,0,0,1-3.313,5.95,15.816,15.816,0,0,1-5.4,3.729,27.331,27.331,0,0,1-6.771,1.88,26.822,26.822,0,0,1-7.046.131,15.942,15.942,0,0,1-6.279-2.062,15.023,15.023,0,0,1-4.9-4.753,20.5,20.5,0,0,1-2.9-7.938q-2.041-11.887-4.084-23.775a1.263,1.263,0,0,1,.2-.92,1.121,1.121,0,0,1,.792-.526c3.61-.615,5.417-.912,9.032-1.485a1.662,1.662,0,0,1,1,.2,1.069,1.069,0,0,1,.637.812Q1775.1,7165.539,1776.987,7177.534Z" transform="translate(-1712.655 -7142.187)" fill="#110050"/>
          <g id="Group_52" data-name="Group 52" transform="translate(95.904 2.617)">
            <path id="Path_1014" data-name="Path 1014" d="M1938.081,7136.726a1.471,1.471,0,0,1,.965.246,1.137,1.137,0,0,1,.462.915c.182,2.583.272,3.874.455,6.459a1.564,1.564,0,0,1-.3.938,1.143,1.143,0,0,1-.928.554q-15.671,1.167-31.288,2.863-1.321.149-1.477-1.245c-.29-2.574-.435-3.86-.725-6.433q-.141-1.251,1.194-1.4Q1922.239,7137.906,1938.081,7136.726Z" transform="translate(-1905.234 -7136.721)" fill="#110050"/>
          </g>
          <g id="Group_53" data-name="Group 53" transform="translate(97.759 19.091)">
            <path id="Path_1015" data-name="Path 1015" d="M1910.906,7197.069a2.337,2.337,0,0,1,.235-.79,2.19,2.19,0,0,1,.781-.455Z" transform="translate(-1910.905 -7192.957)" fill="#110050"/>
            <path id="Path_1016" data-name="Path 1016" d="M1923.171,7197.934c.289,2.936.433,4.405.721,7.343q10.18-.974,20.375-1.735a1.382,1.382,0,0,1,.927.253,1.158,1.158,0,0,1,.447.913l.455,6.461a1.606,1.606,0,0,1-.282.935,1.085,1.085,0,0,1-.89.553q-15.033,1.122-30.014,2.747-1.269.139-1.424-1.251-1.287-11.421-2.575-22.846a.8.8,0,0,1-.007-.128,1.256,1.256,0,0,1,.234-.79,1.16,1.16,0,0,1,.782-.455.843.843,0,0,1,.159-.024q15.48-1.683,31-2.839a1.433,1.433,0,0,1,.946.248,1.147,1.147,0,0,1,.455.915c.182,2.583.273,3.874.454,6.457a1.578,1.578,0,0,1-.289.939,1.122,1.122,0,0,1-.91.554Q1933.443,7196.947,1923.171,7197.934Z" transform="translate(-1910.903 -7187.065)" fill="#110050"/>
          </g>
          <path id="Path_1017" data-name="Path 1017" d="M2036.647,7158.861c.343.249.794.581,1.336,1a17.227,17.227,0,0,0,1.844,1.236,15.382,15.382,0,0,0,3.032,1.368,8.9,8.9,0,0,0,3.1.4,8.348,8.348,0,0,0,2.486-.435,4.281,4.281,0,0,0,1.561-.935,3.089,3.089,0,0,0,.788-1.289,4.584,4.584,0,0,0,.193-1.523,2.2,2.2,0,0,0-.751-1.56,7.14,7.14,0,0,0-1.743-1.177,14.7,14.7,0,0,0-2.134-.842q-1.109-.34-1.918-.56a46.6,46.6,0,0,1-6.341-2.28,19.8,19.8,0,0,1-4.625-2.835,11.7,11.7,0,0,1-2.907-3.577,11.253,11.253,0,0,1-1.183-4.5,10.242,10.242,0,0,1,.83-4.894,10.62,10.62,0,0,1,3.021-3.9,15.629,15.629,0,0,1,4.964-2.662,23.856,23.856,0,0,1,6.636-1.157,23.026,23.026,0,0,1,5.345.373,20.417,20.417,0,0,1,5.073,1.705q1.051.541,2,1.129t1.656,1.142a7.454,7.454,0,0,1,1.134,1.06,1.534,1.534,0,0,1,.431.877,1.266,1.266,0,0,1-.18.691,4.373,4.373,0,0,1-.571.73c-1.8,1.912-2.7,2.871-4.478,4.792a1.5,1.5,0,0,1-1.005.52,1.363,1.363,0,0,1-.773-.2c-.235-.146-.5-.327-.785-.547l-.278-.219q-.618-.466-1.374-.955a12.132,12.132,0,0,0-1.615-.87,10.764,10.764,0,0,0-1.8-.615,6.685,6.685,0,0,0-1.911-.193,10.546,10.546,0,0,0-1.863.239,5.417,5.417,0,0,0-1.514.569,2.874,2.874,0,0,0-1.011.951,2.529,2.529,0,0,0,.162,2.743,4.131,4.131,0,0,0,1.31,1.026,12.118,12.118,0,0,0,2.123.849q1.26.388,2.926.838,3.208.872,5.913,1.886a19.286,19.286,0,0,1,4.678,2.465,10.7,10.7,0,0,1,3.1,3.513,10.878,10.878,0,0,1,1.193,5.039,12.355,12.355,0,0,1-1.187,5.737,13.337,13.337,0,0,1-3.48,4.457,17.142,17.142,0,0,1-5.256,2.959,21.992,21.992,0,0,1-6.549,1.248,19.376,19.376,0,0,1-6.586-.861,26.181,26.181,0,0,1-6.172-2.816,15.847,15.847,0,0,1-2.061-1.513q-.85-.751-1.347-1.209c-.037-.031-.055-.047-.092-.08a.165.165,0,0,0-.063-.067.163.163,0,0,1-.061-.039.287.287,0,0,0-.063-.069.17.17,0,0,1-.061-.039,1.986,1.986,0,0,1-.745-1.1,1.614,1.614,0,0,1,.6-1.131c1.9-2.014,2.856-3.019,4.781-5.023a1.94,1.94,0,0,1,.975-.485,1.1,1.1,0,0,1,.568.14A5.812,5.812,0,0,1,2036.647,7158.861Z" transform="translate(-1892.588 -7128.724)" fill="#110050"/>
          <path id="Path_1018" data-name="Path 1018" d="M2144.839,7130.655a1.131,1.131,0,0,1,.4-.921,1.54,1.54,0,0,1,1.016-.358q16.407-.2,32.806.174a1.609,1.609,0,0,1,.966.34,1.254,1.254,0,0,1,.462.954c-.077,2.842-.116,4.263-.192,7.1a1.563,1.563,0,0,1-.4.975,1.289,1.289,0,0,1-1.082.442q-5.2-.133-10.392-.2l-.391,31.331a1.362,1.362,0,0,1-.386.927,1.27,1.27,0,0,1-.986.4c-3.391-.037-5.087-.046-8.479-.045a1.368,1.368,0,0,1-.924-.387,1.235,1.235,0,0,1-.434-.959q-.029-15.668-.059-31.333-5.181.006-10.363.086a1.45,1.45,0,0,1-1.015-.355,1.4,1.4,0,0,1-.424-1.078C2144.91,7134.916,2144.886,7133.5,2144.839,7130.655Z" transform="translate(-1970.53 -7129.116)" fill="#110050"/>
          <path id="Path_1019" data-name="Path 1019" d="M2658.375,7227.535a.7.7,0,0,1-.481.551,1.118,1.118,0,0,1-.154.031,1.17,1.17,0,0,1-.146.007,1.609,1.609,0,0,1-.2-.014c-.079-.011-.162-.025-.249-.045q-4.557-1.093-9.129-2.121a1.511,1.511,0,0,1-1.239-1.392q-1.514-13.7-3.277-27.366-1.884,2.938-3.644,5.887T2636.38,7209q-.825,1.438-1.658,2.874c1.846.271,3.707.565,5.56.894a1.581,1.581,0,0,1,1.385,1.378c.652,3.56.971,5.34,1.593,8.9a1.36,1.36,0,0,1-.084.954.834.834,0,0,1-.6.376,1.069,1.069,0,0,1-.321.021l-.085.016q-7.152-1.428-14.322-2.757l-.019,0c-.284-.054-.426-.079-.71-.131-3.39-.669-5.087-.993-8.483-1.625a1.446,1.446,0,0,1-.887-.411.766.766,0,0,1-.165-.4,1.024,1.024,0,0,1,.014-.278,1.253,1.253,0,0,1,.084-.3c.006-.035.009-.052.015-.083q10.933-17.583,22.427-34.794c.153-.244.335-.507.537-.8.1-.145.208-.281.316-.412a0,0,0,0,1,0,0c.108-.128.22-.253.336-.368a3.142,3.142,0,0,1,.566-.445c.07-.041.138-.077.206-.115a1.326,1.326,0,0,1,.35-.115,1.18,1.18,0,0,1,.187-.023h.122a1.7,1.7,0,0,1,.208.03c2.964.613,4.446.929,7.407,1.569a2.4,2.4,0,0,1,.417.128s0,0,0,0a1.222,1.222,0,0,1,.55.428.917.917,0,0,1,.132.3,7.851,7.851,0,0,1,.284.865c.026.1.05.2.071.294.045.2.094.4.136.592s.084.4.121.605q3.483,20.4,6.321,40.888a.7.7,0,0,0-.017.258A.622.622,0,0,1,2658.375,7227.535Z" transform="translate(-2288.581 -7164.126)" fill="#110050"/>
          <path id="Path_1020" data-name="Path 1020" d="M2675.024,7253.672l3.475-5.929Z" transform="translate(-2327.225 -7208.797)" fill="#110050"/>
          <path id="Path_1021" data-name="Path 1021" d="M2702.124,7182.941a3.922,3.922,0,0,1,.413.131s-.263-.095-.417-.128c-2.961-.641-4.443-.956-7.407-1.569a1.691,1.691,0,0,0-.209-.03,1.344,1.344,0,0,1,.213.027C2697.681,7181.985,2699.163,7182.3,2702.124,7182.941Z" transform="translate(-2340.33 -7164.126)" fill="#110050"/>
          <path id="Path_1022" data-name="Path 1022" d="M2719.063,7186.625l.549.426Z" transform="translate(-2356.854 -7167.678)" fill="#110050"/>
          <path id="Path_1023" data-name="Path 1023" d="M2722.219,7192.381s-.091-.4-.135-.592c-.022-.1-.072-.294-.072-.294s.051.2.075.3C2722.135,7191.982,2722.219,7192.381,2722.219,7192.381Z" transform="translate(-2358.838 -7170.955)" fill="#110050"/>
          <path id="Path_1024" data-name="Path 1024" d="M2388.281,7139.479a1.218,1.218,0,0,1,1.443-1.142q4.972.42,9.938.91a2.217,2.217,0,0,1,.862.284,1.9,1.9,0,0,1,.721.763q3.223,6.132,6.39,12.291,3.155,6.142,6.2,12.342,1.351-11.379,2.7-22.762a1.372,1.372,0,0,1,.58-.736,1.332,1.332,0,0,1,.883-.183c3.457.415,5.185.633,8.638,1.085a1.71,1.71,0,0,1,1.017.466,1.106,1.106,0,0,1,.3.979q-2.644,19.887-5.29,39.771a1.008,1.008,0,0,1-.456.79,1.512,1.512,0,0,1-.984.145q-4.58-.6-9.169-1.147a.978.978,0,0,1-.631-.335,4.608,4.608,0,0,1-.525-.754q-3.08-6.636-6.244-13.229c-2.13-4.416-4.315-8.8-6.522-13.183q-1.2,12.23-2.392,24.464a1.354,1.354,0,0,1-.38.912,1.393,1.393,0,0,1-1.068.213c-3.273-.313-4.91-.463-8.186-.743a1.206,1.206,0,0,1-.936-.438,1.3,1.3,0,0,1-.23-.895Q2386.611,7159.412,2388.281,7139.479Z" transform="translate(-2132.062 -7135.186)" fill="#110050"/>
          <path id="Path_1025" data-name="Path 1025" d="M2552.286,7172.291q4.8-6.712,9.7-13.353a3.909,3.909,0,0,1,.388-.44.907.907,0,0,1,.281-.183.673.673,0,0,1,.271-.039,1.566,1.566,0,0,0,.329-.014q5.8,1.025,11.593,2.136a.492.492,0,0,1,.322.191.4.4,0,0,1,.078.321,1.091,1.091,0,0,1-.555.623q-9.321,10.4-18.359,21.052-1.366,7.882-2.734,15.762a1.183,1.183,0,0,1-1.541,1.1c-3.423-.589-5.136-.872-8.563-1.421a1.138,1.138,0,0,1-.83-.5,1.427,1.427,0,0,1-.159-1.024q1.257-7.928,2.515-15.855-5.1-12.968-10.528-25.795a1.026,1.026,0,0,1-.294-.763.422.422,0,0,1,.162-.28.441.441,0,0,1,.352-.08q5.827.819,11.643,1.723a2.439,2.439,0,0,0,.321.122.637.637,0,0,1,.228.123.9.9,0,0,1,.207.264q.1.174.254.547Q2549.885,7164.383,2552.286,7172.291Z" transform="translate(-2232.477 -7145.545)" fill="#110050"/>
          <path id="Path_1026" data-name="Path 1026" d="M2627.617,7298.018c.072.014.144.025.211.031l-.71-.131Zm-9.937-3.123a1.122,1.122,0,0,0-.086.3.922.922,0,0,0-.011.281,1.068,1.068,0,0,1,.014-.28A1.3,1.3,0,0,1,2617.681,7294.9Z" transform="translate(-2288.577 -7240.52)" fill="#110050"/>
          <g id="Group_55" data-name="Group 55" transform="translate(0 15.039)">
            <g id="Group_54" data-name="Group 54">
              <path id="Path_1027" data-name="Path 1027" d="M1655.685,7186.689a21.7,21.7,0,0,0-3.232-4.73,21.224,21.224,0,0,0-4.385-3.709,22.459,22.459,0,0,0-5.3-2.464,24.127,24.127,0,0,0-5.932-1.067,24.415,24.415,0,0,0-12.222,2.568,24.255,24.255,0,0,0-4.994,3.362,22.007,22.007,0,0,0-6.384,9.549,20.85,20.85,0,0,0-1.061,5.634,20.6,20.6,0,0,0,.568,5.854,21,21,0,0,0,2.14,5.477,21.31,21.31,0,0,0,3.426,4.538c.351.354.713.7,1.088,1.027l.34-.588a21.456,21.456,0,0,1,1.453-2.177,24.218,24.218,0,0,1,4.184-4.234c.059-.047.124-.1.19-.146l.161-.134c.393-.313.8-.613,1.2-.9a11.449,11.449,0,0,1-1.111-1.373,11.759,11.759,0,0,1-1.787-4.146,11.6,11.6,0,0,1-.147-4.5,10.82,10.82,0,0,1,4.534-7.191,12.2,12.2,0,0,1,9.019-1.9,10.795,10.795,0,0,1,7.056,4.757,11.633,11.633,0,0,1,1.675,4.178,11.763,11.763,0,0,1,.047,4.425c0,.03-.01.06-.014.09a11.219,11.219,0,0,1-.474,1.725c.388.073.775.16,1.163.256.07.02.146.036.219.055s.146.037.218.055c.294.075.593.152.882.236a23.94,23.94,0,0,1,4.673,1.869,21.275,21.275,0,0,1,3.017,1.958c.2-.446.391-.9.566-1.366a21.877,21.877,0,0,0,1.007-3.551c.126-.647.226-1.31.3-1.98a20.669,20.669,0,0,0-.23-5.878A20.272,20.272,0,0,0,1655.685,7186.689Z" transform="translate(-1612.152 -7174.682)" fill="#110050"/>
            </g>
            <path id="Path_1028" data-name="Path 1028" d="M1680.49,7273.395a1.322,1.322,0,0,1-.369.614,3.806,3.806,0,0,1-.339.277c-.117.085-.252.177-.4.27-.452.274-.678.411-1.129.687-1.76,1.071-2.637,1.61-4.387,2.693a1.438,1.438,0,0,1-1.077.225,1.246,1.246,0,0,1-.654-.4c-.175-.2-.366-.451-.565-.738l-.194-.288c-.221-.312-.469-.644-.738-.979q-.123-.155-.25-.308a11.018,11.018,0,0,0-1.235-1.274c-.009-.008-.014-.015-.022-.021a16.392,16.392,0,0,0-2.46-1.545,9.024,9.024,0,0,0-2.947-.641,13.2,13.2,0,0,0-3.166.243,17.29,17.29,0,0,0-2.942.752,9.2,9.2,0,0,0-1.9,1.011,8.76,8.76,0,0,0-2.23,2.165,9.512,9.512,0,0,0-.787,1.362,22.635,22.635,0,0,1-8.525-4.8,17.313,17.313,0,0,1,1.229-1.836,21.043,21.043,0,0,1,3.618-3.65c.056-.046.116-.093.176-.138s.118-.1.174-.143a19.722,19.722,0,0,1,2.613-1.787c.587-.343,1.185-.659,1.8-.939a19.373,19.373,0,0,1,5.023-1.513c.132-.021.268-.038.4-.051a18.94,18.94,0,0,1,3.222-.278,21.461,21.461,0,0,1,5.139.644c.072.018.146.037.218.057s.148.033.219.052c.254.064.508.13.756.2a21.045,21.045,0,0,1,4.05,1.615,17.973,17.973,0,0,1,4.144,3.017c.433.422.836.871,1.214,1.3.093.105.189.213.279.321a18.888,18.888,0,0,1,1.18,1.547,7.193,7.193,0,0,1,.73,1.324A1.569,1.569,0,0,1,1680.49,7273.395Z" transform="translate(-1633.694 -7233.667)" fill="#110050"/>
          </g>
          <path id="Path_1029" data-name="Path 1029" d="M2280.8,7174.809c-.054.521-.451.771-1.1.724q-4.644-.35-9.294-.635a1.5,1.5,0,0,1-1.437-1.176q-3.652-13.282-7.547-26.491-1.385,3.195-2.648,6.391t-2.476,6.408c-.389,1.032-1.09,2.877-1.09,2.877,2.421.089,3.632.139,6.052.245a1.572,1.572,0,0,1,1.577,1.139c1.021,3.512,1.527,5.269,2.522,8.783a1.373,1.373,0,0,1,.069.958.841.841,0,0,1-.526.466.863.863,0,0,1-.258.063q-11.921-.623-23.85-.939a1.435,1.435,0,0,1-.933-.265.84.84,0,0,1-.257-.591,16.214,16.214,0,0,1,.9-3.026l.833-1.994q.417-.993.836-1.987l.657-1.555.3-.7q2.554-6.015,5.176-12,2.53-5.779,5.123-11.529c1.011-2.239,1.52-3.359,2.543-5.6.112-.264.247-.553.4-.871a6.118,6.118,0,0,1,.525-.881,2.91,2.91,0,0,1,.667-.673,1.325,1.325,0,0,1,.838-.251c3.01.134,4.515.207,7.524.368a1.261,1.261,0,0,1,1.213.67,9.081,9.081,0,0,1,.536,1.09c.151.368.3.754.438,1.144.11.314.217.636.326.954q.445,1.308.887,2.615.658,1.948,1.31,3.9.8,2.4,1.592,4.8.877,2.66,1.74,5.325.886,2.735,1.758,5.471.833,2.619,1.654,5.238.725,2.31,1.438,4.623.56,1.811,1.114,3.624a22.106,22.106,0,0,1,.856,2.908A1.438,1.438,0,0,1,2280.8,7174.809Z" transform="translate(-2034.288 -7130.727)" fill="#110050"/>
          <path id="Path_1030" data-name="Path 1030" d="M2658.5,7227.469c-.136.5-.571.687-1.208.535q-4.556-1.091-9.127-2.118a1.513,1.513,0,0,1-1.24-1.394q-1.515-13.7-3.28-27.363-1.882,2.931-3.643,5.884t-3.475,5.931c-.55.957-1.538,2.666-1.538,2.666,2.387.476,3.58.718,5.965,1.212a1.58,1.58,0,0,1,1.384,1.376c.456,3.631.677,5.447,1.107,9.076a1.363,1.363,0,0,1-.084.956.838.838,0,0,1-.6.376.811.811,0,0,1-.266.022q-11.725-2.525-23.508-4.748a1.427,1.427,0,0,1-.883-.409.837.837,0,0,1-.161-.623,16.191,16.191,0,0,1,1.369-2.845q.571-.918,1.144-1.836l1.144-1.828.9-1.431c.133-.212.267-.423.4-.641q3.489-5.531,7.041-11.02,3.427-5.3,6.914-10.563c1.358-2.05,2.041-3.074,3.412-5.119.153-.242.333-.507.536-.8a6.126,6.126,0,0,1,.662-.787,2.9,2.9,0,0,1,.769-.556,1.328,1.328,0,0,1,.872-.114c2.965.613,4.447.929,7.408,1.569a1.273,1.273,0,0,1,1.1.854,9.361,9.361,0,0,1,.358,1.164c.091.387.179.792.253,1.2.06.329.115.664.172,1q.234,1.361.465,2.724.344,2.03.68,4.057.415,2.5.817,5,.447,2.769.881,5.537.446,2.84.876,5.685.412,2.719.811,5.438.352,2.4.694,4.795.269,1.879.529,3.759a22.042,22.042,0,0,1,.39,3.008A1.5,1.5,0,0,1,2658.5,7227.469Z" transform="translate(-2288.824 -7164.084)" fill="#110050"/>
          <path id="Path_1031" data-name="Path 1031" d="M1658.257,7218.854c1.591-3.494,5.777-4.511,9.285-4.039C1663.78,7214.848,1661.109,7216.679,1658.257,7218.854Z" transform="translate(-1643.17 -7186.571)" fill="#110050"/>
          <path id="Path_1032" data-name="Path 1032" d="M1672.646,7229.985c-.032.006-.049.008-.081.016-5.708-.477-10.608.164-15.566,3.253-.033.1-.066.2-.1.3l-.02,0c-.1-.145-.2-.295-.3-.447a7.868,7.868,0,0,1-.527-1.037,8.35,8.35,0,0,1-.563-2.04,8.52,8.52,0,0,1-.057-1.963v0a9.653,9.653,0,0,1,.252-1.509c.073-.294.156-.58.254-.858,4.824-2.977,9.581-3.582,15.119-3.1a7.494,7.494,0,0,1,.755,1.085c.114.2.22.405.314.609a8.371,8.371,0,0,1,.708,2.512,8.658,8.658,0,0,1,.052,1.425A9.363,9.363,0,0,1,1672.646,7229.985Z" transform="translate(-1641.254 -7191.781)" fill="#110050"/>
        </g>
      </g>
    </g>
  </g>
</svg>
