<svg width="20" height="19" viewBox="0 0 20 19" fill="none" xmlns="http://www.w3.org/2000/svg">
<path d="M10.145 0.59375C4.68469 0.59375 0.366699 4.50289 0.366699 9.22168C0.366699 11.2319 1.16212 13.1794 2.60981 14.7224C2.89625 15.9036 2.54849 17.1552 1.68558 18.0181C1.32482 18.3788 1.58017 19 2.09229 19C3.73136 19 5.31123 18.3577 6.48578 17.2257C7.64737 17.6399 8.87645 17.8496 10.145 17.8496C15.6205 17.8496 20 13.929 20 9.22168C20 4.51171 15.6175 0.59375 10.145 0.59375ZM10.145 16.7069C8.89029 16.7069 7.68061 16.4708 6.54959 16.0204C6.32745 15.932 6.07383 15.9901 5.91243 16.1665C5.21767 16.9257 4.31449 17.4551 3.33068 17.6984C3.87274 16.6597 4.01129 15.4352 3.68132 14.2751C3.65532 14.1836 3.607 14.1 3.54074 14.0318C2.23578 12.6876 1.50942 10.9794 1.50942 9.22168C1.50942 5.09856 5.38758 1.73647 10.145 1.73647C14.9448 1.73647 18.8573 5.09856 18.8573 9.22168C18.8573 13.3448 14.9448 16.7069 10.145 16.7069Z" fill="#F232A4"/>
</svg>
